<?xml version='1.0' encoding='UTF-8' ?>
<!DOCTYPE svg PUBLIC "-//W3C//DTD SVG 1.1//EN" "http://www.w3.org/Graphics/SVG/1.1/DTD/svg11.dtd" [ 
 <!ATTLIST svg 
                                               xmlns:dsy CDATA #FIXED "http://www.3ds.com/print"  
                                               dsy:text-version CDATA #IMPLIED > 

                                               <!ATTLIST text 
                                               xmlns:dsy CDATA #FIXED "http://www.3ds.com/print" 
                                               dsy:text-version CDATA #IMPLIED > 
                                                ]>
<svg style = "background : rgb(255,255,255)" width = "279.4mm" xmlns = "http://www.w3.org/2000/svg" height = "215.9mm" version = "1.1" viewBox = "0 0 279.4 215.9" xmlns:dsy = "http://www.3ds.com/print" xmlns:xlink = "http://www.w3.org/1999/xlink" dsy:text-version = "21000"><g fill = "none" stroke = "rgb(0, 0, 0)" stroke-width = "0.13" stroke-linecap = "butt" stroke-linejoin = "miter"><path d = "M 109.401 188.854 L 109.407 188.859 L 109.413 188.865 L 109.425 188.883"/><path d = "M 109.349 187.659 L 109.391 187.678 L 109.43 187.703 L 109.465 187.734 L 109.495 187.769 L 109.521 187.809 L 109.545 187.857 L 109.563 187.909 L 109.577 187.963 L 109.584 188 L 109.589 188.038 L 109.593 188.086 L 109.595 188.135 L 109.594 188.207 L 109.59 188.28 L 109.583 188.35 L 109.573 188.419 L 109.56 188.496 L 109.545 188.573 L 109.526 188.656 L 109.505 188.738 L 109.479 188.832 L 109.451 188.925"/><path d = "M 104.51817 187.3334 A 1.2700071 0.052218858 -164.82391 0 0 105.88162 187.71201"/><path d = "M 104.758 187.185 L 104.782 187.178 L 104.791 187.178 L 104.797 187.179 L 104.799 187.18 L 104.8 187.182 L 104.8 187.184 L 104.798 187.19 L 104.789 187.199 L 104.774 187.211 L 104.731 187.237 L 104.691 187.257 L 104.594 187.301 L 104.518 187.333"/><path d = "M 104.702 187.204 L 104.744 187.107 L 104.787 187.012 L 104.846 186.893 L 104.91 186.778 L 104.944 186.721 L 104.979 186.666 L 105.036 186.585 L 105.097 186.508 L 105.13 186.471 L 105.164 186.437 L 105.199 186.405 L 105.234 186.376 L 105.285 186.341 L 105.337 186.313 L 105.365 186.301 L 105.392 186.291 L 105.43 186.282 L 105.468 186.277 L 105.506 186.276 L 105.552 186.281 L 105.598 186.293 L 105.642 186.313 L 105.684 186.338 L 105.723 186.369 L 105.757 186.402 L 105.788 186.438 L 105.816 186.478 L 105.836 186.509 L 105.854 186.541 L 105.872 186.579 L 105.889 186.617 L 105.905 186.66 L 105.92 186.704 L 105.943 186.791 L 105.959 186.88 L 105.969 186.969 L 105.975 187.054 L 105.975 187.14 L 105.972 187.225 L 105.967 187.288 L 105.959 187.352 L 105.943 187.457 L 105.921 187.562 L 105.903 187.638 L 105.882 187.712"/><path d = "M 103.019 192.976 L 103.209 193.03 L 103.412 193.086 L 103.837 193.199 L 104.231 193.299"/><path d = "M 104.51825 187.33336 A 538.57275 538.57275 0 0 0 103.01935 192.9761"/><path d = "M 105.88159 187.71201 A 776.25818 776.25818 0 0 0 104.23053 193.29929"/><path d = "M 102.889 193.202 L 103.073 193.283 L 103.27 193.373 L 103.682 193.564 L 104.067 193.748"/><path d = "M 102.88918 193.20174 A 1.1745671 1.1745671 0 0 0 103.01946 192.97618"/><path d = "M 104.06721 193.74831 A 3.6873717 3.6873717 0 0 0 104.23068 193.29938"/><path d = "M 108.22647 188.56546 A 1.2700071 0.052918918 -515.19147 0 0 109.51553 189.15228"/><path d = "M 107.03787 194.43884 A 535.36664 535.36664 0 0 0 109.51538 189.15231"/><path d = "M 105.90061 193.9072 A 1.2700071 0.040366106 -514.56525 0 0 107.03787 194.43877"/><path d = "M 105.90063 193.90714 A 771.66827 771.66827 0 0 0 108.22632 188.56558"/><path d = "M 107.03782 194.43874 A 1.1753995 1.1753995 0 0 0 106.9929 194.69536"/><path d = "M 106.993 194.695 L 106.798 194.639 L 106.59 194.581 L 106.15 194.462 L 105.737 194.356"/><path d = "M 105.90061 193.90717 A 3.6951432 3.6951432 0 0 0 105.73727 194.35614"/><path d = "M 109.516 189.152 L 109.457 189.037 L 109.43 188.981 L 109.41 188.932 L 109.399 188.901 L 109.393 188.877 L 109.392 188.862 L 109.393 188.857 L 109.395 188.855 L 109.398 188.854 L 109.401 188.854"/><path d = "M 108.226 188.565 L 108.26 188.492 L 108.295 188.42 L 108.347 188.324 L 108.404 188.231 L 108.466 188.141 L 108.533 188.054 L 108.606 187.971 L 108.644 187.932 L 108.684 187.894 L 108.753 187.835 L 108.825 187.781 L 108.863 187.757 L 108.901 187.734 L 108.965 187.701 L 109.031 187.673 L 109.098 187.653 L 109.132 187.646 L 109.165 187.641 L 109.213 187.637 L 109.26 187.639 L 109.305 187.646 L 109.349 187.659"/><path d = "M 113.255 195.263 L 109.516 189.152"/></g><g fill = "none" stroke = "rgb(0, 0, 0)" stroke-width = "0.35" stroke-linecap = "butt" stroke-linejoin = "miter"><path d = "M 113.255 195.263 L 111.797 198.611"/></g><g fill = "none" stroke = "rgb(0, 0, 0)" stroke-width = "0.13" stroke-linecap = "butt" stroke-linejoin = "miter"><path d = "M 111.797 198.611 L 107.038 194.439"/><path d = "M 111.715 198.835 L 106.993 194.695"/></g><g fill = "none" stroke = "rgb(0, 0, 0)" stroke-width = "0.35" stroke-linecap = "butt" stroke-linejoin = "miter"><path d = "M 111.79706 198.61081 A 1.9428092 1.9428092 0 0 0 111.71536 198.8353"/><path d = "M 113.321 195.287 L 113.324 195.27 L 113.322 195.255 L 113.318 195.244"/><path d = "M 113.318 195.244 L 113.31 195.235 L 113.3 195.231 L 113.289 195.231 L 113.278 195.235 L 113.268 195.243 L 113.259 195.254 L 113.255 195.263"/><path d = "M 113.321 195.287 L 112.285 198.789"/><path d = "M 112.20374 199.01306 A 1.9428092 1.9428092 0 0 0 112.28546 198.78857"/><path d = "M 97.6939 189.599 L 96.2346 192.947"/><path d = "M 96.234627 192.94656 A 1.9301938 1.9301938 0 0 0 96.152931 193.17104"/></g><g fill = "none" stroke = "rgb(0, 0, 0)" stroke-width = "0.13" stroke-linecap = "butt" stroke-linejoin = "miter"><path d = "M 97.7603 189.623 L 104.518 187.333"/></g><g fill = "none" stroke = "rgb(0, 0, 0)" stroke-width = "0.35" stroke-linecap = "butt" stroke-linejoin = "miter"><path d = "M 97.7603 189.623 L 97.7629 189.608 L 97.7622 189.594 L 97.7581 189.582 L 97.7507 189.573 L 97.7446 189.569 L 97.7376 189.567 L 97.7238 189.568"/><path d = "M 97.7238 189.568 L 97.7131 189.574 L 97.7038 189.583 L 97.6939 189.599"/></g><g fill = "none" stroke = "rgb(0, 0, 0)" stroke-width = "0.13" stroke-linecap = "butt" stroke-linejoin = "miter"><path d = "M 96.7262 193.125 L 103.019 192.976"/></g><g fill = "none" stroke = "rgb(0, 0, 0)" stroke-width = "0.35" stroke-linecap = "butt" stroke-linejoin = "miter"><path d = "M 97.7603 189.623 L 96.7262 193.125"/><path d = "M 96.644485 193.34995 A 1.9301938 1.9301938 0 0 0 96.726204 193.12547"/></g><g fill = "none" stroke = "rgb(0, 0, 0)" stroke-width = "0.13" stroke-linecap = "butt" stroke-linejoin = "miter"><path d = "M 96.6445 193.35 L 102.889 193.202"/><path d = "M 97.6433 189.58 L 101.888 188.157"/></g><g fill = "none" stroke = "rgb(0, 0, 0)" stroke-width = "0.35" stroke-linecap = "butt" stroke-linejoin = "miter"><path d = "M 97.6433 189.58 L 97.6517 189.566 L 97.6629 189.555 L 97.6734 189.55"/></g><g fill = "none" stroke = "rgb(0, 0, 0)" stroke-width = "0.13" stroke-linecap = "butt" stroke-linejoin = "miter"><path d = "M 96.1855 192.929 L 96.2434 192.926"/></g><g fill = "none" stroke = "rgb(0, 0, 0)" stroke-width = "0.35" stroke-linecap = "butt" stroke-linejoin = "miter"><path d = "M 97.6433 189.58 L 96.1855 192.929"/><path d = "M 96.185471 192.92867 A 1.9428092 1.9428092 0 0 0 96.103775 193.15315"/></g><g fill = "none" stroke = "rgb(0, 0, 0)" stroke-width = "0.13" stroke-linecap = "butt" stroke-linejoin = "miter"><path d = "M 96.1038 193.153 L 96.159 193.151"/></g><g fill = "none" stroke = "rgb(0, 0, 0)" stroke-width = "0.35" stroke-linecap = "butt" stroke-linejoin = "miter"><path d = "M 95.0698 196.65 L 95.1203 196.668"/><path d = "M 95.0698 196.65 L 96.1038 193.153"/><path d = "M 95.1874 196.693 L 100.378 198.582"/><path d = "M 95.1874 196.693 L 96.6445 193.35"/></g><g fill = "none" stroke = "rgb(0, 0, 0)" stroke-width = "0.13" stroke-linecap = "butt" stroke-linejoin = "miter"><path d = "M 102.8894 193.20149 A 601.38544 601.38544 0 0 0 100.37817 198.582"/></g><g fill = "none" stroke = "rgb(0, 0, 0)" stroke-width = "0.35" stroke-linecap = "butt" stroke-linejoin = "miter"><path d = "M 95.1204 196.668 L 96.1529 193.171"/><path d = "M 95.1874 196.693 L 95.1204 196.668"/><path d = "M 110.748 202.356 L 112.204 199.013"/><path d = "M 110.681 202.332 L 105.457 200.431"/></g><g fill = "none" stroke = "rgb(0, 0, 0)" stroke-width = "0.13" stroke-linecap = "butt" stroke-linejoin = "miter"><path d = "M 105.45673 200.43085 A 597.4436 597.4436 0 0 0 106.99286 194.6955"/></g><g fill = "none" stroke = "rgb(0, 0, 0)" stroke-width = "0.35" stroke-linecap = "butt" stroke-linejoin = "miter"><path d = "M 110.681 202.332 L 111.715 198.835"/><path d = "M 110.748 202.356 L 110.681 202.332"/><path d = "M 105.457 200.431 L 104.082 199.93"/></g><g fill = "none" stroke = "rgb(0, 0, 0)" stroke-width = "0.13" stroke-linecap = "butt" stroke-linejoin = "miter"><path d = "M 104.08197 199.93002 A 860.46399 860.46399 0 0 0 105.7373 194.35626"/></g><g fill = "none" stroke = "rgb(0, 0, 0)" stroke-width = "0.35" stroke-linecap = "butt" stroke-linejoin = "miter"><path d = "M 100.378 198.582 L 101.751 199.082"/></g><g fill = "none" stroke = "rgb(0, 0, 0)" stroke-width = "0.13" stroke-linecap = "butt" stroke-linejoin = "miter"><path d = "M 104.0672 193.74823 A 866.18176 866.18176 0 0 0 101.75146 199.08182"/></g><g fill = "none" stroke = "rgb(0, 0, 0)" stroke-width = "0.35" stroke-linecap = "butt" stroke-linejoin = "miter"><path d = "M 101.751 199.082 L 104.082 199.93"/><path d = "M 109.834 186.198 L 110.587 186.472"/><path d = "M 105.404 184.585 L 109.834 186.198"/><path d = "M 104.912 185.758 L 109.44 187.406"/><path d = "M 109.44 187.406 L 110.21 187.686"/><path d = "M 109.425 188.883 L 109.395 188.829 L 109.375 188.78 L 109.361 188.738 L 109.353 188.691"/><path d = "M 104.758 187.185 L 104.813 187.163 L 104.859 187.14 L 104.902 187.112 L 104.932 187.087"/><path d = "M 113.318 195.244 L 109.425 188.883"/><path d = "M 97.7238 189.568 L 104.758 187.185"/><path d = "M 97.6734 189.55 L 104.346 187.313"/><path d = "M 104.912 185.758 L 104.341 187.326"/><path d = "M 110.21 187.686 L 109.644 189.241"/><path d = "M 110.587 186.472 L 110.21 187.686"/><path d = "M 105.404 184.585 L 104.912 185.758"/><path d = "M 132.439 112.808 L 136.763 114.381"/><path d = "M 132.765 111.913 L 137.088 113.486"/><path d = "M 131.691 112.535 L 132.439 112.808"/><path d = "M 132.016 111.64 L 132.765 111.913"/><path d = "M 137.088 113.486 L 136.763 114.381"/><path d = "M 136.898 113.34 L 136.892 113.415"/><path d = "M 132.256 111.651 L 132.213 111.712"/><path d = "M 132.016 111.64 L 131.852 112.093"/><path d = "M 131.817 112.188 L 131.691 112.535"/><path d = "M 131.85194 112.09322 A 0.05079006 0.049851436 -249.99437 1 0 131.80743 112.1845"/><path d = "M 131.80743 112.1845 A 0.05079006 0.049851436 -249.99437 0 0 131.81424 112.18723"/><path d = "M 131.81424 112.18723 A 0.05079006 0.049851436 -249.99437 0 0 131.85194 112.09322"/><path d = "M 131.86 112.071 L 131.817 112.061 L 131.792 112.058 L 131.776 112.06 L 131.758 112.067 L 131.747 112.076 L 131.738 112.09 L 131.734 112.109 L 131.736 112.126 L 131.744 112.143 L 131.759 112.157 L 131.782 112.172 L 131.807 112.185"/><path d = "M 131.81973 112.07587 A 0.31049076 0.31049076 0 0 0 131.85185 112.09306"/><path d = "M 101.107 199.218 L 105.177 200.699"/><path d = "M 101.227 198.891 L 105.296 200.372"/><path d = "M 100.403 198.962 L 101.107 199.218"/><path d = "M 100.522 198.635 L 101.227 198.891"/><path d = "M 105.296 200.372 L 105.177 200.699"/><path d = "M 100.522 198.635 L 100.403 198.962"/><path d = "M 136.026 114.113 L 136.763 114.381"/><path d = "M 131.691 112.535 L 136.026 114.113"/><path d = "M 132.994 124.3 L 133.003 124.306 L 133.01 124.315 L 133.015 124.325 L 133.018 124.337 L 133.02 124.357 L 133.019 124.38 L 133.016 124.41 L 133.01 124.443 L 132.991 124.512 L 132.966 124.583 L 132.937 124.651 L 132.92 124.682 L 132.903 124.71 L 132.886 124.733 L 132.869 124.752 L 132.853 124.764 L 132.838 124.769 L 132.824 124.768"/><path d = "M 132.88 124.387 L 132.865 124.448 L 132.844 124.511 L 132.82 124.572 L 132.792 124.628"/><path d = "M 132.824 124.768 L 132.817 124.764 L 132.81 124.758 L 132.805 124.749 L 132.8 124.739 L 132.793 124.713 L 132.79 124.676 L 132.792 124.634 L 132.798 124.589 L 132.812 124.533 L 132.832 124.479 L 132.856 124.427 L 132.885 124.38 L 132.911 124.347 L 132.937 124.321 L 132.95 124.311 L 132.963 124.304 L 132.98 124.299 L 132.994 124.3"/><path d = "M 132.397 124.083 L 132.412 124.089 L 132.425 124.098 L 132.438 124.108 L 132.45 124.12 L 132.468 124.148 L 132.482 124.181 L 132.49 124.221 L 132.491 124.264 L 132.487 124.309 L 132.476 124.353 L 132.46 124.397 L 132.436 124.442 L 132.422 124.464 L 132.406 124.485 L 132.39 124.502 L 132.373 124.517 L 132.342 124.538 L 132.325 124.546 L 132.309 124.552 L 132.286 124.557 L 132.264 124.558 L 132.242 124.555 L 132.227 124.551"/><path d = "M 132.343 124.076 L 132.355 124.088 L 132.365 124.103 L 132.374 124.119 L 132.381 124.137 L 132.39 124.176 L 132.393 124.217 L 132.389 124.265 L 132.378 124.314 L 132.361 124.361 L 132.338 124.406 L 132.31 124.445 L 132.281 124.475 L 132.25 124.499 L 132.232 124.508 L 132.215 124.515 L 132.198 124.52 L 132.181 124.522"/><path d = "M 132.227 124.551 L 132.199 124.537 L 132.175 124.516 L 132.154 124.49 L 132.139 124.46 L 132.128 124.428 L 132.122 124.393 L 132.12 124.356 L 132.125 124.31 L 132.136 124.265 L 132.153 124.221 L 132.177 124.181 L 132.206 124.146 L 132.233 124.121 L 132.262 124.101 L 132.293 124.087 L 132.325 124.078 L 132.35 124.075 L 132.374 124.077 L 132.397 124.083"/><path d = "M 131.443 123.736 L 131.469 123.747 L 131.494 123.762 L 131.516 123.78 L 131.531 123.795 L 131.545 123.812 L 131.557 123.829 L 131.567 123.848 L 131.581 123.884 L 131.589 123.921 L 131.591 123.96 L 131.588 123.999 L 131.579 124.037 L 131.565 124.074 L 131.545 124.108 L 131.521 124.139 L 131.493 124.165 L 131.461 124.186 L 131.427 124.203 L 131.391 124.213 L 131.351 124.217 L 131.312 124.214 L 131.273 124.204"/><path d = "M 131.42 123.729 L 131.449 123.747 L 131.476 123.769 L 131.499 123.795 L 131.517 123.824 L 131.531 123.857 L 131.541 123.891 L 131.545 123.927 L 131.544 123.963 L 131.537 124.007 L 131.522 124.048 L 131.501 124.087 L 131.474 124.122 L 131.442 124.151 L 131.413 124.171 L 131.38 124.186 L 131.347 124.196 L 131.312 124.2 L 131.281 124.199 L 131.25 124.194"/><path d = "M 131.273 124.204 L 131.247 124.192 L 131.222 124.177 L 131.199 124.159 L 131.184 124.144 L 131.17 124.127 L 131.157 124.109 L 131.146 124.09 L 131.132 124.057 L 131.123 124.021 L 131.119 123.985 L 131.12 123.949 L 131.127 123.913 L 131.139 123.875 L 131.157 123.841 L 131.18 123.809 L 131.208 123.782 L 131.239 123.759 L 131.274 123.741 L 131.31 123.729 L 131.348 123.723 L 131.38 123.723 L 131.412 123.727 L 131.443 123.736"/><path d = "M 130.15201 123.79563 A 0.24887782 0.24887782 0 0 0 130.32225 123.3279"/><path d = "M 130.152 123.796 L 130.117 123.78 L 130.085 123.758 L 130.056 123.732 L 130.032 123.702 L 130.014 123.668 L 130 123.632 L 129.992 123.594 L 129.991 123.555 L 129.995 123.517 L 130.005 123.479 L 130.021 123.443 L 130.043 123.41 L 130.069 123.381 L 130.099 123.357 L 130.133 123.337 L 130.169 123.323 L 130.207 123.315 L 130.246 123.313 L 130.285 123.317 L 130.322 123.328"/><path d = "M 130.16 123.798 L 130.123 123.78 L 130.09 123.756 L 130.062 123.727 L 130.039 123.693 L 130.021 123.656 L 130.011 123.619 L 130.006 123.581 L 130.007 123.542 L 130.014 123.504 L 130.027 123.468 L 130.045 123.433 L 130.069 123.402 L 130.096 123.376 L 130.126 123.355 L 130.157 123.338 L 130.191 123.327 L 130.226 123.32 L 130.262 123.319 L 130.296 123.322 L 130.33 123.331"/><path d = "M 129.256 122.94 L 129.286 122.954 L 129.314 122.974 L 129.338 122.998 L 129.358 123.027 L 129.374 123.06 L 129.385 123.096 L 129.391 123.134 L 129.391 123.172 L 129.385 123.211 L 129.374 123.249 L 129.358 123.285 L 129.337 123.318 L 129.312 123.347 L 129.283 123.373 L 129.251 123.393 L 129.216 123.407 L 129.183 123.416 L 129.15 123.419 L 129.117 123.416 L 129.085 123.407"/><path d = "M 129.085 123.407 L 129.054 123.392 L 129.025 123.371 L 129.002 123.344 L 128.983 123.313 L 128.97 123.278 L 128.964 123.257 L 128.961 123.234 L 128.96 123.189 L 128.966 123.143 L 128.98 123.098 L 129 123.056 L 129.021 123.024 L 129.046 122.995 L 129.075 122.97 L 129.106 122.951 L 129.143 122.936 L 129.162 122.932 L 129.181 122.93 L 129.206 122.929 L 129.231 122.933 L 129.256 122.94"/><path d = "M 129.124 123.417 L 129.103 123.401 L 129.084 123.382 L 129.068 123.361 L 129.058 123.344 L 129.05 123.325 L 129.039 123.288 L 129.033 123.249 L 129.034 123.209 L 129.04 123.168 L 129.052 123.129 L 129.069 123.091 L 129.09 123.056 L 129.116 123.025 L 129.146 122.999 L 129.179 122.978 L 129.215 122.963 L 129.234 122.959 L 129.253 122.956 L 129.272 122.956 L 129.291 122.957"/><path d = "M 128.455 122.648 L 128.466 122.654 L 128.477 122.661 L 128.496 122.681 L 128.51 122.707 L 128.521 122.739 L 128.527 122.778 L 128.527 122.821 L 128.522 122.865 L 128.511 122.909 L 128.496 122.952 L 128.472 122.998 L 128.444 123.039 L 128.428 123.058 L 128.411 123.074 L 128.383 123.096 L 128.353 123.112 L 128.338 123.117 L 128.324 123.12 L 128.31 123.121 L 128.297 123.119 L 128.285 123.116"/><path d = "M 128.285 123.116 L 128.274 123.111 L 128.264 123.104 L 128.255 123.095 L 128.247 123.084 L 128.235 123.059 L 128.227 123.029 L 128.225 123.007 L 128.225 122.985 L 128.226 122.956 L 128.231 122.927 L 128.243 122.873 L 128.262 122.819 L 128.284 122.773 L 128.309 122.731 L 128.338 122.694 L 128.364 122.671 L 128.39 122.654 L 128.405 122.648 L 128.419 122.645 L 128.431 122.644 L 128.443 122.645 L 128.455 122.648"/><path d = "M 128.355 123.111 L 128.35 123.095 L 128.346 123.078 L 128.343 123.055 L 128.342 123.031 L 128.346 122.984 L 128.355 122.936 L 128.371 122.885 L 128.391 122.836 L 128.416 122.79 L 128.445 122.75 L 128.461 122.732 L 128.478 122.716 L 128.492 122.706 L 128.506 122.697"/><path d = "M 128.079 122.511 L 128.08 122.512 L 128.081 122.514 L 128.083 122.517 L 128.084 122.526 L 128.083 122.552 L 128.075 122.605 L 128.06 122.668 L 128.039 122.736 L 128.012 122.808 L 127.982 122.875 L 127.951 122.931 L 127.935 122.955 L 127.921 122.972 L 127.914 122.978 L 127.911 122.979 L 127.909 122.979"/><path d = "M 127.909 122.979 L 127.907 122.978 L 127.906 122.976 L 127.905 122.971 L 127.906 122.96 L 127.914 122.926 L 127.931 122.87 L 127.979 122.736 L 128.013 122.643 L 128.03 122.6 L 128.053 122.547 L 128.065 122.523 L 128.071 122.516 L 128.075 122.512 L 128.077 122.511 L 128.079 122.511"/><path d = "M 136.763 114.381 L 110.531 186.451"/><path d = "M 131.691 112.535 L 105.459 184.605"/><path d = "M 144.351 93.8718 L 143.576 93.5899"/></g><g fill = "none" stroke = "rgb(0, 0, 0)" stroke-width = "0.13" stroke-linecap = "butt" stroke-linejoin = "miter"><path d = "M 144.932 92.0476 L 144.179 91.7734"/></g><g fill = "none" stroke = "rgb(0, 0, 0)" stroke-width = "0.35" stroke-linecap = "butt" stroke-linejoin = "miter"><path d = "M 143.576 93.5899 L 139.061 91.9467"/></g><g fill = "none" stroke = "rgb(0, 0, 0)" stroke-width = "0.13" stroke-linecap = "butt" stroke-linejoin = "miter"><path d = "M 144.179 91.7734 L 139.789 90.1755"/></g><g fill = "none" stroke = "rgb(0, 0, 0)" stroke-width = "0.35" stroke-linecap = "butt" stroke-linejoin = "miter"><path d = "M 144.932 92.0476 L 144.351 93.8718"/><path d = "M 139.789 90.1755 L 139.061 91.9467"/><path d = "M 144.175 91.7589 L 144.924 92.0318"/><path d = "M 144.93208 92.047569 A 0.012697515 0.012697515 0 0 0 144.92433 92.031784"/><path d = "M 139.805 90.1684 L 144.175 91.7589"/><path d = "M 139.80461 90.168358 A 0.012697515 0.012697515 0 0 0 139.78851 90.175468"/><path d = "M 131.976 111.548 L 136.417 113.165"/><path d = "M 136.417 113.165 L 137.179 113.442"/><path d = "M 132.154 111.057 L 136.596 112.673"/><path d = "M 136.596 112.673 L 137.358 112.951"/><path d = "M 132.111 111.176 L 131.976 111.548"/><path d = "M 137.314 113.07 L 137.179 113.442"/><path d = "M 132.154 111.057 L 132.111 111.176"/><path d = "M 137.358 112.951 L 137.314 113.07"/><path d = "M 159.025 39.7466 L 163.354 41.3223"/><path d = "M 158.282 39.4762 L 159.025 39.7466"/><path d = "M 160.252 49.7944 L 160.254 49.7958 L 160.255 49.7974 L 160.256 49.8023 L 160.255 49.8135 L 160.247 49.8476 L 160.229 49.9034 L 160.181 50.0374 L 160.147 50.1306 L 160.13 50.1734 L 160.108 50.2264 L 160.096 50.25 L 160.09 50.2575 L 160.086 50.2616 L 160.084 50.2624 L 160.082 50.2622"/><path d = "M 160.082 50.2622 L 160.081 50.2612 L 160.08 50.2599 L 160.078 50.2563 L 160.077 50.2479 L 160.078 50.222 L 160.086 50.1692 L 160.101 50.1054 L 160.122 50.0374 L 160.149 49.9657 L 160.18 49.8989 L 160.21 49.8429 L 160.226 49.8183 L 160.24 49.8016 L 160.247 49.7955 L 160.25 49.7943 L 160.252 49.7944"/><path d = "M 159.88 49.6588 L 159.891 49.6639 L 159.901 49.671 L 159.91 49.6798 L 159.918 49.6903 L 159.93 49.7158 L 159.937 49.7461 L 159.939 49.7674 L 159.939 49.7899 L 159.937 49.8184 L 159.933 49.8477 L 159.921 49.902 L 159.902 49.9554 L 159.88 50.0018 L 159.854 50.0441 L 159.826 50.0804 L 159.8 50.1039 L 159.774 50.1207 L 159.76 50.1264 L 159.746 50.1298 L 159.733 50.1308 L 159.721 50.1297 L 159.709 50.1266"/><path d = "M 159.809 49.6643 L 159.814 49.6799 L 159.818 49.697 L 159.821 49.7199 L 159.822 49.7442 L 159.818 49.7907 L 159.808 49.8387 L 159.793 49.8895 L 159.772 49.9387 L 159.748 49.9844 L 159.719 50.0246 L 159.705 50.0409 L 159.69 50.0552 L 159.674 50.0673 L 159.659 50.0768"/><path d = "M 159.709 50.1266 L 159.698 50.1213 L 159.688 50.1141 L 159.669 50.0941 L 159.654 50.0677 L 159.644 50.0364 L 159.638 49.9967 L 159.638 49.954 L 159.643 49.9099 L 159.654 49.8658 L 159.669 49.8228 L 159.693 49.7769 L 159.721 49.7357 L 159.737 49.7174 L 159.754 49.701 L 159.782 49.6788 L 159.812 49.6631 L 159.826 49.6581 L 159.841 49.6552 L 159.855 49.6543 L 159.868 49.6556 L 159.88 49.6588"/><path d = "M 159.082 49.3683 L 159.113 49.3836 L 159.141 49.4049 L 159.165 49.4316 L 159.184 49.4627 L 159.197 49.4973 L 159.202 49.5189 L 159.206 49.5412 L 159.207 49.5868 L 159.2 49.6328 L 159.187 49.6776 L 159.167 49.7198 L 159.145 49.7521 L 159.12 49.7809 L 159.092 49.8053 L 159.061 49.8246 L 159.024 49.8392 L 159.005 49.8437 L 158.986 49.8462 L 158.961 49.8464 L 158.936 49.843 L 158.911 49.8361"/><path d = "M 159.043 49.3589 L 159.064 49.3746 L 159.082 49.3933 L 159.098 49.4146 L 159.108 49.4322 L 159.117 49.4508 L 159.128 49.4877 L 159.133 49.5268 L 159.132 49.5669 L 159.126 49.6071 L 159.114 49.6463 L 159.098 49.684 L 159.076 49.7189 L 159.05 49.75 L 159.021 49.7764 L 158.988 49.7972 L 158.951 49.812 L 158.933 49.8167 L 158.914 49.8193 L 158.895 49.8199 L 158.876 49.8185"/><path d = "M 158.911 49.8361 L 158.881 49.8218 L 158.854 49.8021 L 158.83 49.7776 L 158.81 49.7489 L 158.793 49.7157 L 158.782 49.6798 L 158.777 49.6422 L 158.777 49.6038 L 158.782 49.5649 L 158.793 49.527 L 158.809 49.4911 L 158.83 49.4579 L 158.856 49.4285 L 158.885 49.4034 L 158.917 49.3832 L 158.951 49.3685 L 158.984 49.3601 L 159.017 49.3572 L 159.05 49.36 L 159.082 49.3683"/><path d = "M 158.016 48.9805 L 158.051 48.9966 L 158.083 49.0178 L 158.112 49.0439 L 158.136 49.0741 L 158.155 49.1078 L 158.168 49.144 L 158.176 49.182 L 158.177 49.2208 L 158.173 49.2597 L 158.163 49.2975 L 158.147 49.3332 L 158.125 49.366 L 158.099 49.395 L 158.069 49.4196 L 158.035 49.4391 L 157.999 49.4531 L 157.961 49.4611 L 157.922 49.463 L 157.884 49.4587 L 157.846 49.4484"/><path d = "M 158.008 48.9779 L 158.045 48.9962 L 158.078 49.0203 L 158.106 49.0495 L 158.129 49.083 L 158.147 49.1199 L 158.157 49.157 L 158.162 49.1953 L 158.161 49.2339 L 158.153 49.2719 L 158.141 49.3084 L 158.122 49.3426 L 158.099 49.3735 L 158.071 49.4005 L 158.038 49.424 L 158.001 49.4416 L 157.962 49.4528 L 157.921 49.4574 L 157.88 49.4551 L 157.838 49.4454"/><path d = "M 158.01628 48.980576 A 0.24889739 0.24889739 0 0 0 157.84602 49.448349"/><path d = "M 156.895 48.5723 L 156.921 48.5839 L 156.946 48.5988 L 156.969 48.6169 L 156.984 48.6322 L 156.998 48.649 L 157.011 48.6671 L 157.022 48.6863 L 157.037 48.722 L 157.046 48.7597 L 157.049 48.7985 L 157.047 48.8374 L 157.038 48.8757 L 157.024 48.9122 L 157.004 48.9461 L 156.979 48.9764 L 156.95 49.0025 L 156.918 49.0237 L 156.883 49.0396 L 156.846 49.0496 L 156.805 49.0537 L 156.764 49.0505 L 156.724 49.0402"/><path d = "M 156.724 49.0402 L 156.698 49.0287 L 156.674 49.014 L 156.652 48.9962 L 156.637 48.981 L 156.623 48.9645 L 156.611 48.9467 L 156.601 48.9277 L 156.587 48.8922 L 156.579 48.8547 L 156.576 48.8161 L 156.579 48.7774 L 156.588 48.739 L 156.603 48.7022 L 156.623 48.668 L 156.647 48.6372 L 156.675 48.611 L 156.707 48.5896 L 156.741 48.5735 L 156.777 48.5632 L 156.817 48.5591 L 156.856 48.5622 L 156.895 48.5723"/><path d = "M 156.748 49.0472 L 156.718 49.0295 L 156.692 49.0073 L 156.669 48.9811 L 156.65 48.9516 L 156.636 48.919 L 156.627 48.8845 L 156.622 48.8488 L 156.623 48.8125 L 156.631 48.7691 L 156.645 48.7274 L 156.666 48.6886 L 156.693 48.6539 L 156.725 48.6245 L 156.755 48.6049 L 156.787 48.59 L 156.821 48.5803 L 156.856 48.5759 L 156.887 48.5768 L 156.917 48.5819"/><path d = "M 155.939 48.2245 L 155.967 48.2386 L 155.991 48.2593 L 156.012 48.2857 L 156.027 48.3151 L 156.038 48.3478 L 156.044 48.3827 L 156.046 48.4191 L 156.042 48.4653 L 156.031 48.5108 L 156.013 48.5544 L 155.989 48.5945 L 155.96 48.63 L 155.933 48.6545 L 155.904 48.6743 L 155.873 48.6889 L 155.842 48.6977 L 155.816 48.7001 L 155.792 48.6984 L 155.769 48.6924"/><path d = "M 155.769 48.6924 L 155.754 48.6859 L 155.74 48.6776 L 155.728 48.6674 L 155.716 48.6555 L 155.697 48.6275 L 155.684 48.5945 L 155.676 48.5541 L 155.674 48.5108 L 155.679 48.4662 L 155.689 48.4217 L 155.705 48.3786 L 155.729 48.3329 L 155.744 48.311 L 155.76 48.2907 L 155.776 48.2736 L 155.793 48.2583 L 155.824 48.237 L 155.84 48.229 L 155.857 48.223 L 155.88 48.2182 L 155.902 48.2172 L 155.924 48.2201 L 155.939 48.2245"/><path d = "M 155.822 48.6999 L 155.811 48.6871 L 155.801 48.6728 L 155.792 48.6561 L 155.784 48.638 L 155.775 48.5995 L 155.772 48.5582 L 155.776 48.5097 L 155.787 48.461 L 155.804 48.4136 L 155.827 48.3693 L 155.855 48.3297 L 155.884 48.2998 L 155.916 48.2763 L 155.933 48.2671 L 155.951 48.26 L 155.968 48.2555 L 155.985 48.2531"/><path d = "M 155.339 48.006 L 155.346 48.01 L 155.353 48.0163 L 155.358 48.0248 L 155.363 48.0354 L 155.37 48.0616 L 155.373 48.0987 L 155.372 48.1407 L 155.365 48.1855 L 155.351 48.241 L 155.332 48.2958 L 155.307 48.3477 L 155.278 48.3944 L 155.252 48.4276 L 155.226 48.4536 L 155.213 48.4632 L 155.2 48.4702 L 155.183 48.4753 L 155.168 48.4738"/><path d = "M 155.168 48.4738 L 155.159 48.4684 L 155.152 48.4594 L 155.148 48.4493 L 155.145 48.4372 L 155.143 48.4172 L 155.143 48.3944 L 155.147 48.364 L 155.153 48.3312 L 155.171 48.2615 L 155.196 48.1909 L 155.226 48.1233 L 155.242 48.0923 L 155.259 48.0644 L 155.276 48.0406 L 155.294 48.0219 L 155.31 48.0102 L 155.325 48.0047 L 155.339 48.006"/><path d = "M 155.281 48.3904 L 155.297 48.3279 L 155.318 48.2632 L 155.343 48.2002 L 155.372 48.1424"/><path d = "M 163.354 41.3223 L 144.9 92.0231"/><path d = "M 144.242 93.8323 L 144.225 93.88"/><path d = "M 158.282 39.4762 L 139.828 90.177"/><path d = "M 139.17 91.9862 L 139.153 92.034"/><path d = "M 166.594 32.4194 L 165.935 32.1792"/><path d = "M 171.403 14.4737 L 171.139 14.3776"/><path d = "M 165.935 32.1792 L 161.522 30.5734"/><path d = "M 171.139 14.3776 L 169.374 13.7352"/><path d = "M 171.403 14.4737 L 166.594 32.4194"/><path d = "M 169.374 13.7352 L 161.522 30.5734"/><path d = "M 163.354 41.3223 L 159.025 39.7466"/><path d = "M 159.025 39.7466 L 158.282 39.4762"/><path d = "M 166.594 32.4194 L 162.265 30.8437"/><path d = "M 162.265 30.8437 L 161.522 30.5734"/><path d = "M 160.547 35.7029 L 160.501 35.6757 L 160.459 35.6427 L 160.422 35.6042 L 160.39 35.5607 L 160.364 35.5126 L 160.346 35.4685 L 160.332 35.4217 L 160.321 35.3727 L 160.316 35.3345 L 160.312 35.2954 L 160.31 35.2145 L 160.312 35.1674 L 160.316 35.1196 L 160.33 35.0223 L 160.351 34.9236 L 160.378 34.8247 L 160.411 34.7266"/><path d = "M 161.477 35.1147 L 161.447 35.1876 L 161.411 35.2575 L 161.369 35.3239 L 161.322 35.3864 L 161.27 35.4445 L 161.214 35.4979 L 161.154 35.5461 L 161.09 35.5901 L 161.023 35.6281 L 160.954 35.6598 L 160.884 35.6849 L 160.814 35.7032 L 160.748 35.7139 L 160.683 35.718 L 160.62 35.7152 L 160.559 35.7056 L 160.502 35.6889"/><path d = "M 160.502 35.6889 L 160.475 35.6781 L 160.449 35.6655 L 160.416 35.6462 L 160.386 35.624 L 160.358 35.599 L 160.338 35.5785 L 160.321 35.5565 L 160.289 35.5087 L 160.267 35.4644 L 160.249 35.417 L 160.236 35.3668 L 160.228 35.3283 L 160.223 35.2888 L 160.219 35.2464 L 160.218 35.2031 L 160.219 35.1555 L 160.221 35.1071 L 160.227 35.055 L 160.234 35.0023 L 160.255 34.899 L 160.283 34.7953 L 160.317 34.6924"/><path d = "M 160.411 34.7266 L 160.449 34.6299 L 160.492 34.5363 L 160.54 34.447 L 160.592 34.3633 L 160.62 34.324 L 160.649 34.2866 L 160.677 34.2526 L 160.707 34.2208 L 160.737 34.1921 L 160.768 34.1658 L 160.816 34.1303 L 160.867 34.1012 L 160.919 34.0789 L 160.972 34.0638 L 161.014 34.0573 L 161.057 34.0556 L 161.1 34.0588 L 161.143 34.0667"/><path d = "M 160.317 34.6924 L 160.357 34.5911 L 160.403 34.4932 L 160.454 34.4003 L 160.482 34.3552 L 160.511 34.312 L 160.541 34.2726 L 160.571 34.2353 L 160.623 34.1804 L 160.677 34.1322 L 160.706 34.111 L 160.735 34.0919 L 160.779 34.0672 L 160.825 34.0478 L 160.872 34.0338 L 160.919 34.0256 L 160.964 34.0233 L 161.009 34.0262 L 161.054 34.0345 L 161.099 34.048"/><path d = "M 161.477 35.1147 L 161.501 35.0396 L 161.518 34.9628 L 161.529 34.885 L 161.533 34.8069 L 161.53 34.7291 L 161.522 34.6522 L 161.507 34.5769 L 161.486 34.5019 L 161.459 34.4297 L 161.427 34.3611 L 161.389 34.2968 L 161.347 34.2375 L 161.303 34.187 L 161.256 34.1422 L 161.206 34.1036 L 161.154 34.0721 L 161.099 34.048"/><path d = "M 160.849 32.4365 L 160.885 32.3411 L 160.903 32.2961 L 160.929 32.2355 L 160.947 32.2025 L 160.955 32.1903 L 160.966 32.1793 L 160.972 32.1776 L 160.976 32.1792 L 160.98 32.1843"/><path d = "M 160.98 32.1843 L 160.982 32.1928 L 160.984 32.2041 L 160.984 32.2293 L 160.981 32.2596 L 160.97 32.3245 L 160.953 32.3946 L 160.929 32.4658"/><path d = "M 160.929 32.4658 L 160.912 32.5106 L 160.893 32.554 L 160.873 32.5944 L 160.852 32.6317 L 160.832 32.6636 L 160.813 32.6898 L 160.795 32.7079 L 160.787 32.7137"/><path d = "M 160.787 32.7137 L 160.781 32.7154 L 160.779 32.7151 L 160.776 32.7134 L 160.774 32.7095 L 160.772 32.6963 L 160.776 32.6651 L 160.782 32.6388 L 160.8 32.5787 L 160.815 32.5325 L 160.849 32.4365"/><path d = "M 161.574 32.7005 L 161.563 32.7394 L 161.561 32.7603 L 161.56 32.7809 L 161.562 32.7987 L 161.565 32.8158 L 161.574 32.841 L 161.587 32.8623 L 161.605 32.8784 L 161.62 32.886"/><path d = "M 161.574 32.7005 L 161.591 32.6639 L 161.602 32.6461 L 161.615 32.63 L 161.628 32.6172 L 161.641 32.6061 L 161.664 32.5926 L 161.688 32.585 L 161.712 32.5842 L 161.728 32.5877"/><path d = "M 161.415 32.6425 L 161.399 32.6936 L 161.39 32.7456 L 161.388 32.7973 L 161.39 32.8226 L 161.394 32.847 L 161.404 32.8821 L 161.419 32.9138 L 161.439 32.9407 L 161.463 32.9603 L 161.49 32.9739"/><path d = "M 161.685 32.4369 L 161.654 32.4298 L 161.623 32.4302 L 161.591 32.4379 L 161.562 32.4509 L 161.535 32.4688 L 161.509 32.4908 L 161.491 32.5096 L 161.475 32.5299 L 161.452 32.565 L 161.431 32.6028 L 161.415 32.6425"/><path d = "M 161.568 32.6983 L 161.558 32.7354 L 161.554 32.7726 L 161.558 32.8073 L 161.562 32.8232 L 161.568 32.8378 L 161.581 32.8588 L 161.598 32.8748 L 161.618 32.8853"/><path d = "M 161.618 32.8853 L 161.638 32.8899 L 161.661 32.889 L 161.683 32.8827 L 161.706 32.871 L 161.728 32.8534 L 161.749 32.8309 L 161.766 32.8044 L 161.779 32.7751"/><path d = "M 161.726 32.587 L 161.745 32.5968 L 161.762 32.6117 L 161.775 32.6311 L 161.785 32.6545 L 161.79 32.6825 L 161.792 32.7127 L 161.788 32.744 L 161.779 32.7751"/><path d = "M 161.726 32.587 L 161.706 32.5824 L 161.684 32.5834 L 161.661 32.5898 L 161.639 32.6017 L 161.618 32.6196 L 161.598 32.6423 L 161.581 32.6689 L 161.568 32.6983"/><path d = "M 161.685 32.4369 L 161.714 32.4515 L 161.74 32.4728 L 161.761 32.4997 L 161.779 32.5327 L 161.792 32.5693 L 161.799 32.6082 L 161.802 32.6485 L 161.799 32.6912 L 161.791 32.7336 L 161.779 32.7751"/><path d = "M 161.49 32.9739 L 161.521 32.9813 L 161.555 32.9814 L 161.588 32.9745 L 161.623 32.9607 L 161.656 32.9408 L 161.687 32.9158 L 161.715 32.8866 L 161.74 32.8522 L 161.762 32.8148 L 161.779 32.7751"/><path d = "M 163.15 33.2742 L 163.136 33.3036 L 163.116 33.3293 L 163.092 33.3503 L 163.065 33.3658 L 163.036 33.3753 L 163.006 33.379 L 162.977 33.377 L 162.948 33.3697"/><path d = "M 162.948 33.3697 L 162.922 33.3571 L 162.898 33.3396 L 162.878 33.3176 L 162.862 33.2917 L 162.851 33.2622 L 162.846 33.2307 L 162.848 33.1985 L 162.856 33.167"/><path d = "M 162.949 33.3698 L 162.92 33.3553 L 162.894 33.3349 L 162.873 33.3096 L 162.858 33.2803 L 162.849 33.2485 L 162.847 33.2155 L 162.85 33.1911 L 162.857 33.1675"/><path d = "M 162.856 33.167 L 162.87 33.1376 L 162.89 33.1119 L 162.914 33.0909 L 162.941 33.0753 L 162.97 33.0658 L 162.999 33.0621 L 163.029 33.064 L 163.057 33.0713"/><path d = "M 163.057 33.0713 L 163.084 33.0839 L 163.107 33.1014 L 163.128 33.1235 L 163.144 33.1494 L 163.155 33.1789 L 163.16 33.2104 L 163.158 33.2427 L 163.15 33.2742"/><path d = "M 162.857 33.1675 L 162.872 33.1376 L 162.892 33.1113 L 162.917 33.0898 L 162.946 33.0741 L 162.978 33.0648 L 163.011 33.0624 L 163.035 33.0652 L 163.058 33.0717"/><path d = "M 162.732 33.1219 L 162.749 33.0826 L 162.772 33.0462 L 162.8 33.0134 L 162.832 32.985 L 162.867 32.9626 L 162.905 32.9456 L 162.945 32.9346 L 162.986 32.9299 L 163.025 32.9317 L 163.064 32.9395 L 163.102 32.9533 L 163.136 32.9728 L 163.168 32.9976 L 163.196 33.0269 L 163.219 33.06 L 163.237 33.0959 L 163.25 33.1357 L 163.257 33.1768 L 163.258 33.2184 L 163.253 33.2597 L 163.248 33.2836 L 163.24 33.307"/><path d = "M 163.24 33.307 L 163.223 33.3457 L 163.2 33.3816 L 163.173 33.4138 L 163.141 33.4418 L 163.106 33.4643 L 163.068 33.4814 L 163.028 33.4926 L 162.986 33.4976 L 162.946 33.4962 L 162.907 33.4887 L 162.869 33.4752 L 162.834 33.456 L 162.799 33.4288 L 162.77 33.3962 L 162.746 33.3593 L 162.73 33.3216 L 162.719 33.282 L 162.714 33.2413 L 162.715 33.2003 L 162.721 33.1606 L 162.732 33.1219"/><path d = "M 164.61 33.8055 L 164.596 33.8349 L 164.577 33.861 L 164.555 33.8826 L 164.529 33.899 L 164.503 33.9092 L 164.476 33.9139 L 164.449 33.913 L 164.424 33.9066"/><path d = "M 164.424 33.9066 L 164.4 33.8949 L 164.378 33.8783 L 164.361 33.8572 L 164.347 33.8321 L 164.337 33.8031 L 164.334 33.772 L 164.336 33.7401 L 164.344 33.7087"/><path d = "M 164.606 33.804 L 164.593 33.832 L 164.576 33.8572 L 164.555 33.8787 L 164.53 33.8956 L 164.502 33.9075 L 164.472 33.9129 L 164.443 33.9114 L 164.422 33.9062"/><path d = "M 164.344 33.7087 L 164.358 33.6793 L 164.377 33.6533 L 164.4 33.6318 L 164.426 33.6156 L 164.452 33.6055 L 164.48 33.6009 L 164.507 33.6019 L 164.532 33.6082"/><path d = "M 164.532 33.6082 L 164.556 33.6199 L 164.577 33.6364 L 164.595 33.6575 L 164.608 33.6825 L 164.617 33.7113 L 164.621 33.7423 L 164.618 33.7742 L 164.61 33.8055"/><path d = "M 164.531 33.6078 L 164.557 33.6214 L 164.58 33.6407 L 164.597 33.6649 L 164.61 33.6933 L 164.616 33.7242 L 164.617 33.7562 L 164.613 33.7805 L 164.606 33.804"/><path d = "M 164.297 33.6915 L 164.313 33.6544 L 164.334 33.6196 L 164.359 33.5879 L 164.388 33.5599 L 164.421 33.5362 L 164.457 33.5171 L 164.495 33.5038 L 164.534 33.4967 L 164.574 33.4965 L 164.608 33.502 L 164.64 33.5126 L 164.67 33.5282 L 164.697 33.5484 L 164.72 33.5728 L 164.741 33.6035 L 164.758 33.6375 L 164.769 33.6738 L 164.775 33.7117 L 164.776 33.7363 L 164.776 33.7611 L 164.769 33.8105 L 164.756 33.8585"/><path d = "M 164.756 33.8585 L 164.735 33.9045 L 164.708 33.947 L 164.692 33.9668 L 164.674 33.9852 L 164.656 34.0014 L 164.637 34.0158 L 164.602 34.0356 L 164.566 34.0495 L 164.528 34.057 L 164.489 34.0575 L 164.45 34.0506 L 164.412 34.0362 L 164.378 34.015 L 164.35 33.9899 L 164.326 33.9604 L 164.307 33.9275 L 164.292 33.8919 L 164.282 33.8513 L 164.278 33.8096 L 164.279 33.7675 L 164.286 33.726 L 164.297 33.6915"/><path d = "M 165.6 34.1658 L 165.583 34.2059 L 165.562 34.2412 L 165.538 34.2688 L 165.527 34.279 L 165.515 34.2866 L 165.497 34.2926 L 165.481 34.2914"/><path d = "M 165.592 34.1631 L 165.574 34.2047 L 165.552 34.2419 L 165.54 34.2578 L 165.527 34.2711 L 165.515 34.2805 L 165.503 34.2872 L 165.492 34.2906 L 165.481 34.2907"/><path d = "M 165.589 33.9931 L 165.597 33.9973 L 165.603 34.0035 L 165.61 34.0126 L 165.614 34.024 L 165.619 34.0511 L 165.619 34.0864 L 165.612 34.1255 L 165.6 34.1658"/><path d = "M 165.589 33.9936 L 165.597 34.0009 L 165.604 34.011 L 165.609 34.0239 L 165.612 34.0389 L 165.613 34.0573 L 165.612 34.0773 L 165.605 34.1198 L 165.592 34.1631"/><path d = "M 165.512 34.1337 L 165.536 34.0771 L 165.566 34.0245 L 165.584 34.0001 L 165.603 33.9775 L 165.622 33.9578 L 165.642 33.9407 L 165.658 33.9294"/><path d = "M 165.658 33.9294 L 165.684 33.9157 L 165.709 33.909 L 165.722 33.9087 L 165.733 33.9104 L 165.743 33.9141 L 165.752 33.9197 L 165.76 33.9271 L 165.767 33.9362 L 165.778 33.959 L 165.784 33.9848 L 165.786 34.0138 L 165.786 34.0422 L 165.783 34.0718 L 165.777 34.1082 L 165.769 34.145 L 165.758 34.182 L 165.746 34.2188"/><path d = "M 165.746 34.2188 L 165.724 34.2722 L 165.699 34.3228 L 165.671 34.369 L 165.642 34.4055 L 165.627 34.4208 L 165.611 34.4336 L 165.595 34.4434 L 165.579 34.4497 L 165.56 34.4523 L 165.542 34.4487 L 165.526 34.4392 L 165.516 34.4295 L 165.507 34.4175 L 165.499 34.4017 L 165.492 34.3839"/><path d = "M 165.492 34.3839 L 165.484 34.3505 L 165.481 34.3139 L 165.482 34.2754 L 165.484 34.2458 L 165.489 34.2159 L 165.499 34.1745 L 165.512 34.1337"/><path d = "M 158.282 39.4762 L 161.522 30.5734"/><path d = "M 163.354 41.3223 L 166.594 32.4194"/><path d = "M 161.726 32.8555 L 161.703 32.864 L 161.691 32.8653 L 161.68 32.8645 L 161.669 32.8618"/><path d = "M 161.747 32.6494 L 161.756 32.6541 L 161.765 32.6605 L 161.78 32.6782 L 161.787 32.6934 L 161.792 32.7104"/><path d = "M 165.53 34.1469 L 165.521 34.1683 L 165.511 34.1885 L 165.5 34.2047 L 165.489 34.2185"/><path d = "M 165.544 34.0618 L 165.545 34.0813 L 165.542 34.1024 L 165.537 34.1246 L 165.53 34.1469"/><path d = "M 164.545 33.7883 L 164.535 33.8096 L 164.521 33.8286 L 164.504 33.8444 L 164.485 33.8561 L 164.465 33.8634 L 164.443 33.8658 L 164.428 33.8644 L 164.413 33.8604"/><path d = "M 164.413 33.8604 L 164.394 33.8509 L 164.377 33.837 L 164.364 33.8197 L 164.355 33.7992 L 164.349 33.7769 L 164.349 33.7538 L 164.351 33.7363 L 164.356 33.7194"/><path d = "M 164.356 33.7194 L 164.366 33.698 L 164.38 33.6791 L 164.397 33.6635 L 164.417 33.6519 L 164.438 33.6448 L 164.46 33.6425 L 164.475 33.644 L 164.49 33.648"/><path d = "M 164.49 33.648 L 164.509 33.6575 L 164.525 33.6712 L 164.538 33.6885 L 164.547 33.7088 L 164.552 33.731 L 164.552 33.7539 L 164.55 33.7713 L 164.545 33.7883"/><path d = "M 162.97044 33.335495 A 0.11270674 0.11270674 0 0 0 163.11435 33.267502"/><path d = "M 162.97 33.3354 L 162.949 33.3251 L 162.931 33.3106 L 162.916 33.2926 L 162.905 33.2717 L 162.899 33.249 L 162.898 33.2254 L 162.9 33.208 L 162.905 33.1912"/><path d = "M 162.905 33.1912 L 162.915 33.1699 L 162.929 33.1512 L 162.947 33.1359 L 162.968 33.1247 L 162.991 33.1181 L 163.014 33.1164 L 163.031 33.1184 L 163.048 33.123"/><path d = "M 163.11435 33.267517 A 0.11270674 0.11270674 0 0 0 163.04781 33.122925"/><path d = "M 161.634 32.7289 L 161.647 32.7025 L 161.663 32.6794 L 161.683 32.6612 L 161.7 32.6517 L 161.718 32.6467 L 161.735 32.6465 L 161.747 32.6494"/><path d = "M 161.669 32.8618 L 161.654 32.8537 L 161.642 32.8415 L 161.633 32.8257 L 161.626 32.8011 L 161.625 32.774 L 161.629 32.7462 L 161.634 32.7289"/><path d = "M 164.452 33.6428 L 164.465 33.6585 L 164.475 33.677 L 164.48 33.6973 L 164.482 33.7191 L 164.48 33.7411 L 164.475 33.7626"/><path d = "M 164.475 33.7626 L 164.463 33.7866 L 164.447 33.8075 L 164.426 33.824 L 164.404 33.8349 L 164.38 33.8399"/><path d = "M 162.929 33.2 L 162.938 33.1802 L 162.951 33.1626 L 162.967 33.1478 L 162.986 33.1364 L 163.006 33.1288 L 163.028 33.1254 L 163.044 33.1256 L 163.06 33.1281"/><path d = "M 162.983 33.3391 L 162.965 33.3275 L 162.949 33.3126 L 162.936 33.2948 L 162.928 33.2749 L 162.923 33.2536 L 162.922 33.2318 L 162.924 33.2156 L 162.929 33.2"/><path d = "M 161.737 32.845 L 161.735 32.8202 L 161.737 32.7944 L 161.744 32.7689"/><path d = "M 161.744 32.7689 L 161.756 32.7437 L 161.771 32.7213 L 161.79 32.7034"/><path d = "M 171.688 9.04825 L 172.3 9.2709"/><path d = "M 172.3 9.2709 L 172.643 9.39574"/><path d = "M 171.688 9.04825 L 169.398 13.7439"/><path d = "M 172.643 9.39574 L 171.379 14.465"/></g><g fill = "none" stroke = "rgb(0, 0, 0)" stroke-width = "0.13" stroke-linecap = "butt" stroke-linejoin = "miter"><path d = "M 173.157 6.03772 L 173.41 6.12991"/><path d = "M 173.41 6.12991 L 173.453 6.14572"/></g><g fill = "none" stroke = "rgb(0, 0, 0)" stroke-width = "0.35" stroke-linecap = "butt" stroke-linejoin = "miter"><path d = "M 171.688 9.04825 L 172.503 9.34485"/><path d = "M 172.503 9.34485 L 172.643 9.39574"/><path d = "M 173.35359 5.9581604 A 0.15874241 0.15874241 0 0 0 173.15663 6.037735"/><path d = "M 173.45332 6.1457367 A 0.15874241 0.15874241 0 0 0 173.35359 5.9581604"/><path d = "M 173.157 6.03772 L 171.688 9.04825"/><path d = "M 173.453 6.14572 L 172.643 9.39574"/></g><g fill = "none" stroke = "rgb(0, 0, 0)" stroke-width = "0.13" stroke-linecap = "butt" stroke-linejoin = "miter"><path d = "M 139.27 93.0447 L 139.396 92.888 L 139.457 92.8145 L 139.52 92.7408 L 139.547 92.7124 L 139.565 92.6974 L 139.572 92.6933 L 139.578 92.6918 L 139.58 92.6921"/><path d = "M 138.759 93.6838 L 138.828 93.5193 L 138.9 93.3558 L 138.959 93.2267 L 139.02 93.0986 L 139.077 92.9865 L 139.135 92.8757 L 139.184 92.7886 L 139.234 92.7028 L 139.275 92.6374 L 139.317 92.5733 L 139.373 92.4947 L 139.433 92.4195 L 139.464 92.3837 L 139.497 92.3492 L 139.55 92.2997 L 139.578 92.2771 L 139.607 92.2563 L 139.637 92.2376 L 139.668 92.2217"/></g><g fill = "none" stroke = "rgb(0, 0, 0)" stroke-width = "0.35" stroke-linecap = "butt" stroke-linejoin = "miter"><path d = "M 139.822 92.2776 L 139.668 92.2217"/><path d = "M 139.993 92.3399 L 139.822 92.2776"/></g><g fill = "none" stroke = "rgb(0, 0, 0)" stroke-width = "0.13" stroke-linecap = "butt" stroke-linejoin = "miter"><path d = "M 139.993 92.3399 L 140.018 92.3874 L 140.038 92.4375 L 140.057 92.4952 L 140.072 92.5543 L 140.081 92.6019 L 140.089 92.65 L 140.097 92.7115 L 140.102 92.7733 L 140.107 92.884 L 140.106 92.9932 L 140.101 93.1022 L 140.095 93.1827 L 140.088 93.263 L 140.067 93.423 L 140.041 93.5818 L 140.019 93.6986 L 139.994 93.8147 L 139.967 93.9326 L 139.937 94.05 L 139.873 94.2804 L 139.826 94.4372 L 139.746 94.6783"/><path d = "M 138.413 94.2283 L 138.784 94.3562 L 139.182 94.4906 L 139.746 94.6783"/><path d = "M 139.58 92.6921 L 139.581 92.6931 L 139.582 92.6943 L 139.582 92.6975 L 139.582 92.7046 L 139.573 92.7256 L 139.557 92.7555 L 139.543 92.7781 L 139.509 92.8269 L 139.456 92.9009 L 139.338 93.0568 L 139.255 93.164 L 139.085 93.3808 L 138.908 93.605 L 138.413 94.2283"/><path d = "M 135.613 102.591 L 136.029 102.733 L 136.475 102.882 L 136.879 103.016"/><path d = "M 138.413 94.2283 L 137.011 98.4091 L 135.613 102.591"/><path d = "M 139.746 94.6783 L 138.312 98.847 L 136.879 103.016"/><path d = "M 135.493 102.773 L 135.846 102.909 L 136.227 103.057 L 136.784 103.278"/><path d = "M 135.4933 102.77265 A 6.016746 6.016746 0 0 0 135.61314 102.59095"/><path d = "M 136.78416 103.27786 A 7.6395845 7.6395845 0 0 0 136.8793 103.01647"/></g><g fill = "none" stroke = "rgb(0, 0, 0)" stroke-width = "0.35" stroke-linecap = "butt" stroke-linejoin = "miter"><path d = "M 143.709 93.6923 L 143.384 93.5741"/></g><g fill = "none" stroke = "rgb(0, 0, 0)" stroke-width = "0.13" stroke-linecap = "butt" stroke-linejoin = "miter"><path d = "M 143.709 93.6923 L 143.722 93.7226 L 143.732 93.7542 L 143.741 93.7867 L 143.748 93.8199 L 143.757 93.8877 L 143.761 93.9385 L 143.762 93.9896 L 143.759 94.0926 L 143.751 94.1961 L 143.737 94.3045 L 143.72 94.4127 L 143.7 94.5201 L 143.677 94.6271 L 143.649 94.7515 L 143.617 94.8755 L 143.554 95.1052 L 143.486 95.3334 L 143.413 95.5603 L 143.299 95.8963 L 143.276 95.963"/><path d = "M 143.148 95.9334 L 143.149 95.9331 L 143.149 95.9329 L 143.15 95.9326 L 143.151 95.9324 L 143.169 95.9347 L 143.211 95.9447 L 143.276 95.963"/><path d = "M 143.381 96.0366 L 143.404 95.1729 L 143.416 94.8021 L 143.422 94.6195 L 143.433 94.3912 L 143.44 94.2831 L 143.448 94.1978 L 143.453 94.1612 L 143.461 94.1288 L 143.465 94.1177 L 143.47 94.1111 L 143.472 94.1097 L 143.474 94.1096 L 143.475 94.1102 L 143.478 94.1132 L 143.482 94.1217 L 143.487 94.1503 L 143.489 94.1895 L 143.49 94.2844 L 143.489 94.3788 L 143.485 94.5787"/><path d = "M 143.381 96.0366 L 143.014 95.8956 L 142.623 95.7432 L 142.07 95.5242"/><path d = "M 142.07 95.5242 L 142.158 95.3038 L 142.252 95.0848 L 142.301 94.9762 L 142.353 94.8683 L 142.424 94.7253 L 142.499 94.584 L 142.578 94.4447 L 142.662 94.3072 L 142.751 94.173 L 142.8 94.1032 L 142.852 94.0346 L 142.899 93.9753 L 142.948 93.9173 L 143.017 93.8412 L 143.09 93.7688 L 143.129 93.7345 L 143.168 93.7016 L 143.236 93.6514 L 143.272 93.6286 L 143.308 93.6079 L 143.346 93.5895 L 143.384 93.5741"/><path d = "M 140.15 104.242 L 139.74 104.084 L 139.303 103.912 L 138.907 103.754"/><path d = "M 140.1501 104.24227 A 6.0183463 6.0183463 0 0 0 140.12511 104.45848"/><path d = "M 140.125 104.458 L 139.767 104.336 L 139.38 104.205 L 138.811 104.016"/><path d = "M 138.90662 103.75436 A 7.641006 7.641006 0 0 0 138.81149 104.01574"/><path d = "M 140.14941 104.24155 A 6142.6646 6142.6646 0 0 0 143.37939 96.037933"/><path d = "M 138.9043 103.75668 A 8917.3047 8917.3047 0 0 0 142.06836 95.525238"/></g><g fill = "none" stroke = "rgb(0, 0, 0)" stroke-width = "0.35" stroke-linecap = "butt" stroke-linejoin = "miter"><path d = "M 143.709 93.6923 L 144.326 93.9169"/><path d = "M 139.993 92.3399 L 143.384 93.5741"/><path d = "M 139.051 91.997 L 139.668 92.2217"/><path d = "M 143.19264 107.07129 A 0.068003409 0.068003409 0 0 0 143.19638 107.05094"/><path d = "M 143.196 107.051 L 143.195 107.039 L 143.191 107.028 L 143.185 107.019 L 143.177 107.014 L 143.167 107.012 L 143.158 107.014 L 143.148 107.019 L 143.139 107.026 L 143.132 107.036 L 143.126 107.047"/></g><g fill = "none" stroke = "rgb(0, 0, 0)" stroke-width = "0.13" stroke-linecap = "butt" stroke-linejoin = "miter"><path d = "M 143.126 107.047 L 143.381 96.0366"/></g><g fill = "none" stroke = "rgb(0, 0, 0)" stroke-width = "0.35" stroke-linecap = "butt" stroke-linejoin = "miter"><path d = "M 143.193 107.071 L 141.994 110.564"/><path d = "M 141.94662 110.69452 A 3.7574315 3.7574315 0 0 0 141.99419 110.56383"/></g><g fill = "none" stroke = "rgb(0, 0, 0)" stroke-width = "0.13" stroke-linecap = "butt" stroke-linejoin = "miter"><path d = "M 141.752 110.624 L 140.125 104.458"/></g><g fill = "none" stroke = "rgb(0, 0, 0)" stroke-width = "0.35" stroke-linecap = "butt" stroke-linejoin = "miter"><path d = "M 141.7993 110.4929 A 3.7574315 3.7574315 0 0 0 141.75172 110.62359"/></g><g fill = "none" stroke = "rgb(0, 0, 0)" stroke-width = "0.13" stroke-linecap = "butt" stroke-linejoin = "miter"><path d = "M 141.799 110.493 L 140.15 104.242"/></g><g fill = "none" stroke = "rgb(0, 0, 0)" stroke-width = "0.35" stroke-linecap = "butt" stroke-linejoin = "miter"><path d = "M 143.126 107.047 L 141.799 110.493"/><path d = "M 131.464 102.802 L 130.137 106.248"/><path d = "M 130.13705 106.24818 A 3.7574315 3.7574315 0 0 0 130.08948 106.37888"/></g><g fill = "none" stroke = "rgb(0, 0, 0)" stroke-width = "0.13" stroke-linecap = "butt" stroke-linejoin = "miter"><path d = "M 131.53 102.827 L 138.413 94.2283"/></g><g fill = "none" stroke = "rgb(0, 0, 0)" stroke-width = "0.35" stroke-linecap = "butt" stroke-linejoin = "miter"><path d = "M 131.53 102.827 L 131.534 102.807 L 131.532 102.789 L 131.527 102.779 L 131.519 102.772 L 131.511 102.768 L 131.501 102.768 L 131.491 102.771 L 131.481 102.777 L 131.474 102.784"/><path d = "M 131.47418 102.78439 A 0.068003409 0.068003409 0 0 0 131.46396 102.80238"/></g><g fill = "none" stroke = "rgb(0, 0, 0)" stroke-width = "0.13" stroke-linecap = "butt" stroke-linejoin = "miter"><path d = "M 130.332 106.319 L 135.613 102.591"/></g><g fill = "none" stroke = "rgb(0, 0, 0)" stroke-width = "0.35" stroke-linecap = "butt" stroke-linejoin = "miter"><path d = "M 131.53 102.827 L 130.332 106.319"/><path d = "M 130.28438 106.44981 A 3.7574315 3.7574315 0 0 0 130.33194 106.31911"/></g><g fill = "none" stroke = "rgb(0, 0, 0)" stroke-width = "0.13" stroke-linecap = "butt" stroke-linejoin = "miter"><path d = "M 130.284 106.45 L 135.493 102.773"/></g><g fill = "none" stroke = "rgb(0, 0, 0)" stroke-width = "0.35" stroke-linecap = "butt" stroke-linejoin = "miter"><path d = "M 130.13705 106.24818 A 3.7574315 3.7574315 0 0 0 130.08948 106.37888"/><path d = "M 143.193 107.071 L 141.994 110.564"/><path d = "M 141.94662 110.69452 A 3.7574315 3.7574315 0 0 0 141.99419 110.56383"/><path d = "M 143.19264 107.07129 A 0.068003409 0.068003409 0 0 0 143.19638 107.05094"/><path d = "M 140.621 114.138 L 141.947 110.695"/><path d = "M 128.958 109.894 L 132.226 111.083"/><path d = "M 128.958 109.894 L 130.284 106.45"/></g><g fill = "none" stroke = "rgb(0, 0, 0)" stroke-width = "0.13" stroke-linecap = "butt" stroke-linejoin = "miter"><path d = "M 135.493 102.773 L 133.859 106.927 L 132.226 111.083"/></g><g fill = "none" stroke = "rgb(0, 0, 0)" stroke-width = "0.35" stroke-linecap = "butt" stroke-linejoin = "miter"><path d = "M 128.892 109.869 L 130.089 106.379"/><path d = "M 128.958 109.894 L 128.892 109.869"/><path d = "M 140.554 114.114 L 137.286 112.925"/></g><g fill = "none" stroke = "rgb(0, 0, 0)" stroke-width = "0.13" stroke-linecap = "butt" stroke-linejoin = "miter"><path d = "M 137.28516 112.92465 A 6895.582 6895.582 0 0 0 140.12354 104.46103"/></g><g fill = "none" stroke = "rgb(0, 0, 0)" stroke-width = "0.35" stroke-linecap = "butt" stroke-linejoin = "miter"><path d = "M 140.554 114.114 L 141.752 110.624"/><path d = "M 140.621 114.138 L 141.947 110.695"/><path d = "M 140.621 114.138 L 140.554 114.114"/><path d = "M 137.286 112.925 L 135.916 112.426"/></g><g fill = "none" stroke = "rgb(0, 0, 0)" stroke-width = "0.13" stroke-linecap = "butt" stroke-linejoin = "miter"><path d = "M 135.916 112.426 L 137.365 108.221 L 138.811 104.016"/></g><g fill = "none" stroke = "rgb(0, 0, 0)" stroke-width = "0.35" stroke-linecap = "butt" stroke-linejoin = "miter"><path d = "M 132.226 111.083 L 133.596 111.581"/></g><g fill = "none" stroke = "rgb(0, 0, 0)" stroke-width = "0.13" stroke-linecap = "butt" stroke-linejoin = "miter"><path d = "M 136.784 103.278 L 135.189 107.429 L 133.596 111.581"/></g><g fill = "none" stroke = "rgb(0, 0, 0)" stroke-width = "0.35" stroke-linecap = "butt" stroke-linejoin = "miter"><path d = "M 133.596 111.581 L 135.916 112.426"/><path d = "M 143.196 107.051 L 143.485 94.5787"/><path d = "M 131.474 102.784 L 139.27 93.0447"/><path d = "M 143.196 107.051 L 143.444 96.3401"/><path d = "M 144.326 93.9169 L 143.444 96.3401"/><path d = "M 139.051 91.997 L 138.169 94.4202"/></g></svg>
