solid CATIA STL
  facet normal  -0.000000e+00 -1.000000e+00  -0.000000e+00
    outer loop
      vertex  1.000000e+00  0.000000e+00  1.625000e+00
      vertex  1.000000e+00  0.000000e+00  2.125000e+00
      vertex  0.000000e+00  0.000000e+00  2.125000e+00
    endloop
  endfacet
  facet normal  0.000000e+00 -1.000000e+00  0.000000e+00
    outer loop
      vertex -1.000000e+00  0.000000e+00 -1.625000e+00
      vertex -1.000000e+00  0.000000e+00 -2.125000e+00
      vertex  0.000000e+00  0.000000e+00 -2.125000e+00
    endloop
  endfacet
  facet normal  0.000000e+00 -1.000000e+00  0.000000e+00
    outer loop
      vertex -1.000000e+00  0.000000e+00  2.125000e+00
      vertex -1.000000e+00  0.000000e+00  1.625000e+00
      vertex -5.000000e-01  0.000000e+00  1.625000e+00
    endloop
  endfacet
  facet normal  0.000000e+00 -1.000000e+00  0.000000e+00
    outer loop
      vertex -1.000000e+00  0.000000e+00  2.125000e+00
      vertex -5.000000e-01  0.000000e+00  1.625000e+00
      vertex  5.000000e-01  0.000000e+00  1.625000e+00
    endloop
  endfacet
  facet normal  0.000000e+00 -1.000000e+00  0.000000e+00
    outer loop
      vertex -1.000000e+00  0.000000e+00  2.125000e+00
      vertex  5.000000e-01  0.000000e+00  1.625000e+00
      vertex  1.000000e+00  0.000000e+00  1.625000e+00
    endloop
  endfacet
  facet normal  0.000000e+00 -1.000000e+00  0.000000e+00
    outer loop
      vertex -1.000000e+00  0.000000e+00  2.125000e+00
      vertex  1.000000e+00  0.000000e+00  1.625000e+00
      vertex  0.000000e+00  0.000000e+00  2.125000e+00
    endloop
  endfacet
  facet normal  -0.000000e+00 -1.000000e+00  -0.000000e+00
    outer loop
      vertex  1.000000e+00  0.000000e+00 -2.125000e+00
      vertex  1.000000e+00  0.000000e+00 -1.625000e+00
      vertex  5.000000e-01  0.000000e+00 -1.625000e+00
    endloop
  endfacet
  facet normal  -0.000000e+00 -1.000000e+00  -0.000000e+00
    outer loop
      vertex  1.000000e+00  0.000000e+00 -2.125000e+00
      vertex  5.000000e-01  0.000000e+00 -1.625000e+00
      vertex -5.000000e-01  0.000000e+00 -1.625000e+00
    endloop
  endfacet
  facet normal  -0.000000e+00 -1.000000e+00  -0.000000e+00
    outer loop
      vertex  1.000000e+00  0.000000e+00 -2.125000e+00
      vertex -5.000000e-01  0.000000e+00 -1.625000e+00
      vertex -1.000000e+00  0.000000e+00 -1.625000e+00
    endloop
  endfacet
  facet normal  0.000000e+00 -1.000000e+00  0.000000e+00
    outer loop
      vertex  1.000000e+00  0.000000e+00 -2.125000e+00
      vertex -1.000000e+00  0.000000e+00 -1.625000e+00
      vertex  0.000000e+00  0.000000e+00 -2.125000e+00
    endloop
  endfacet
  facet normal  0.000000e+00 -1.000000e+00  -0.000000e+00
    outer loop
      vertex  5.000000e-01  0.000000e+00 -1.625000e+00
      vertex  5.000000e-01  0.000000e+00  1.625000e+00
      vertex -5.000000e-01  0.000000e+00 -1.625000e+00
    endloop
  endfacet
  facet normal  0.000000e+00 -1.000000e+00  0.000000e+00
    outer loop
      vertex -5.000000e-01  0.000000e+00 -1.625000e+00
      vertex  5.000000e-01  0.000000e+00  1.625000e+00
      vertex -5.000000e-01  0.000000e+00  1.625000e+00
    endloop
  endfacet
  facet normal  0.000000e+00  1.000000e+00  0.000000e+00
    outer loop
      vertex -1.000000e+00  7.850000e-01  1.750000e+00
      vertex  1.000000e+00  7.850000e-01  1.750000e+00
      vertex  1.000000e+00  7.850000e-01  1.625000e+00
    endloop
  endfacet
  facet normal  0.000000e+00  1.000000e+00  0.000000e+00
    outer loop
      vertex -1.000000e+00  7.850000e-01  1.750000e+00
      vertex  1.000000e+00  7.850000e-01  1.625000e+00
      vertex  5.000000e-01  7.850000e-01  1.625000e+00
    endloop
  endfacet
  facet normal  0.000000e+00  1.000000e+00  0.000000e+00
    outer loop
      vertex -1.000000e+00  7.850000e-01  1.750000e+00
      vertex  5.000000e-01  7.850000e-01  1.625000e+00
      vertex -5.000000e-01  7.850000e-01  1.625000e+00
    endloop
  endfacet
  facet normal  0.000000e+00  1.000000e+00  0.000000e+00
    outer loop
      vertex -1.000000e+00  7.850000e-01  1.750000e+00
      vertex -5.000000e-01  7.850000e-01  1.625000e+00
      vertex -1.000000e+00  7.850000e-01  1.625000e+00
    endloop
  endfacet
  facet normal  0.000000e+00  1.000000e+00  0.000000e+00
    outer loop
      vertex  1.000000e+00  7.850000e-01 -1.750000e+00
      vertex -1.000000e+00  7.850000e-01 -1.750000e+00
      vertex -1.000000e+00  7.850000e-01 -1.625000e+00
    endloop
  endfacet
  facet normal  -0.000000e+00  1.000000e+00  0.000000e+00
    outer loop
      vertex  1.000000e+00  7.850000e-01 -1.750000e+00
      vertex -1.000000e+00  7.850000e-01 -1.625000e+00
      vertex -5.000000e-01  7.850000e-01 -1.625000e+00
    endloop
  endfacet
  facet normal  -0.000000e+00  1.000000e+00  0.000000e+00
    outer loop
      vertex  1.000000e+00  7.850000e-01 -1.750000e+00
      vertex -5.000000e-01  7.850000e-01 -1.625000e+00
      vertex  5.000000e-01  7.850000e-01 -1.625000e+00
    endloop
  endfacet
  facet normal  -0.000000e+00  1.000000e+00  0.000000e+00
    outer loop
      vertex  1.000000e+00  7.850000e-01 -1.750000e+00
      vertex  5.000000e-01  7.850000e-01 -1.625000e+00
      vertex  1.000000e+00  7.850000e-01 -1.625000e+00
    endloop
  endfacet
  facet normal  0.000000e+00  1.000000e+00  0.000000e+00
    outer loop
      vertex  5.000000e-01  7.850000e-01 -1.625000e+00
      vertex -5.000000e-01  7.850000e-01 -1.625000e+00
      vertex  5.000000e-01  7.850000e-01  1.625000e+00
    endloop
  endfacet
  facet normal  0.000000e+00  1.000000e+00  0.000000e+00
    outer loop
      vertex  5.000000e-01  7.850000e-01  1.625000e+00
      vertex -5.000000e-01  7.850000e-01 -1.625000e+00
      vertex -5.000000e-01  7.850000e-01  1.625000e+00
    endloop
  endfacet
  facet normal  1.000000e+00  0.000000e+00  0.000000e+00
    outer loop
      vertex  5.000000e-01  7.850000e-01 -1.625000e+00
      vertex  5.000000e-01  7.850000e-01  1.625000e+00
      vertex  5.000000e-01  0.000000e+00 -1.625000e+00
    endloop
  endfacet
  facet normal  1.000000e+00  0.000000e+00  0.000000e+00
    outer loop
      vertex  5.000000e-01  0.000000e+00 -1.625000e+00
      vertex  5.000000e-01  7.850000e-01  1.625000e+00
      vertex  5.000000e-01  0.000000e+00  1.625000e+00
    endloop
  endfacet
  facet normal -1.000000e+00  0.000000e+00  0.000000e+00
    outer loop
      vertex -5.000000e-01  7.850000e-01 -1.625000e+00
      vertex -5.000000e-01  0.000000e+00 -1.625000e+00
      vertex -5.000000e-01  7.850000e-01  1.625000e+00
    endloop
  endfacet
  facet normal -1.000000e+00  -0.000000e+00  0.000000e+00
    outer loop
      vertex -5.000000e-01  7.850000e-01  1.625000e+00
      vertex -5.000000e-01  0.000000e+00 -1.625000e+00
      vertex -5.000000e-01  0.000000e+00  1.625000e+00
    endloop
  endfacet
  facet normal  0.000000e+00  1.000000e+00  0.000000e+00
    outer loop
      vertex -1.225000e-01  4.100000e-01 -2.000000e+00
      vertex  1.225000e-01  4.100000e-01 -2.000000e+00
      vertex  1.000000e+00  4.100000e-01 -2.005000e+00
    endloop
  endfacet
  facet normal  0.000000e+00  1.000000e+00  0.000000e+00
    outer loop
      vertex -1.225000e-01  4.100000e-01 -2.000000e+00
      vertex  1.000000e+00  4.100000e-01 -2.005000e+00
      vertex -1.000000e+00  4.100000e-01 -2.005000e+00
    endloop
  endfacet
  facet normal  0.000000e+00  1.000000e+00  0.000000e+00
    outer loop
      vertex -1.225000e-01  4.100000e-01 -2.000000e+00
      vertex -1.000000e+00  4.100000e-01 -2.005000e+00
      vertex -1.000000e+00  4.100000e-01 -1.750000e+00
    endloop
  endfacet
  facet normal  -0.000000e+00  1.000000e+00  0.000000e+00
    outer loop
      vertex -1.225000e-01  4.100000e-01 -2.000000e+00
      vertex -1.000000e+00  4.100000e-01 -1.750000e+00
      vertex -1.225000e-01  4.100000e-01 -1.750000e+00
    endloop
  endfacet
  facet normal  -0.000000e+00  1.000000e+00  0.000000e+00
    outer loop
      vertex  1.000000e+00  4.100000e-01 -2.005000e+00
      vertex  1.225000e-01  4.100000e-01 -2.000000e+00
      vertex  1.000000e+00  4.100000e-01 -1.750000e+00
    endloop
  endfacet
  facet normal  0.000000e+00  1.000000e+00  0.000000e+00
    outer loop
      vertex  1.000000e+00  4.100000e-01 -1.750000e+00
      vertex  1.225000e-01  4.100000e-01 -2.000000e+00
      vertex  1.225000e-01  4.100000e-01 -1.750000e+00
    endloop
  endfacet
  facet normal  0.000000e+00  0.000000e+00  1.000000e+00
    outer loop
      vertex -1.000000e+00  4.100000e-01 -2.005000e+00
      vertex  1.000000e+00  4.100000e-01 -2.005000e+00
      vertex -1.000000e+00  7.850000e-01 -2.005000e+00
    endloop
  endfacet
  facet normal  -0.000000e+00  0.000000e+00  1.000000e+00
    outer loop
      vertex -1.000000e+00  7.850000e-01 -2.005000e+00
      vertex  1.000000e+00  4.100000e-01 -2.005000e+00
      vertex  1.000000e+00  7.850000e-01 -2.005000e+00
    endloop
  endfacet
  facet normal  0.000000e+00  1.000000e+00  -0.000000e+00
    outer loop
      vertex  1.000000e+00  7.850000e-01 -2.005000e+00
      vertex  1.000000e+00  7.850000e-01 -2.125000e+00
      vertex -1.000000e+00  7.850000e-01 -2.005000e+00
    endloop
  endfacet
  facet normal  0.000000e+00  1.000000e+00  0.000000e+00
    outer loop
      vertex -1.000000e+00  7.850000e-01 -2.005000e+00
      vertex  1.000000e+00  7.850000e-01 -2.125000e+00
      vertex  0.000000e+00  7.850000e-01 -2.125000e+00
    endloop
  endfacet
  facet normal  0.000000e+00  1.000000e+00  0.000000e+00
    outer loop
      vertex -1.000000e+00  7.850000e-01 -2.005000e+00
      vertex  0.000000e+00  7.850000e-01 -2.125000e+00
      vertex -1.000000e+00  7.850000e-01 -2.125000e+00
    endloop
  endfacet
  facet normal  0.000000e+00  0.000000e+00 -1.000000e+00
    outer loop
      vertex -1.000000e+00  7.850000e-01 -1.750000e+00
      vertex -1.225000e-01  4.100000e-01 -1.750000e+00
      vertex -1.000000e+00  4.100000e-01 -1.750000e+00
    endloop
  endfacet
  facet normal  0.000000e+00  0.000000e+00 -1.000000e+00
    outer loop
      vertex -1.225000e-01  4.100000e-01 -1.750000e+00
      vertex -1.000000e+00  7.850000e-01 -1.750000e+00
      vertex -1.225000e-01  6.550000e-01 -1.750000e+00
    endloop
  endfacet
  facet normal  0.000000e+00  0.000000e+00 -9.999999e-01
    outer loop
      vertex -1.225000e-01  6.550000e-01 -1.750000e+00
      vertex -1.000000e+00  7.850000e-01 -1.750000e+00
      vertex  1.000000e+00  7.850000e-01 -1.750000e+00
    endloop
  endfacet
  facet normal  0.000000e+00  0.000000e+00 -1.000000e+00
    outer loop
      vertex -1.225000e-01  6.550000e-01 -1.750000e+00
      vertex  1.000000e+00  7.850000e-01 -1.750000e+00
      vertex  1.225000e-01  6.550000e-01 -1.750000e+00
    endloop
  endfacet
  facet normal  0.000000e+00  0.000000e+00 -1.000000e+00
    outer loop
      vertex  1.225000e-01  6.550000e-01 -1.750000e+00
      vertex  1.000000e+00  7.850000e-01 -1.750000e+00
      vertex  1.000000e+00  4.100000e-01 -1.750000e+00
    endloop
  endfacet
  facet normal  0.000000e+00  0.000000e+00 -1.000000e+00
    outer loop
      vertex  1.225000e-01  6.550000e-01 -1.750000e+00
      vertex  1.000000e+00  4.100000e-01 -1.750000e+00
      vertex  1.225000e-01  4.100000e-01 -1.750000e+00
    endloop
  endfacet
  facet normal  -0.000000e+00  0.000000e+00  9.999999e-01
    outer loop
      vertex  1.000000e+00  7.850000e-01 -1.625000e+00
      vertex  5.000000e-01  7.850000e-01 -1.625000e+00
      vertex  1.000000e+00  0.000000e+00 -1.625000e+00
    endloop
  endfacet
  facet normal  0.000000e+00  0.000000e+00  9.999999e-01
    outer loop
      vertex  1.000000e+00  0.000000e+00 -1.625000e+00
      vertex  5.000000e-01  7.850000e-01 -1.625000e+00
      vertex  5.000000e-01  0.000000e+00 -1.625000e+00
    endloop
  endfacet
  facet normal  9.999999e-01  0.000000e+00  -0.000000e+00
    outer loop
      vertex  1.000000e+00  0.000000e+00 -2.125000e+00
      vertex  1.000000e+00  7.850000e-01 -2.125000e+00
      vertex  1.000000e+00  7.850000e-01 -2.005000e+00
    endloop
  endfacet
  facet normal  1.000000e+00  0.000000e+00  0.000000e+00
    outer loop
      vertex  1.000000e+00  0.000000e+00 -2.125000e+00
      vertex  1.000000e+00  7.850000e-01 -2.005000e+00
      vertex  1.000000e+00  4.100000e-01 -2.005000e+00
    endloop
  endfacet
  facet normal  1.000000e+00  0.000000e+00  -0.000000e+00
    outer loop
      vertex  1.000000e+00  0.000000e+00 -2.125000e+00
      vertex  1.000000e+00  4.100000e-01 -2.005000e+00
      vertex  1.000000e+00  4.100000e-01 -1.750000e+00
    endloop
  endfacet
  facet normal  1.000000e+00  0.000000e+00  0.000000e+00
    outer loop
      vertex  1.000000e+00  0.000000e+00 -2.125000e+00
      vertex  1.000000e+00  4.100000e-01 -1.750000e+00
      vertex  1.000000e+00  0.000000e+00 -1.625000e+00
    endloop
  endfacet
  facet normal  1.000000e+00  0.000000e+00  0.000000e+00
    outer loop
      vertex  1.000000e+00  4.100000e-01 -1.750000e+00
      vertex  1.000000e+00  7.850000e-01 -1.750000e+00
      vertex  1.000000e+00  0.000000e+00 -1.625000e+00
    endloop
  endfacet
  facet normal  1.000000e+00  -0.000000e+00  0.000000e+00
    outer loop
      vertex  1.000000e+00  0.000000e+00 -1.625000e+00
      vertex  1.000000e+00  7.850000e-01 -1.750000e+00
      vertex  1.000000e+00  7.850000e-01 -1.625000e+00
    endloop
  endfacet
  facet normal  -0.000000e+00  0.000000e+00 -9.999999e-01
    outer loop
      vertex  0.000000e+00  7.850000e-01 -2.125000e+00
      vertex  1.000000e+00  7.850000e-01 -2.125000e+00
      vertex  0.000000e+00  0.000000e+00 -2.125000e+00
    endloop
  endfacet
  facet normal  0.000000e+00  0.000000e+00 -9.999999e-01
    outer loop
      vertex  0.000000e+00  0.000000e+00 -2.125000e+00
      vertex  1.000000e+00  7.850000e-01 -2.125000e+00
      vertex  1.000000e+00  0.000000e+00 -2.125000e+00
    endloop
  endfacet
  facet normal  -0.000000e+00  0.000000e+00 -9.999999e-01
    outer loop
      vertex -1.000000e+00  7.850000e-01 -2.125000e+00
      vertex  0.000000e+00  7.850000e-01 -2.125000e+00
      vertex -1.000000e+00  0.000000e+00 -2.125000e+00
    endloop
  endfacet
  facet normal  0.000000e+00  0.000000e+00 -9.999999e-01
    outer loop
      vertex -1.000000e+00  0.000000e+00 -2.125000e+00
      vertex  0.000000e+00  7.850000e-01 -2.125000e+00
      vertex  0.000000e+00  0.000000e+00 -2.125000e+00
    endloop
  endfacet
  facet normal -1.000000e+00  0.000000e+00  0.000000e+00
    outer loop
      vertex -1.000000e+00  0.000000e+00 -2.125000e+00
      vertex -1.000000e+00  0.000000e+00 -1.625000e+00
      vertex -1.000000e+00  4.100000e-01 -1.750000e+00
    endloop
  endfacet
  facet normal -1.000000e+00  0.000000e+00  -0.000000e+00
    outer loop
      vertex -1.000000e+00  0.000000e+00 -2.125000e+00
      vertex -1.000000e+00  4.100000e-01 -1.750000e+00
      vertex -1.000000e+00  4.100000e-01 -2.005000e+00
    endloop
  endfacet
  facet normal -1.000000e+00  0.000000e+00  -0.000000e+00
    outer loop
      vertex -1.000000e+00  0.000000e+00 -2.125000e+00
      vertex -1.000000e+00  4.100000e-01 -2.005000e+00
      vertex -1.000000e+00  7.850000e-01 -2.005000e+00
    endloop
  endfacet
  facet normal -9.999999e-01  0.000000e+00  -0.000000e+00
    outer loop
      vertex -1.000000e+00  0.000000e+00 -2.125000e+00
      vertex -1.000000e+00  7.850000e-01 -2.005000e+00
      vertex -1.000000e+00  7.850000e-01 -2.125000e+00
    endloop
  endfacet
  facet normal -1.000000e+00  0.000000e+00  0.000000e+00
    outer loop
      vertex -1.000000e+00  4.100000e-01 -1.750000e+00
      vertex -1.000000e+00  0.000000e+00 -1.625000e+00
      vertex -1.000000e+00  7.850000e-01 -1.750000e+00
    endloop
  endfacet
  facet normal -1.000000e+00  0.000000e+00  0.000000e+00
    outer loop
      vertex -1.000000e+00  7.850000e-01 -1.750000e+00
      vertex -1.000000e+00  0.000000e+00 -1.625000e+00
      vertex -1.000000e+00  7.850000e-01 -1.625000e+00
    endloop
  endfacet
  facet normal  -0.000000e+00  0.000000e+00  9.999999e-01
    outer loop
      vertex -5.000000e-01  7.850000e-01 -1.625000e+00
      vertex -1.000000e+00  7.850000e-01 -1.625000e+00
      vertex -5.000000e-01  0.000000e+00 -1.625000e+00
    endloop
  endfacet
  facet normal  0.000000e+00  0.000000e+00  9.999999e-01
    outer loop
      vertex -5.000000e-01  0.000000e+00 -1.625000e+00
      vertex -1.000000e+00  7.850000e-01 -1.625000e+00
      vertex -1.000000e+00  0.000000e+00 -1.625000e+00
    endloop
  endfacet
  facet normal -1.000000e+00  0.000000e+00  0.000000e+00
    outer loop
      vertex -1.225000e-01  6.550000e-01 -2.000000e+00
      vertex -1.225000e-01  4.100000e-01 -2.000000e+00
      vertex -1.225000e-01  6.550000e-01 -1.750000e+00
    endloop
  endfacet
  facet normal -1.000000e+00  -0.000000e+00  0.000000e+00
    outer loop
      vertex -1.225000e-01  6.550000e-01 -1.750000e+00
      vertex -1.225000e-01  4.100000e-01 -2.000000e+00
      vertex -1.225000e-01  4.100000e-01 -1.750000e+00
    endloop
  endfacet
  facet normal  0.000000e+00  0.000000e+00 -1.000000e+00
    outer loop
      vertex -1.225000e-01  4.100000e-01 -2.000000e+00
      vertex -1.225000e-01  6.550000e-01 -2.000000e+00
      vertex  1.225000e-01  4.100000e-01 -2.000000e+00
    endloop
  endfacet
  facet normal  0.000000e+00  0.000000e+00 -1.000000e+00
    outer loop
      vertex  1.225000e-01  4.100000e-01 -2.000000e+00
      vertex -1.225000e-01  6.550000e-01 -2.000000e+00
      vertex  1.225000e-01  6.550000e-01 -2.000000e+00
    endloop
  endfacet
  facet normal  0.000000e+00  1.000000e+00  0.000000e+00
    outer loop
      vertex  1.225000e-01  6.550000e-01 -2.000000e+00
      vertex -1.225000e-01  6.550000e-01 -2.000000e+00
      vertex  1.225000e-01  6.550000e-01 -1.750000e+00
    endloop
  endfacet
  facet normal  0.000000e+00  1.000000e+00  0.000000e+00
    outer loop
      vertex  1.225000e-01  6.550000e-01 -1.750000e+00
      vertex -1.225000e-01  6.550000e-01 -2.000000e+00
      vertex -1.225000e-01  6.550000e-01 -1.750000e+00
    endloop
  endfacet
  facet normal  1.000000e+00  0.000000e+00  0.000000e+00
    outer loop
      vertex  1.225000e-01  4.100000e-01 -2.000000e+00
      vertex  1.225000e-01  6.550000e-01 -2.000000e+00
      vertex  1.225000e-01  4.100000e-01 -1.750000e+00
    endloop
  endfacet
  facet normal  1.000000e+00  -0.000000e+00  0.000000e+00
    outer loop
      vertex  1.225000e-01  4.100000e-01 -1.750000e+00
      vertex  1.225000e-01  6.550000e-01 -2.000000e+00
      vertex  1.225000e-01  6.550000e-01 -1.750000e+00
    endloop
  endfacet
  facet normal  0.000000e+00  1.000000e+00  0.000000e+00
    outer loop
      vertex -1.000000e+00  4.100000e-01  2.005000e+00
      vertex  1.000000e+00  4.100000e-01  2.005000e+00
      vertex  1.225000e-01  4.100000e-01  2.000000e+00
    endloop
  endfacet
  facet normal  0.000000e+00  1.000000e+00  0.000000e+00
    outer loop
      vertex -1.000000e+00  4.100000e-01  2.005000e+00
      vertex  1.225000e-01  4.100000e-01  2.000000e+00
      vertex -1.225000e-01  4.100000e-01  2.000000e+00
    endloop
  endfacet
  facet normal  0.000000e+00  1.000000e+00  0.000000e+00
    outer loop
      vertex -1.000000e+00  4.100000e-01  2.005000e+00
      vertex -1.225000e-01  4.100000e-01  2.000000e+00
      vertex -1.225000e-01  4.100000e-01  1.750000e+00
    endloop
  endfacet
  facet normal  0.000000e+00  1.000000e+00  0.000000e+00
    outer loop
      vertex -1.000000e+00  4.100000e-01  2.005000e+00
      vertex -1.225000e-01  4.100000e-01  1.750000e+00
      vertex -1.000000e+00  4.100000e-01  1.750000e+00
    endloop
  endfacet
  facet normal  0.000000e+00  1.000000e+00  0.000000e+00
    outer loop
      vertex  1.000000e+00  4.100000e-01  1.750000e+00
      vertex  1.225000e-01  4.100000e-01  1.750000e+00
      vertex  1.000000e+00  4.100000e-01  2.005000e+00
    endloop
  endfacet
  facet normal  0.000000e+00  1.000000e+00  0.000000e+00
    outer loop
      vertex  1.000000e+00  4.100000e-01  2.005000e+00
      vertex  1.225000e-01  4.100000e-01  1.750000e+00
      vertex  1.225000e-01  4.100000e-01  2.000000e+00
    endloop
  endfacet
  facet normal  0.000000e+00  0.000000e+00  1.000000e+00
    outer loop
      vertex -1.000000e+00  4.100000e-01  1.750000e+00
      vertex -1.225000e-01  4.100000e-01  1.750000e+00
      vertex -1.000000e+00  7.850000e-01  1.750000e+00
    endloop
  endfacet
  facet normal  0.000000e+00  0.000000e+00  1.000000e+00
    outer loop
      vertex -1.000000e+00  7.850000e-01  1.750000e+00
      vertex -1.225000e-01  4.100000e-01  1.750000e+00
      vertex -1.225000e-01  6.550000e-01  1.750000e+00
    endloop
  endfacet
  facet normal  0.000000e+00  -0.000000e+00  9.999999e-01
    outer loop
      vertex -1.000000e+00  7.850000e-01  1.750000e+00
      vertex -1.225000e-01  6.550000e-01  1.750000e+00
      vertex  1.000000e+00  7.850000e-01  1.750000e+00
    endloop
  endfacet
  facet normal  0.000000e+00  0.000000e+00  1.000000e+00
    outer loop
      vertex  1.000000e+00  7.850000e-01  1.750000e+00
      vertex -1.225000e-01  6.550000e-01  1.750000e+00
      vertex  1.225000e-01  6.550000e-01  1.750000e+00
    endloop
  endfacet
  facet normal  -0.000000e+00  0.000000e+00  1.000000e+00
    outer loop
      vertex  1.000000e+00  7.850000e-01  1.750000e+00
      vertex  1.225000e-01  6.550000e-01  1.750000e+00
      vertex  1.000000e+00  4.100000e-01  1.750000e+00
    endloop
  endfacet
  facet normal  0.000000e+00  0.000000e+00  1.000000e+00
    outer loop
      vertex  1.000000e+00  4.100000e-01  1.750000e+00
      vertex  1.225000e-01  6.550000e-01  1.750000e+00
      vertex  1.225000e-01  4.100000e-01  1.750000e+00
    endloop
  endfacet
  facet normal  0.000000e+00  0.000000e+00  1.000000e+00
    outer loop
      vertex -1.225000e-01  4.100000e-01  2.000000e+00
      vertex  1.225000e-01  4.100000e-01  2.000000e+00
      vertex -1.225000e-01  6.550000e-01  2.000000e+00
    endloop
  endfacet
  facet normal  -0.000000e+00  0.000000e+00  1.000000e+00
    outer loop
      vertex -1.225000e-01  6.550000e-01  2.000000e+00
      vertex  1.225000e-01  4.100000e-01  2.000000e+00
      vertex  1.225000e-01  6.550000e-01  2.000000e+00
    endloop
  endfacet
  facet normal -1.000000e+00  0.000000e+00  0.000000e+00
    outer loop
      vertex -1.225000e-01  6.550000e-01  1.750000e+00
      vertex -1.225000e-01  4.100000e-01  1.750000e+00
      vertex -1.225000e-01  6.550000e-01  2.000000e+00
    endloop
  endfacet
  facet normal -1.000000e+00  -0.000000e+00  0.000000e+00
    outer loop
      vertex -1.225000e-01  6.550000e-01  2.000000e+00
      vertex -1.225000e-01  4.100000e-01  1.750000e+00
      vertex -1.225000e-01  4.100000e-01  2.000000e+00
    endloop
  endfacet
  facet normal  0.000000e+00  1.000000e+00  0.000000e+00
    outer loop
      vertex  1.225000e-01  6.550000e-01  1.750000e+00
      vertex -1.225000e-01  6.550000e-01  1.750000e+00
      vertex  1.225000e-01  6.550000e-01  2.000000e+00
    endloop
  endfacet
  facet normal  0.000000e+00  1.000000e+00  0.000000e+00
    outer loop
      vertex  1.225000e-01  6.550000e-01  2.000000e+00
      vertex -1.225000e-01  6.550000e-01  1.750000e+00
      vertex -1.225000e-01  6.550000e-01  2.000000e+00
    endloop
  endfacet
  facet normal  1.000000e+00  0.000000e+00  0.000000e+00
    outer loop
      vertex  1.225000e-01  4.100000e-01  1.750000e+00
      vertex  1.225000e-01  6.550000e-01  1.750000e+00
      vertex  1.225000e-01  4.100000e-01  2.000000e+00
    endloop
  endfacet
  facet normal  1.000000e+00  -0.000000e+00  0.000000e+00
    outer loop
      vertex  1.225000e-01  4.100000e-01  2.000000e+00
      vertex  1.225000e-01  6.550000e-01  1.750000e+00
      vertex  1.225000e-01  6.550000e-01  2.000000e+00
    endloop
  endfacet
  facet normal -9.999999e-01  0.000000e+00  0.000000e+00
    outer loop
      vertex -1.000000e+00  7.850000e-01  2.125000e+00
      vertex -1.000000e+00  7.850000e-01  2.005000e+00
      vertex -1.000000e+00  0.000000e+00  2.125000e+00
    endloop
  endfacet
  facet normal -1.000000e+00  0.000000e+00  0.000000e+00
    outer loop
      vertex -1.000000e+00  0.000000e+00  2.125000e+00
      vertex -1.000000e+00  7.850000e-01  2.005000e+00
      vertex -1.000000e+00  4.100000e-01  2.005000e+00
    endloop
  endfacet
  facet normal -1.000000e+00  -0.000000e+00  0.000000e+00
    outer loop
      vertex -1.000000e+00  0.000000e+00  2.125000e+00
      vertex -1.000000e+00  4.100000e-01  2.005000e+00
      vertex -1.000000e+00  0.000000e+00  1.625000e+00
    endloop
  endfacet
  facet normal -1.000000e+00  0.000000e+00  0.000000e+00
    outer loop
      vertex -1.000000e+00  0.000000e+00  1.625000e+00
      vertex -1.000000e+00  4.100000e-01  2.005000e+00
      vertex -1.000000e+00  4.100000e-01  1.750000e+00
    endloop
  endfacet
  facet normal -1.000000e+00  0.000000e+00  -0.000000e+00
    outer loop
      vertex -1.000000e+00  0.000000e+00  1.625000e+00
      vertex -1.000000e+00  4.100000e-01  1.750000e+00
      vertex -1.000000e+00  7.850000e-01  1.625000e+00
    endloop
  endfacet
  facet normal -1.000000e+00  0.000000e+00  0.000000e+00
    outer loop
      vertex -1.000000e+00  7.850000e-01  1.625000e+00
      vertex -1.000000e+00  4.100000e-01  1.750000e+00
      vertex -1.000000e+00  7.850000e-01  1.750000e+00
    endloop
  endfacet
  facet normal  9.999999e-01  0.000000e+00  -0.000000e+00
    outer loop
      vertex  1.000000e+00  0.000000e+00  2.125000e+00
      vertex  1.000000e+00  7.850000e-01  2.005000e+00
      vertex  1.000000e+00  7.850000e-01  2.125000e+00
    endloop
  endfacet
  facet normal  1.000000e+00  0.000000e+00  0.000000e+00
    outer loop
      vertex  1.000000e+00  7.850000e-01  2.005000e+00
      vertex  1.000000e+00  0.000000e+00  2.125000e+00
      vertex  1.000000e+00  4.100000e-01  2.005000e+00
    endloop
  endfacet
  facet normal  1.000000e+00  0.000000e+00  0.000000e+00
    outer loop
      vertex  1.000000e+00  4.100000e-01  2.005000e+00
      vertex  1.000000e+00  0.000000e+00  2.125000e+00
      vertex  1.000000e+00  0.000000e+00  1.625000e+00
    endloop
  endfacet
  facet normal  1.000000e+00  0.000000e+00  0.000000e+00
    outer loop
      vertex  1.000000e+00  4.100000e-01  2.005000e+00
      vertex  1.000000e+00  0.000000e+00  1.625000e+00
      vertex  1.000000e+00  4.100000e-01  1.750000e+00
    endloop
  endfacet
  facet normal  1.000000e+00  0.000000e+00  0.000000e+00
    outer loop
      vertex  1.000000e+00  4.100000e-01  1.750000e+00
      vertex  1.000000e+00  0.000000e+00  1.625000e+00
      vertex  1.000000e+00  7.850000e-01  1.625000e+00
    endloop
  endfacet
  facet normal  1.000000e+00  0.000000e+00  -0.000000e+00
    outer loop
      vertex  1.000000e+00  4.100000e-01  1.750000e+00
      vertex  1.000000e+00  7.850000e-01  1.625000e+00
      vertex  1.000000e+00  7.850000e-01  1.750000e+00
    endloop
  endfacet
  facet normal  0.000000e+00  1.000000e+00  0.000000e+00
    outer loop
      vertex -1.000000e+00  7.850000e-01  2.005000e+00
      vertex -1.000000e+00  7.850000e-01  2.125000e+00
      vertex  1.000000e+00  7.850000e-01  2.005000e+00
    endloop
  endfacet
  facet normal  0.000000e+00  1.000000e+00  0.000000e+00
    outer loop
      vertex  1.000000e+00  7.850000e-01  2.005000e+00
      vertex -1.000000e+00  7.850000e-01  2.125000e+00
      vertex  0.000000e+00  7.850000e-01  2.125000e+00
    endloop
  endfacet
  facet normal  -0.000000e+00  1.000000e+00  0.000000e+00
    outer loop
      vertex  1.000000e+00  7.850000e-01  2.005000e+00
      vertex  0.000000e+00  7.850000e-01  2.125000e+00
      vertex  1.000000e+00  7.850000e-01  2.125000e+00
    endloop
  endfacet
  facet normal  0.000000e+00  0.000000e+00 -1.000000e+00
    outer loop
      vertex -1.000000e+00  4.100000e-01  2.005000e+00
      vertex -1.000000e+00  7.850000e-01  2.005000e+00
      vertex  1.000000e+00  4.100000e-01  2.005000e+00
    endloop
  endfacet
  facet normal  0.000000e+00  0.000000e+00 -1.000000e+00
    outer loop
      vertex  1.000000e+00  4.100000e-01  2.005000e+00
      vertex -1.000000e+00  7.850000e-01  2.005000e+00
      vertex  1.000000e+00  7.850000e-01  2.005000e+00
    endloop
  endfacet
  facet normal  0.000000e+00  0.000000e+00 -9.999999e-01
    outer loop
      vertex  1.000000e+00  7.850000e-01  1.625000e+00
      vertex  1.000000e+00  0.000000e+00  1.625000e+00
      vertex  5.000000e-01  7.850000e-01  1.625000e+00
    endloop
  endfacet
  facet normal  0.000000e+00  0.000000e+00 -9.999999e-01
    outer loop
      vertex  5.000000e-01  7.850000e-01  1.625000e+00
      vertex  1.000000e+00  0.000000e+00  1.625000e+00
      vertex  5.000000e-01  0.000000e+00  1.625000e+00
    endloop
  endfacet
  facet normal  0.000000e+00  0.000000e+00  9.999999e-01
    outer loop
      vertex  0.000000e+00  7.850000e-01  2.125000e+00
      vertex  0.000000e+00  0.000000e+00  2.125000e+00
      vertex  1.000000e+00  7.850000e-01  2.125000e+00
    endloop
  endfacet
  facet normal  0.000000e+00  0.000000e+00  9.999999e-01
    outer loop
      vertex  1.000000e+00  7.850000e-01  2.125000e+00
      vertex  0.000000e+00  0.000000e+00  2.125000e+00
      vertex  1.000000e+00  0.000000e+00  2.125000e+00
    endloop
  endfacet
  facet normal  0.000000e+00  0.000000e+00  9.999999e-01
    outer loop
      vertex -1.000000e+00  7.850000e-01  2.125000e+00
      vertex -1.000000e+00  0.000000e+00  2.125000e+00
      vertex  0.000000e+00  7.850000e-01  2.125000e+00
    endloop
  endfacet
  facet normal  0.000000e+00  0.000000e+00  9.999999e-01
    outer loop
      vertex  0.000000e+00  7.850000e-01  2.125000e+00
      vertex -1.000000e+00  0.000000e+00  2.125000e+00
      vertex  0.000000e+00  0.000000e+00  2.125000e+00
    endloop
  endfacet
  facet normal  0.000000e+00  0.000000e+00 -9.999999e-01
    outer loop
      vertex -5.000000e-01  7.850000e-01  1.625000e+00
      vertex -5.000000e-01  0.000000e+00  1.625000e+00
      vertex -1.000000e+00  7.850000e-01  1.625000e+00
    endloop
  endfacet
  facet normal  0.000000e+00  0.000000e+00 -9.999999e-01
    outer loop
      vertex -1.000000e+00  7.850000e-01  1.625000e+00
      vertex -5.000000e-01  0.000000e+00  1.625000e+00
      vertex -1.000000e+00  0.000000e+00  1.625000e+00
    endloop
  endfacet
endsolid CATIA STL
