solid CATIA STL
  facet normal  1.202785e-28 -9.999999e-01 -7.516124e-29
    outer loop
      vertex  5.047031e-01 -3.545349e-28  5.524516e+00
      vertex -2.018473e-12 -3.545453e-28  4.716990e+00
      vertex  5.047031e-01  0.000000e+00  8.075249e-01
    endloop
  endfacet
  facet normal  3.514240e-28 -1.000000e+00  2.196538e-28
    outer loop
      vertex  2.018753e-12 -3.547406e-28  3.230032e-12
      vertex  5.047031e-01  0.000000e+00  8.075249e-01
      vertex -5.047031e-01 -3.547296e-28  8.075249e-01
    endloop
  endfacet
  facet normal  3.514240e-28 -1.000000e+00 -4.532089e-29
    outer loop
      vertex -5.047031e-01 -3.547296e-28  8.075249e-01
      vertex  5.047031e-01  0.000000e+00  8.075249e-01
      vertex -2.018473e-12 -3.545453e-28  4.716990e+00
    endloop
  endfacet
  facet normal -5.821587e-28 -9.999999e-01  7.520251e-29
    outer loop
      vertex -5.047031e-01 -3.547296e-28  8.075249e-01
      vertex -2.018473e-12 -3.545453e-28  4.716990e+00
      vertex -5.047031e-01  0.000000e+00  5.524516e+00
    endloop
  endfacet
  facet normal  -0.000000e+00  9.999999e-01  0.000000e+00
    outer loop
      vertex  5.047031e-01  1.309055e-01  8.075249e-01
      vertex -8.330537e-16  1.309055e-01  4.716990e+00
      vertex  5.047031e-01  1.309055e-01  5.524516e+00
    endloop
  endfacet
  facet normal  0.000000e+00  9.999999e-01  0.000000e+00
    outer loop
      vertex -5.047031e-01  1.309055e-01  5.524516e+00
      vertex -8.330537e-16  1.309055e-01  4.716990e+00
      vertex -5.047031e-01  1.309055e-01  8.075249e-01
    endloop
  endfacet
  facet normal  0.000000e+00  1.000000e+00  0.000000e+00
    outer loop
      vertex -5.047031e-01  1.309055e-01  8.075249e-01
      vertex -8.330537e-16  1.309055e-01  4.716990e+00
      vertex  5.047031e-01  1.309055e-01  8.075249e-01
    endloop
  endfacet
  facet normal  0.000000e+00  1.000000e+00  0.000000e+00
    outer loop
      vertex -5.047031e-01  1.309055e-01  8.075249e-01
      vertex  5.047031e-01  1.309055e-01  8.075249e-01
      vertex  6.170000e-18  1.309055e-01  9.871999e-18
    endloop
  endfacet
  facet normal  8.479983e-01  0.000000e+00 -5.299990e-01
    outer loop
      vertex  5.047031e-01  0.000000e+00  8.075249e-01
      vertex  2.018753e-12 -3.547406e-28  3.230032e-12
      vertex  5.047031e-01  1.309055e-01  8.075249e-01
    endloop
  endfacet
  facet normal  8.479983e-01  0.000000e+00 -5.299990e-01
    outer loop
      vertex  5.047031e-01  1.309055e-01  8.075249e-01
      vertex  2.018753e-12 -3.547406e-28  3.230032e-12
      vertex  6.170000e-18  1.309055e-01  9.871999e-18
    endloop
  endfacet
  facet normal -8.479983e-01  0.000000e+00 -5.299990e-01
    outer loop
      vertex  2.018753e-12 -3.547406e-28  3.230032e-12
      vertex -5.047031e-01 -3.547296e-28  8.075249e-01
      vertex  6.170000e-18  1.309055e-01  9.871999e-18
    endloop
  endfacet
  facet normal -8.479983e-01  0.000000e+00 -5.299990e-01
    outer loop
      vertex  6.170000e-18  1.309055e-01  9.871999e-18
      vertex -5.047031e-01 -3.547296e-28  8.075249e-01
      vertex -5.047031e-01  1.309055e-01  8.075249e-01
    endloop
  endfacet
  facet normal  1.000000e+00  0.000000e+00  -0.000000e+00
    outer loop
      vertex  5.047031e-01 -3.545349e-28  5.524516e+00
      vertex  5.047031e-01  0.000000e+00  8.075249e-01
      vertex  5.047031e-01  1.309055e-01  5.524516e+00
    endloop
  endfacet
  facet normal  1.000000e+00  0.000000e+00  0.000000e+00
    outer loop
      vertex  5.047031e-01  1.309055e-01  5.524516e+00
      vertex  5.047031e-01  0.000000e+00  8.075249e-01
      vertex  5.047031e-01  1.309055e-01  8.075249e-01
    endloop
  endfacet
  facet normal -1.000000e+00  0.000000e+00  -0.000000e+00
    outer loop
      vertex -5.047031e-01 -3.547296e-28  8.075249e-01
      vertex -5.047031e-01  0.000000e+00  5.524516e+00
      vertex -5.047031e-01  1.309055e-01  8.075249e-01
    endloop
  endfacet
  facet normal -1.000000e+00  0.000000e+00  0.000000e+00
    outer loop
      vertex -5.047031e-01  1.309055e-01  8.075249e-01
      vertex -5.047031e-01  0.000000e+00  5.524516e+00
      vertex -5.047031e-01  1.309055e-01  5.524516e+00
    endloop
  endfacet
  facet normal  8.479983e-01  0.000000e+00  5.299990e-01
    outer loop
      vertex -5.047031e-01  0.000000e+00  5.524516e+00
      vertex -2.018473e-12 -3.545453e-28  4.716990e+00
      vertex -5.047031e-01  1.309055e-01  5.524516e+00
    endloop
  endfacet
  facet normal  8.479983e-01  0.000000e+00  5.299990e-01
    outer loop
      vertex -5.047031e-01  1.309055e-01  5.524516e+00
      vertex -2.018473e-12 -3.545453e-28  4.716990e+00
      vertex -8.330537e-16  1.309055e-01  4.716990e+00
    endloop
  endfacet
  facet normal -8.479983e-01  0.000000e+00  5.299990e-01
    outer loop
      vertex -2.018473e-12 -3.545453e-28  4.716990e+00
      vertex  5.047031e-01 -3.545349e-28  5.524516e+00
      vertex -8.330537e-16  1.309055e-01  4.716990e+00
    endloop
  endfacet
  facet normal -8.479983e-01  0.000000e+00  5.299990e-01
    outer loop
      vertex -8.330537e-16  1.309055e-01  4.716990e+00
      vertex  5.047031e-01 -3.545349e-28  5.524516e+00
      vertex  5.047031e-01  1.309055e-01  5.524516e+00
    endloop
  endfacet
endsolid CATIA STL
