<?xml version="1.0" standalone="no"?>
 <!DOCTYPE svg PUBLIC "-//W3C//DTD SVG 1.1//EN" 
 "http://www.w3.org/Graphics/SVG/1.1/DTD/svg11.dtd"> 
<svg
  xmlns:svg="http://www.w3.org/2000/svg"
  xmlns="http://www.w3.org/2000/svg"
  xmlns:xlink="http://www.w3.org/1999/xlink"
  version="1.1"
  width="297.0022mm" height="210.0072mm" viewBox="0.0000 0.0000 297.0022 210.0072">
<title>SVG Image created as lyra r1-F_Silkscreen.svg date 2023/08/05 22:48:22 </title>
  <desc>Image generated by PCBNEW </desc>
<g style="fill:#000000; fill-opacity:1.0000;stroke:#000000; stroke-opacity:1.0000;
stroke-linecap:round; stroke-linejoin:round;"
 transform="translate(0 0) scale(1 1)">
</g>
<g style="fill:#000000; fill-opacity:0.0; 
stroke:#000000; stroke-width:0.0000; stroke-opacity:1; 
stroke-linecap:round; stroke-linejoin:round;">
</g>
<g style="fill:#000000; fill-opacity:0.0; 
stroke:#000000; stroke-width:0.0212; stroke-opacity:1; 
stroke-linecap:round; stroke-linejoin:round;">
</g>
<g style="fill:#000000; fill-opacity:0.0; 
stroke:#000000; stroke-width:0.1500; stroke-opacity:1; 
stroke-linecap:round; stroke-linejoin:round;">
<path d="M177.0022 166.0072
L285.0022 166.0072
L285.0022 198.0072
L177.0022 198.0072
L177.0022 166.0072
" />
</g>
<g style="fill:#000000; fill-opacity:0.0; 
stroke:#000000; stroke-width:0.0212; stroke-opacity:1; 
stroke-linecap:round; stroke-linejoin:round;">
</g>
<g style="fill:#000000; fill-opacity:0.0; 
stroke:#000000; stroke-width:0.1500; stroke-opacity:1; 
stroke-linecap:round; stroke-linejoin:round;">
<path d="M10.0000 10.0000
L287.0022 10.0000
L287.0022 200.0072
L10.0000 200.0072
L10.0000 10.0000
" />
</g>
<g style="fill:#000000; fill-opacity:0.0; 
stroke:#000000; stroke-width:0.0212; stroke-opacity:1; 
stroke-linecap:round; stroke-linejoin:round;">
</g>
<g style="fill:#000000; fill-opacity:0.0; 
stroke:#000000; stroke-width:0.1500; stroke-opacity:1; 
stroke-linecap:round; stroke-linejoin:round;">
<path d="M12.0000 12.0000
L285.0022 12.0000
L285.0022 198.0072
L12.0000 198.0072
L12.0000 12.0000
" />
</g>
<g style="fill:#000000; fill-opacity:0.0; 
stroke:#000000; stroke-width:0.0212; stroke-opacity:1; 
stroke-linecap:round; stroke-linejoin:round;">
</g>
<g style="fill:#000000; fill-opacity:0.0; 
stroke:#000000; stroke-width:0.1500; stroke-opacity:1; 
stroke-linecap:round; stroke-linejoin:round;">
<path d="M60.0000 12.0000
L60.0000 10.0000
" />
</g>
<g style="fill:#000000; fill-opacity:0.0; 
stroke:#000000; stroke-width:0.0212; stroke-opacity:1; 
stroke-linecap:round; stroke-linejoin:round;">
</g>
<g style="fill:#000000; fill-opacity:0.0; 
stroke:#000000; stroke-width:0.1500; stroke-opacity:1; 
stroke-linecap:round; stroke-linejoin:round;">
<path d="M110.0000 12.0000
L110.0000 10.0000
" />
</g>
<g style="fill:#000000; fill-opacity:0.0; 
stroke:#000000; stroke-width:0.0212; stroke-opacity:1; 
stroke-linecap:round; stroke-linejoin:round;">
</g>
<g style="fill:#000000; fill-opacity:0.0; 
stroke:#000000; stroke-width:0.1500; stroke-opacity:1; 
stroke-linecap:round; stroke-linejoin:round;">
<path d="M160.0000 12.0000
L160.0000 10.0000
" />
</g>
<g style="fill:#000000; fill-opacity:0.0; 
stroke:#000000; stroke-width:0.0212; stroke-opacity:1; 
stroke-linecap:round; stroke-linejoin:round;">
</g>
<g style="fill:#000000; fill-opacity:0.0; 
stroke:#000000; stroke-width:0.1500; stroke-opacity:1; 
stroke-linecap:round; stroke-linejoin:round;">
<path d="M210.0000 12.0000
L210.0000 10.0000
" />
</g>
<g style="fill:#000000; fill-opacity:0.0; 
stroke:#000000; stroke-width:0.0212; stroke-opacity:1; 
stroke-linecap:round; stroke-linejoin:round;">
</g>
<g style="fill:#000000; fill-opacity:0.0; 
stroke:#000000; stroke-width:0.1500; stroke-opacity:1; 
stroke-linecap:round; stroke-linejoin:round;">
<path d="M260.0000 12.0000
L260.0000 10.0000
" />
</g>
<g style="fill:#000000; fill-opacity:0.0; 
stroke:#000000; stroke-width:0.0212; stroke-opacity:1; 
stroke-linecap:round; stroke-linejoin:round;">
</g>
<g style="fill:#000000; fill-opacity:0.0; 
stroke:#000000; stroke-width:0.1500; stroke-opacity:1; 
stroke-linecap:round; stroke-linejoin:round;">
<text x="35.0000" y="11.6500"
textLength="1.3531" font-size="1.7333" lengthAdjust="spacingAndGlyphs"
text-anchor="start" opacity="0">1</text>
<g class="stroked-text"><desc>1</desc>
<path d="M36.0892 11.5936
L35.3463 11.5936
" />
<path d="M35.7177 11.5936
L35.7177 10.2936
" />
<path d="M35.7177 10.2936
L35.5939 10.4793
" />
<path d="M35.5939 10.4793
L35.4701 10.6031
" />
<path d="M35.4701 10.6031
L35.3463 10.6650
" />
</g></g>
<g style="fill:#000000; fill-opacity:0.0; 
stroke:#000000; stroke-width:0.0212; stroke-opacity:1; 
stroke-linecap:round; stroke-linejoin:round;">
</g>
<g style="fill:#000000; fill-opacity:0.0; 
stroke:#000000; stroke-width:0.1500; stroke-opacity:1; 
stroke-linecap:round; stroke-linejoin:round;">
<text x="85.0000" y="11.6500"
textLength="1.3531" font-size="1.7333" lengthAdjust="spacingAndGlyphs"
text-anchor="start" opacity="0">2</text>
<g class="stroked-text"><desc>2</desc>
<path d="M85.3463 10.4174
L85.4082 10.3555
" />
<path d="M85.4082 10.3555
L85.5320 10.2936
" />
<path d="M85.5320 10.2936
L85.8415 10.2936
" />
<path d="M85.8415 10.2936
L85.9654 10.3555
" />
<path d="M85.9654 10.3555
L86.0273 10.4174
" />
<path d="M86.0273 10.4174
L86.0892 10.5412
" />
<path d="M86.0892 10.5412
L86.0892 10.6650
" />
<path d="M86.0892 10.6650
L86.0273 10.8507
" />
<path d="M86.0273 10.8507
L85.2844 11.5936
" />
<path d="M85.2844 11.5936
L86.0892 11.5936
" />
</g></g>
<g style="fill:#000000; fill-opacity:0.0; 
stroke:#000000; stroke-width:0.0212; stroke-opacity:1; 
stroke-linecap:round; stroke-linejoin:round;">
</g>
<g style="fill:#000000; fill-opacity:0.0; 
stroke:#000000; stroke-width:0.1500; stroke-opacity:1; 
stroke-linecap:round; stroke-linejoin:round;">
<text x="135.0000" y="11.6500"
textLength="1.3531" font-size="1.7333" lengthAdjust="spacingAndGlyphs"
text-anchor="start" opacity="0">3</text>
<g class="stroked-text"><desc>3</desc>
<path d="M135.2844 10.2936
L136.0892 10.2936
" />
<path d="M136.0892 10.2936
L135.6558 10.7888
" />
<path d="M135.6558 10.7888
L135.8415 10.7888
" />
<path d="M135.8415 10.7888
L135.9654 10.8507
" />
<path d="M135.9654 10.8507
L136.0273 10.9127
" />
<path d="M136.0273 10.9127
L136.0892 11.0365
" />
<path d="M136.0892 11.0365
L136.0892 11.3460
" />
<path d="M136.0892 11.3460
L136.0273 11.4698
" />
<path d="M136.0273 11.4698
L135.9654 11.5317
" />
<path d="M135.9654 11.5317
L135.8415 11.5936
" />
<path d="M135.8415 11.5936
L135.4701 11.5936
" />
<path d="M135.4701 11.5936
L135.3463 11.5317
" />
<path d="M135.3463 11.5317
L135.2844 11.4698
" />
</g></g>
<g style="fill:#000000; fill-opacity:0.0; 
stroke:#000000; stroke-width:0.0212; stroke-opacity:1; 
stroke-linecap:round; stroke-linejoin:round;">
</g>
<g style="fill:#000000; fill-opacity:0.0; 
stroke:#000000; stroke-width:0.1500; stroke-opacity:1; 
stroke-linecap:round; stroke-linejoin:round;">
<text x="185.0000" y="11.6500"
textLength="1.3531" font-size="1.7333" lengthAdjust="spacingAndGlyphs"
text-anchor="start" opacity="0">4</text>
<g class="stroked-text"><desc>4</desc>
<path d="M185.9654 10.7269
L185.9654 11.5936
" />
<path d="M185.6558 10.2317
L185.3463 11.1603
" />
<path d="M185.3463 11.1603
L186.1511 11.1603
" />
</g></g>
<g style="fill:#000000; fill-opacity:0.0; 
stroke:#000000; stroke-width:0.0212; stroke-opacity:1; 
stroke-linecap:round; stroke-linejoin:round;">
</g>
<g style="fill:#000000; fill-opacity:0.0; 
stroke:#000000; stroke-width:0.1500; stroke-opacity:1; 
stroke-linecap:round; stroke-linejoin:round;">
<text x="235.0000" y="11.6500"
textLength="1.3531" font-size="1.7333" lengthAdjust="spacingAndGlyphs"
text-anchor="start" opacity="0">5</text>
<g class="stroked-text"><desc>5</desc>
<path d="M236.0273 10.2936
L235.4082 10.2936
" />
<path d="M235.4082 10.2936
L235.3463 10.9127
" />
<path d="M235.3463 10.9127
L235.4082 10.8507
" />
<path d="M235.4082 10.8507
L235.5320 10.7888
" />
<path d="M235.5320 10.7888
L235.8415 10.7888
" />
<path d="M235.8415 10.7888
L235.9654 10.8507
" />
<path d="M235.9654 10.8507
L236.0273 10.9127
" />
<path d="M236.0273 10.9127
L236.0892 11.0365
" />
<path d="M236.0892 11.0365
L236.0892 11.3460
" />
<path d="M236.0892 11.3460
L236.0273 11.4698
" />
<path d="M236.0273 11.4698
L235.9654 11.5317
" />
<path d="M235.9654 11.5317
L235.8415 11.5936
" />
<path d="M235.8415 11.5936
L235.5320 11.5936
" />
<path d="M235.5320 11.5936
L235.4082 11.5317
" />
<path d="M235.4082 11.5317
L235.3463 11.4698
" />
</g></g>
<g style="fill:#000000; fill-opacity:0.0; 
stroke:#000000; stroke-width:0.0212; stroke-opacity:1; 
stroke-linecap:round; stroke-linejoin:round;">
</g>
<g style="fill:#000000; fill-opacity:0.0; 
stroke:#000000; stroke-width:0.1500; stroke-opacity:1; 
stroke-linecap:round; stroke-linejoin:round;">
<text x="285.0000" y="11.6500"
textLength="1.3531" font-size="1.7333" lengthAdjust="spacingAndGlyphs"
text-anchor="start" opacity="0">6</text>
<g class="stroked-text"><desc>6</desc>
<path d="M285.9654 10.2936
L285.7177 10.2936
" />
<path d="M285.7177 10.2936
L285.5939 10.3555
" />
<path d="M285.5939 10.3555
L285.5320 10.4174
" />
<path d="M285.5320 10.4174
L285.4082 10.6031
" />
<path d="M285.4082 10.6031
L285.3463 10.8507
" />
<path d="M285.3463 10.8507
L285.3463 11.3460
" />
<path d="M285.3463 11.3460
L285.4082 11.4698
" />
<path d="M285.4082 11.4698
L285.4701 11.5317
" />
<path d="M285.4701 11.5317
L285.5939 11.5936
" />
<path d="M285.5939 11.5936
L285.8415 11.5936
" />
<path d="M285.8415 11.5936
L285.9654 11.5317
" />
<path d="M285.9654 11.5317
L286.0273 11.4698
" />
<path d="M286.0273 11.4698
L286.0892 11.3460
" />
<path d="M286.0892 11.3460
L286.0892 11.0365
" />
<path d="M286.0892 11.0365
L286.0273 10.9127
" />
<path d="M286.0273 10.9127
L285.9654 10.8507
" />
<path d="M285.9654 10.8507
L285.8415 10.7888
" />
<path d="M285.8415 10.7888
L285.5939 10.7888
" />
<path d="M285.5939 10.7888
L285.4701 10.8507
" />
<path d="M285.4701 10.8507
L285.4082 10.9127
" />
<path d="M285.4082 10.9127
L285.3463 11.0365
" />
</g></g>
<g style="fill:#000000; fill-opacity:0.0; 
stroke:#000000; stroke-width:0.0212; stroke-opacity:1; 
stroke-linecap:round; stroke-linejoin:round;">
</g>
<g style="fill:#000000; fill-opacity:0.0; 
stroke:#000000; stroke-width:0.1500; stroke-opacity:1; 
stroke-linecap:round; stroke-linejoin:round;">
<path d="M60.0000 198.0072
L60.0000 200.0072
" />
</g>
<g style="fill:#000000; fill-opacity:0.0; 
stroke:#000000; stroke-width:0.0212; stroke-opacity:1; 
stroke-linecap:round; stroke-linejoin:round;">
</g>
<g style="fill:#000000; fill-opacity:0.0; 
stroke:#000000; stroke-width:0.1500; stroke-opacity:1; 
stroke-linecap:round; stroke-linejoin:round;">
<path d="M110.0000 198.0072
L110.0000 200.0072
" />
</g>
<g style="fill:#000000; fill-opacity:0.0; 
stroke:#000000; stroke-width:0.0212; stroke-opacity:1; 
stroke-linecap:round; stroke-linejoin:round;">
</g>
<g style="fill:#000000; fill-opacity:0.0; 
stroke:#000000; stroke-width:0.1500; stroke-opacity:1; 
stroke-linecap:round; stroke-linejoin:round;">
<path d="M160.0000 198.0072
L160.0000 200.0072
" />
</g>
<g style="fill:#000000; fill-opacity:0.0; 
stroke:#000000; stroke-width:0.0212; stroke-opacity:1; 
stroke-linecap:round; stroke-linejoin:round;">
</g>
<g style="fill:#000000; fill-opacity:0.0; 
stroke:#000000; stroke-width:0.1500; stroke-opacity:1; 
stroke-linecap:round; stroke-linejoin:round;">
<path d="M210.0000 198.0072
L210.0000 200.0072
" />
</g>
<g style="fill:#000000; fill-opacity:0.0; 
stroke:#000000; stroke-width:0.0212; stroke-opacity:1; 
stroke-linecap:round; stroke-linejoin:round;">
</g>
<g style="fill:#000000; fill-opacity:0.0; 
stroke:#000000; stroke-width:0.1500; stroke-opacity:1; 
stroke-linecap:round; stroke-linejoin:round;">
<path d="M260.0000 198.0072
L260.0000 200.0072
" />
</g>
<g style="fill:#000000; fill-opacity:0.0; 
stroke:#000000; stroke-width:0.0212; stroke-opacity:1; 
stroke-linecap:round; stroke-linejoin:round;">
</g>
<g style="fill:#000000; fill-opacity:0.0; 
stroke:#000000; stroke-width:0.1500; stroke-opacity:1; 
stroke-linecap:round; stroke-linejoin:round;">
<text x="35.0000" y="199.6572"
textLength="1.3531" font-size="1.7333" lengthAdjust="spacingAndGlyphs"
text-anchor="start" opacity="0">1</text>
<g class="stroked-text"><desc>1</desc>
<path d="M36.0892 199.6008
L35.3463 199.6008
" />
<path d="M35.7177 199.6008
L35.7177 198.3008
" />
<path d="M35.7177 198.3008
L35.5939 198.4865
" />
<path d="M35.5939 198.4865
L35.4701 198.6103
" />
<path d="M35.4701 198.6103
L35.3463 198.6722
" />
</g></g>
<g style="fill:#000000; fill-opacity:0.0; 
stroke:#000000; stroke-width:0.0212; stroke-opacity:1; 
stroke-linecap:round; stroke-linejoin:round;">
</g>
<g style="fill:#000000; fill-opacity:0.0; 
stroke:#000000; stroke-width:0.1500; stroke-opacity:1; 
stroke-linecap:round; stroke-linejoin:round;">
<text x="85.0000" y="199.6572"
textLength="1.3531" font-size="1.7333" lengthAdjust="spacingAndGlyphs"
text-anchor="start" opacity="0">2</text>
<g class="stroked-text"><desc>2</desc>
<path d="M85.3463 198.4246
L85.4082 198.3627
" />
<path d="M85.4082 198.3627
L85.5320 198.3008
" />
<path d="M85.5320 198.3008
L85.8415 198.3008
" />
<path d="M85.8415 198.3008
L85.9654 198.3627
" />
<path d="M85.9654 198.3627
L86.0273 198.4246
" />
<path d="M86.0273 198.4246
L86.0892 198.5484
" />
<path d="M86.0892 198.5484
L86.0892 198.6722
" />
<path d="M86.0892 198.6722
L86.0273 198.8579
" />
<path d="M86.0273 198.8579
L85.2844 199.6008
" />
<path d="M85.2844 199.6008
L86.0892 199.6008
" />
</g></g>
<g style="fill:#000000; fill-opacity:0.0; 
stroke:#000000; stroke-width:0.0212; stroke-opacity:1; 
stroke-linecap:round; stroke-linejoin:round;">
</g>
<g style="fill:#000000; fill-opacity:0.0; 
stroke:#000000; stroke-width:0.1500; stroke-opacity:1; 
stroke-linecap:round; stroke-linejoin:round;">
<text x="135.0000" y="199.6572"
textLength="1.3531" font-size="1.7333" lengthAdjust="spacingAndGlyphs"
text-anchor="start" opacity="0">3</text>
<g class="stroked-text"><desc>3</desc>
<path d="M135.2844 198.3008
L136.0892 198.3008
" />
<path d="M136.0892 198.3008
L135.6558 198.7960
" />
<path d="M135.6558 198.7960
L135.8415 198.7960
" />
<path d="M135.8415 198.7960
L135.9654 198.8579
" />
<path d="M135.9654 198.8579
L136.0273 198.9199
" />
<path d="M136.0273 198.9199
L136.0892 199.0437
" />
<path d="M136.0892 199.0437
L136.0892 199.3532
" />
<path d="M136.0892 199.3532
L136.0273 199.4770
" />
<path d="M136.0273 199.4770
L135.9654 199.5389
" />
<path d="M135.9654 199.5389
L135.8415 199.6008
" />
<path d="M135.8415 199.6008
L135.4701 199.6008
" />
<path d="M135.4701 199.6008
L135.3463 199.5389
" />
<path d="M135.3463 199.5389
L135.2844 199.4770
" />
</g></g>
<g style="fill:#000000; fill-opacity:0.0; 
stroke:#000000; stroke-width:0.0212; stroke-opacity:1; 
stroke-linecap:round; stroke-linejoin:round;">
</g>
<g style="fill:#000000; fill-opacity:0.0; 
stroke:#000000; stroke-width:0.1500; stroke-opacity:1; 
stroke-linecap:round; stroke-linejoin:round;">
<text x="185.0000" y="199.6572"
textLength="1.3531" font-size="1.7333" lengthAdjust="spacingAndGlyphs"
text-anchor="start" opacity="0">4</text>
<g class="stroked-text"><desc>4</desc>
<path d="M185.9654 198.7341
L185.9654 199.6008
" />
<path d="M185.6558 198.2389
L185.3463 199.1675
" />
<path d="M185.3463 199.1675
L186.1511 199.1675
" />
</g></g>
<g style="fill:#000000; fill-opacity:0.0; 
stroke:#000000; stroke-width:0.0212; stroke-opacity:1; 
stroke-linecap:round; stroke-linejoin:round;">
</g>
<g style="fill:#000000; fill-opacity:0.0; 
stroke:#000000; stroke-width:0.1500; stroke-opacity:1; 
stroke-linecap:round; stroke-linejoin:round;">
<text x="235.0000" y="199.6572"
textLength="1.3531" font-size="1.7333" lengthAdjust="spacingAndGlyphs"
text-anchor="start" opacity="0">5</text>
<g class="stroked-text"><desc>5</desc>
<path d="M236.0273 198.3008
L235.4082 198.3008
" />
<path d="M235.4082 198.3008
L235.3463 198.9199
" />
<path d="M235.3463 198.9199
L235.4082 198.8579
" />
<path d="M235.4082 198.8579
L235.5320 198.7960
" />
<path d="M235.5320 198.7960
L235.8415 198.7960
" />
<path d="M235.8415 198.7960
L235.9654 198.8579
" />
<path d="M235.9654 198.8579
L236.0273 198.9199
" />
<path d="M236.0273 198.9199
L236.0892 199.0437
" />
<path d="M236.0892 199.0437
L236.0892 199.3532
" />
<path d="M236.0892 199.3532
L236.0273 199.4770
" />
<path d="M236.0273 199.4770
L235.9654 199.5389
" />
<path d="M235.9654 199.5389
L235.8415 199.6008
" />
<path d="M235.8415 199.6008
L235.5320 199.6008
" />
<path d="M235.5320 199.6008
L235.4082 199.5389
" />
<path d="M235.4082 199.5389
L235.3463 199.4770
" />
</g></g>
<g style="fill:#000000; fill-opacity:0.0; 
stroke:#000000; stroke-width:0.0212; stroke-opacity:1; 
stroke-linecap:round; stroke-linejoin:round;">
</g>
<g style="fill:#000000; fill-opacity:0.0; 
stroke:#000000; stroke-width:0.1500; stroke-opacity:1; 
stroke-linecap:round; stroke-linejoin:round;">
<text x="285.0000" y="199.6572"
textLength="1.3531" font-size="1.7333" lengthAdjust="spacingAndGlyphs"
text-anchor="start" opacity="0">6</text>
<g class="stroked-text"><desc>6</desc>
<path d="M285.9654 198.3008
L285.7177 198.3008
" />
<path d="M285.7177 198.3008
L285.5939 198.3627
" />
<path d="M285.5939 198.3627
L285.5320 198.4246
" />
<path d="M285.5320 198.4246
L285.4082 198.6103
" />
<path d="M285.4082 198.6103
L285.3463 198.8579
" />
<path d="M285.3463 198.8579
L285.3463 199.3532
" />
<path d="M285.3463 199.3532
L285.4082 199.4770
" />
<path d="M285.4082 199.4770
L285.4701 199.5389
" />
<path d="M285.4701 199.5389
L285.5939 199.6008
" />
<path d="M285.5939 199.6008
L285.8415 199.6008
" />
<path d="M285.8415 199.6008
L285.9654 199.5389
" />
<path d="M285.9654 199.5389
L286.0273 199.4770
" />
<path d="M286.0273 199.4770
L286.0892 199.3532
" />
<path d="M286.0892 199.3532
L286.0892 199.0437
" />
<path d="M286.0892 199.0437
L286.0273 198.9199
" />
<path d="M286.0273 198.9199
L285.9654 198.8579
" />
<path d="M285.9654 198.8579
L285.8415 198.7960
" />
<path d="M285.8415 198.7960
L285.5939 198.7960
" />
<path d="M285.5939 198.7960
L285.4701 198.8579
" />
<path d="M285.4701 198.8579
L285.4082 198.9199
" />
<path d="M285.4082 198.9199
L285.3463 199.0437
" />
</g></g>
<g style="fill:#000000; fill-opacity:0.0; 
stroke:#000000; stroke-width:0.0212; stroke-opacity:1; 
stroke-linecap:round; stroke-linejoin:round;">
</g>
<g style="fill:#000000; fill-opacity:0.0; 
stroke:#000000; stroke-width:0.1500; stroke-opacity:1; 
stroke-linecap:round; stroke-linejoin:round;">
<path d="M10.0000 60.0000
L12.0000 60.0000
" />
</g>
<g style="fill:#000000; fill-opacity:0.0; 
stroke:#000000; stroke-width:0.0212; stroke-opacity:1; 
stroke-linecap:round; stroke-linejoin:round;">
</g>
<g style="fill:#000000; fill-opacity:0.0; 
stroke:#000000; stroke-width:0.1500; stroke-opacity:1; 
stroke-linecap:round; stroke-linejoin:round;">
<path d="M10.0000 110.0000
L12.0000 110.0000
" />
</g>
<g style="fill:#000000; fill-opacity:0.0; 
stroke:#000000; stroke-width:0.0212; stroke-opacity:1; 
stroke-linecap:round; stroke-linejoin:round;">
</g>
<g style="fill:#000000; fill-opacity:0.0; 
stroke:#000000; stroke-width:0.1500; stroke-opacity:1; 
stroke-linecap:round; stroke-linejoin:round;">
<path d="M10.0000 160.0000
L12.0000 160.0000
" />
</g>
<g style="fill:#000000; fill-opacity:0.0; 
stroke:#000000; stroke-width:0.0212; stroke-opacity:1; 
stroke-linecap:round; stroke-linejoin:round;">
</g>
<g style="fill:#000000; fill-opacity:0.0; 
stroke:#000000; stroke-width:0.1500; stroke-opacity:1; 
stroke-linecap:round; stroke-linejoin:round;">
<text x="11.0000" y="35.6500"
textLength="1.2293" font-size="1.7333" lengthAdjust="spacingAndGlyphs"
text-anchor="middle" opacity="0">A</text>
<g class="stroked-text"><desc>A</desc>
<path d="M10.6905 35.2222
L11.3095 35.2222
" />
<path d="M10.5667 35.5936
L11.0000 34.2936
" />
<path d="M11.0000 34.2936
L11.4333 35.5936
" />
</g></g>
<g style="fill:#000000; fill-opacity:0.0; 
stroke:#000000; stroke-width:0.0212; stroke-opacity:1; 
stroke-linecap:round; stroke-linejoin:round;">
</g>
<g style="fill:#000000; fill-opacity:0.0; 
stroke:#000000; stroke-width:0.1500; stroke-opacity:1; 
stroke-linecap:round; stroke-linejoin:round;">
<text x="11.0000" y="85.6500"
textLength="1.4150" font-size="1.7333" lengthAdjust="spacingAndGlyphs"
text-anchor="middle" opacity="0">B</text>
<g class="stroked-text"><desc>B</desc>
<path d="M11.0929 84.9127
L11.2786 84.9746
" />
<path d="M11.2786 84.9746
L11.3405 85.0365
" />
<path d="M11.3405 85.0365
L11.4024 85.1603
" />
<path d="M11.4024 85.1603
L11.4024 85.3460
" />
<path d="M11.4024 85.3460
L11.3405 85.4698
" />
<path d="M11.3405 85.4698
L11.2786 85.5317
" />
<path d="M11.2786 85.5317
L11.1548 85.5936
" />
<path d="M11.1548 85.5936
L10.6595 85.5936
" />
<path d="M10.6595 85.5936
L10.6595 84.2936
" />
<path d="M10.6595 84.2936
L11.0929 84.2936
" />
<path d="M11.0929 84.2936
L11.2167 84.3555
" />
<path d="M11.2167 84.3555
L11.2786 84.4174
" />
<path d="M11.2786 84.4174
L11.3405 84.5412
" />
<path d="M11.3405 84.5412
L11.3405 84.6650
" />
<path d="M11.3405 84.6650
L11.2786 84.7888
" />
<path d="M11.2786 84.7888
L11.2167 84.8507
" />
<path d="M11.2167 84.8507
L11.0929 84.9127
" />
<path d="M11.0929 84.9127
L10.6595 84.9127
" />
</g></g>
<g style="fill:#000000; fill-opacity:0.0; 
stroke:#000000; stroke-width:0.0212; stroke-opacity:1; 
stroke-linecap:round; stroke-linejoin:round;">
</g>
<g style="fill:#000000; fill-opacity:0.0; 
stroke:#000000; stroke-width:0.1500; stroke-opacity:1; 
stroke-linecap:round; stroke-linejoin:round;">
<text x="11.0000" y="135.6500"
textLength="1.4150" font-size="1.7333" lengthAdjust="spacingAndGlyphs"
text-anchor="middle" opacity="0">C</text>
<g class="stroked-text"><desc>C</desc>
<path d="M11.4024 135.4698
L11.3405 135.5317
" />
<path d="M11.3405 135.5317
L11.1548 135.5936
" />
<path d="M11.1548 135.5936
L11.0310 135.5936
" />
<path d="M11.0310 135.5936
L10.8452 135.5317
" />
<path d="M10.8452 135.5317
L10.7214 135.4079
" />
<path d="M10.7214 135.4079
L10.6595 135.2841
" />
<path d="M10.6595 135.2841
L10.5976 135.0365
" />
<path d="M10.5976 135.0365
L10.5976 134.8507
" />
<path d="M10.5976 134.8507
L10.6595 134.6031
" />
<path d="M10.6595 134.6031
L10.7214 134.4793
" />
<path d="M10.7214 134.4793
L10.8452 134.3555
" />
<path d="M10.8452 134.3555
L11.0310 134.2936
" />
<path d="M11.0310 134.2936
L11.1548 134.2936
" />
<path d="M11.1548 134.2936
L11.3405 134.3555
" />
<path d="M11.3405 134.3555
L11.4024 134.4174
" />
</g></g>
<g style="fill:#000000; fill-opacity:0.0; 
stroke:#000000; stroke-width:0.0212; stroke-opacity:1; 
stroke-linecap:round; stroke-linejoin:round;">
</g>
<g style="fill:#000000; fill-opacity:0.0; 
stroke:#000000; stroke-width:0.1500; stroke-opacity:1; 
stroke-linecap:round; stroke-linejoin:round;">
<text x="11.0000" y="185.6500"
textLength="1.4150" font-size="1.7333" lengthAdjust="spacingAndGlyphs"
text-anchor="middle" opacity="0">D</text>
<g class="stroked-text"><desc>D</desc>
<path d="M10.6595 185.5936
L10.6595 184.2936
" />
<path d="M10.6595 184.2936
L10.9690 184.2936
" />
<path d="M10.9690 184.2936
L11.1548 184.3555
" />
<path d="M11.1548 184.3555
L11.2786 184.4793
" />
<path d="M11.2786 184.4793
L11.3405 184.6031
" />
<path d="M11.3405 184.6031
L11.4024 184.8507
" />
<path d="M11.4024 184.8507
L11.4024 185.0365
" />
<path d="M11.4024 185.0365
L11.3405 185.2841
" />
<path d="M11.3405 185.2841
L11.2786 185.4079
" />
<path d="M11.2786 185.4079
L11.1548 185.5317
" />
<path d="M11.1548 185.5317
L10.9690 185.5936
" />
<path d="M10.9690 185.5936
L10.6595 185.5936
" />
</g></g>
<g style="fill:#000000; fill-opacity:0.0; 
stroke:#000000; stroke-width:0.0212; stroke-opacity:1; 
stroke-linecap:round; stroke-linejoin:round;">
</g>
<g style="fill:#000000; fill-opacity:0.0; 
stroke:#000000; stroke-width:0.1500; stroke-opacity:1; 
stroke-linecap:round; stroke-linejoin:round;">
<path d="M287.0022 60.0000
L285.0022 60.0000
" />
</g>
<g style="fill:#000000; fill-opacity:0.0; 
stroke:#000000; stroke-width:0.0212; stroke-opacity:1; 
stroke-linecap:round; stroke-linejoin:round;">
</g>
<g style="fill:#000000; fill-opacity:0.0; 
stroke:#000000; stroke-width:0.1500; stroke-opacity:1; 
stroke-linecap:round; stroke-linejoin:round;">
<path d="M287.0022 110.0000
L285.0022 110.0000
" />
</g>
<g style="fill:#000000; fill-opacity:0.0; 
stroke:#000000; stroke-width:0.0212; stroke-opacity:1; 
stroke-linecap:round; stroke-linejoin:round;">
</g>
<g style="fill:#000000; fill-opacity:0.0; 
stroke:#000000; stroke-width:0.1500; stroke-opacity:1; 
stroke-linecap:round; stroke-linejoin:round;">
<path d="M287.0022 160.0000
L285.0022 160.0000
" />
</g>
<g style="fill:#000000; fill-opacity:0.0; 
stroke:#000000; stroke-width:0.0212; stroke-opacity:1; 
stroke-linecap:round; stroke-linejoin:round;">
</g>
<g style="fill:#000000; fill-opacity:0.0; 
stroke:#000000; stroke-width:0.1500; stroke-opacity:1; 
stroke-linecap:round; stroke-linejoin:round;">
<text x="286.0022" y="35.6500"
textLength="1.2293" font-size="1.7333" lengthAdjust="spacingAndGlyphs"
text-anchor="middle" opacity="0">A</text>
<g class="stroked-text"><desc>A</desc>
<path d="M285.6927 35.2222
L286.3117 35.2222
" />
<path d="M285.5689 35.5936
L286.0022 34.2936
" />
<path d="M286.0022 34.2936
L286.4355 35.5936
" />
</g></g>
<g style="fill:#000000; fill-opacity:0.0; 
stroke:#000000; stroke-width:0.0212; stroke-opacity:1; 
stroke-linecap:round; stroke-linejoin:round;">
</g>
<g style="fill:#000000; fill-opacity:0.0; 
stroke:#000000; stroke-width:0.1500; stroke-opacity:1; 
stroke-linecap:round; stroke-linejoin:round;">
<text x="286.0022" y="85.6500"
textLength="1.4150" font-size="1.7333" lengthAdjust="spacingAndGlyphs"
text-anchor="middle" opacity="0">B</text>
<g class="stroked-text"><desc>B</desc>
<path d="M286.0951 84.9127
L286.2808 84.9746
" />
<path d="M286.2808 84.9746
L286.3427 85.0365
" />
<path d="M286.3427 85.0365
L286.4046 85.1603
" />
<path d="M286.4046 85.1603
L286.4046 85.3460
" />
<path d="M286.4046 85.3460
L286.3427 85.4698
" />
<path d="M286.3427 85.4698
L286.2808 85.5317
" />
<path d="M286.2808 85.5317
L286.1570 85.5936
" />
<path d="M286.1570 85.5936
L285.6617 85.5936
" />
<path d="M285.6617 85.5936
L285.6617 84.2936
" />
<path d="M285.6617 84.2936
L286.0951 84.2936
" />
<path d="M286.0951 84.2936
L286.2189 84.3555
" />
<path d="M286.2189 84.3555
L286.2808 84.4174
" />
<path d="M286.2808 84.4174
L286.3427 84.5412
" />
<path d="M286.3427 84.5412
L286.3427 84.6650
" />
<path d="M286.3427 84.6650
L286.2808 84.7888
" />
<path d="M286.2808 84.7888
L286.2189 84.8507
" />
<path d="M286.2189 84.8507
L286.0951 84.9127
" />
<path d="M286.0951 84.9127
L285.6617 84.9127
" />
</g></g>
<g style="fill:#000000; fill-opacity:0.0; 
stroke:#000000; stroke-width:0.0212; stroke-opacity:1; 
stroke-linecap:round; stroke-linejoin:round;">
</g>
<g style="fill:#000000; fill-opacity:0.0; 
stroke:#000000; stroke-width:0.1500; stroke-opacity:1; 
stroke-linecap:round; stroke-linejoin:round;">
<text x="286.0022" y="135.6500"
textLength="1.4150" font-size="1.7333" lengthAdjust="spacingAndGlyphs"
text-anchor="middle" opacity="0">C</text>
<g class="stroked-text"><desc>C</desc>
<path d="M286.4046 135.4698
L286.3427 135.5317
" />
<path d="M286.3427 135.5317
L286.1570 135.5936
" />
<path d="M286.1570 135.5936
L286.0332 135.5936
" />
<path d="M286.0332 135.5936
L285.8474 135.5317
" />
<path d="M285.8474 135.5317
L285.7236 135.4079
" />
<path d="M285.7236 135.4079
L285.6617 135.2841
" />
<path d="M285.6617 135.2841
L285.5998 135.0365
" />
<path d="M285.5998 135.0365
L285.5998 134.8507
" />
<path d="M285.5998 134.8507
L285.6617 134.6031
" />
<path d="M285.6617 134.6031
L285.7236 134.4793
" />
<path d="M285.7236 134.4793
L285.8474 134.3555
" />
<path d="M285.8474 134.3555
L286.0332 134.2936
" />
<path d="M286.0332 134.2936
L286.1570 134.2936
" />
<path d="M286.1570 134.2936
L286.3427 134.3555
" />
<path d="M286.3427 134.3555
L286.4046 134.4174
" />
</g></g>
<g style="fill:#000000; fill-opacity:0.0; 
stroke:#000000; stroke-width:0.0212; stroke-opacity:1; 
stroke-linecap:round; stroke-linejoin:round;">
</g>
<g style="fill:#000000; fill-opacity:0.0; 
stroke:#000000; stroke-width:0.1500; stroke-opacity:1; 
stroke-linecap:round; stroke-linejoin:round;">
<text x="286.0022" y="185.6500"
textLength="1.4150" font-size="1.7333" lengthAdjust="spacingAndGlyphs"
text-anchor="middle" opacity="0">D</text>
<g class="stroked-text"><desc>D</desc>
<path d="M285.6617 185.5936
L285.6617 184.2936
" />
<path d="M285.6617 184.2936
L285.9712 184.2936
" />
<path d="M285.9712 184.2936
L286.1570 184.3555
" />
<path d="M286.1570 184.3555
L286.2808 184.4793
" />
<path d="M286.2808 184.4793
L286.3427 184.6031
" />
<path d="M286.3427 184.6031
L286.4046 184.8507
" />
<path d="M286.4046 184.8507
L286.4046 185.0365
" />
<path d="M286.4046 185.0365
L286.3427 185.2841
" />
<path d="M286.3427 185.2841
L286.2808 185.4079
" />
<path d="M286.2808 185.4079
L286.1570 185.5317
" />
<path d="M286.1570 185.5317
L285.9712 185.5936
" />
<path d="M285.9712 185.5936
L285.6617 185.5936
" />
</g></g>
<g style="fill:#000000; fill-opacity:0.0; 
stroke:#000000; stroke-width:0.0212; stroke-opacity:1; 
stroke-linecap:round; stroke-linejoin:round;">
</g>
<g style="fill:#000000; fill-opacity:0.0; 
stroke:#000000; stroke-width:0.1500; stroke-opacity:1; 
stroke-linecap:round; stroke-linejoin:round;">
<text x="200.0022" y="193.8572"
textLength="6.9321" font-size="2.0000" lengthAdjust="spacingAndGlyphs"
text-anchor="start" opacity="0">Date: </text>
<g class="stroked-text"><desc>Date: </desc>
<path d="M200.4580 193.7933
L200.4580 192.2933
" />
<path d="M200.4580 192.2933
L200.8152 192.2933
" />
<path d="M200.8152 192.2933
L201.0295 192.3648
" />
<path d="M201.0295 192.3648
L201.1723 192.5076
" />
<path d="M201.1723 192.5076
L201.2437 192.6505
" />
<path d="M201.2437 192.6505
L201.3152 192.9362
" />
<path d="M201.3152 192.9362
L201.3152 193.1505
" />
<path d="M201.3152 193.1505
L201.2437 193.4362
" />
<path d="M201.2437 193.4362
L201.1723 193.5790
" />
<path d="M201.1723 193.5790
L201.0295 193.7219
" />
<path d="M201.0295 193.7219
L200.8152 193.7933
" />
<path d="M200.8152 193.7933
L200.4580 193.7933
" />
<path d="M202.6009 193.7933
L202.6009 193.0076
" />
<path d="M202.6009 193.0076
L202.5295 192.8648
" />
<path d="M202.5295 192.8648
L202.3866 192.7933
" />
<path d="M202.3866 192.7933
L202.1009 192.7933
" />
<path d="M202.1009 192.7933
L201.9580 192.8648
" />
<path d="M202.6009 193.7219
L202.4580 193.7933
" />
<path d="M202.4580 193.7933
L202.1009 193.7933
" />
<path d="M202.1009 193.7933
L201.9580 193.7219
" />
<path d="M201.9580 193.7219
L201.8866 193.5790
" />
<path d="M201.8866 193.5790
L201.8866 193.4362
" />
<path d="M201.8866 193.4362
L201.9580 193.2933
" />
<path d="M201.9580 193.2933
L202.1009 193.2219
" />
<path d="M202.1009 193.2219
L202.4580 193.2219
" />
<path d="M202.4580 193.2219
L202.6009 193.1505
" />
<path d="M203.1009 192.7933
L203.6723 192.7933
" />
<path d="M203.3152 192.2933
L203.3152 193.5790
" />
<path d="M203.3152 193.5790
L203.3866 193.7219
" />
<path d="M203.3866 193.7219
L203.5295 193.7933
" />
<path d="M203.5295 193.7933
L203.6723 193.7933
" />
<path d="M204.7437 193.7219
L204.6009 193.7933
" />
<path d="M204.6009 193.7933
L204.3152 193.7933
" />
<path d="M204.3152 193.7933
L204.1723 193.7219
" />
<path d="M204.1723 193.7219
L204.1009 193.5790
" />
<path d="M204.1009 193.5790
L204.1009 193.0076
" />
<path d="M204.1009 193.0076
L204.1723 192.8648
" />
<path d="M204.1723 192.8648
L204.3152 192.7933
" />
<path d="M204.3152 192.7933
L204.6009 192.7933
" />
<path d="M204.6009 192.7933
L204.7437 192.8648
" />
<path d="M204.7437 192.8648
L204.8152 193.0076
" />
<path d="M204.8152 193.0076
L204.8152 193.1505
" />
<path d="M204.8152 193.1505
L204.1009 193.2933
" />
<path d="M205.4580 193.6505
L205.5295 193.7219
" />
<path d="M205.5295 193.7219
L205.4580 193.7933
" />
<path d="M205.4580 193.7933
L205.3866 193.7219
" />
<path d="M205.3866 193.7219
L205.4580 193.6505
" />
<path d="M205.4580 193.6505
L205.4580 193.7933
" />
<path d="M205.4580 192.8648
L205.5295 192.9362
" />
<path d="M205.5295 192.9362
L205.4580 193.0076
" />
<path d="M205.4580 193.0076
L205.3866 192.9362
" />
<path d="M205.3866 192.9362
L205.4580 192.8648
" />
<path d="M205.4580 192.8648
L205.4580 193.0076
" />
</g></g>
<g style="fill:#000000; fill-opacity:0.0; 
stroke:#000000; stroke-width:0.0212; stroke-opacity:1; 
stroke-linecap:round; stroke-linejoin:round;">
</g>
<g style="fill:#000000; fill-opacity:0.0; 
stroke:#000000; stroke-width:0.1500; stroke-opacity:1; 
stroke-linecap:round; stroke-linejoin:round;">
<path d="M177.0022 194.5072
L285.0022 194.5072
" />
</g>
<g style="fill:#000000; fill-opacity:0.0; 
stroke:#000000; stroke-width:0.0212; stroke-opacity:1; 
stroke-linecap:round; stroke-linejoin:round;">
</g>
<g style="fill:#000000; fill-opacity:0.0; 
stroke:#000000; stroke-width:0.1500; stroke-opacity:1; 
stroke-linecap:round; stroke-linejoin:round;">
<text x="178.0022" y="196.6572"
textLength="29.0036" font-size="2.0000" lengthAdjust="spacingAndGlyphs"
text-anchor="start" opacity="0">KiCad E.D.A.  kicad 7.0.5</text>
<g class="stroked-text"><desc>KiCad E.D.A.  kicad 7.0.5</desc>
<path d="M178.4580 196.5933
L178.4580 195.0933
" />
<path d="M179.3152 196.5933
L178.6723 195.7362
" />
<path d="M179.3152 195.0933
L178.4580 195.9505
" />
<path d="M179.9580 196.5933
L179.9580 195.5933
" />
<path d="M179.9580 195.0933
L179.8866 195.1648
" />
<path d="M179.8866 195.1648
L179.9580 195.2362
" />
<path d="M179.9580 195.2362
L180.0295 195.1648
" />
<path d="M180.0295 195.1648
L179.9580 195.0933
" />
<path d="M179.9580 195.0933
L179.9580 195.2362
" />
<path d="M181.5295 196.4505
L181.4580 196.5219
" />
<path d="M181.4580 196.5219
L181.2437 196.5933
" />
<path d="M181.2437 196.5933
L181.1009 196.5933
" />
<path d="M181.1009 196.5933
L180.8866 196.5219
" />
<path d="M180.8866 196.5219
L180.7437 196.3790
" />
<path d="M180.7437 196.3790
L180.6723 196.2362
" />
<path d="M180.6723 196.2362
L180.6009 195.9505
" />
<path d="M180.6009 195.9505
L180.6009 195.7362
" />
<path d="M180.6009 195.7362
L180.6723 195.4505
" />
<path d="M180.6723 195.4505
L180.7437 195.3076
" />
<path d="M180.7437 195.3076
L180.8866 195.1648
" />
<path d="M180.8866 195.1648
L181.1009 195.0933
" />
<path d="M181.1009 195.0933
L181.2437 195.0933
" />
<path d="M181.2437 195.0933
L181.4580 195.1648
" />
<path d="M181.4580 195.1648
L181.5295 195.2362
" />
<path d="M182.8152 196.5933
L182.8152 195.8076
" />
<path d="M182.8152 195.8076
L182.7437 195.6648
" />
<path d="M182.7437 195.6648
L182.6009 195.5933
" />
<path d="M182.6009 195.5933
L182.3152 195.5933
" />
<path d="M182.3152 195.5933
L182.1723 195.6648
" />
<path d="M182.8152 196.5219
L182.6723 196.5933
" />
<path d="M182.6723 196.5933
L182.3152 196.5933
" />
<path d="M182.3152 196.5933
L182.1723 196.5219
" />
<path d="M182.1723 196.5219
L182.1009 196.3790
" />
<path d="M182.1009 196.3790
L182.1009 196.2362
" />
<path d="M182.1009 196.2362
L182.1723 196.0933
" />
<path d="M182.1723 196.0933
L182.3152 196.0219
" />
<path d="M182.3152 196.0219
L182.6723 196.0219
" />
<path d="M182.6723 196.0219
L182.8152 195.9505
" />
<path d="M184.1723 196.5933
L184.1723 195.0933
" />
<path d="M184.1723 196.5219
L184.0295 196.5933
" />
<path d="M184.0295 196.5933
L183.7437 196.5933
" />
<path d="M183.7437 196.5933
L183.6009 196.5219
" />
<path d="M183.6009 196.5219
L183.5295 196.4505
" />
<path d="M183.5295 196.4505
L183.4580 196.3076
" />
<path d="M183.4580 196.3076
L183.4580 195.8790
" />
<path d="M183.4580 195.8790
L183.5295 195.7362
" />
<path d="M183.5295 195.7362
L183.6009 195.6648
" />
<path d="M183.6009 195.6648
L183.7437 195.5933
" />
<path d="M183.7437 195.5933
L184.0295 195.5933
" />
<path d="M184.0295 195.5933
L184.1723 195.6648
" />
<path d="M186.0295 195.8076
L186.5295 195.8076
" />
<path d="M186.7437 196.5933
L186.0295 196.5933
" />
<path d="M186.0295 196.5933
L186.0295 195.0933
" />
<path d="M186.0295 195.0933
L186.7437 195.0933
" />
<path d="M187.3866 196.4505
L187.4580 196.5219
" />
<path d="M187.4580 196.5219
L187.3866 196.5933
" />
<path d="M187.3866 196.5933
L187.3152 196.5219
" />
<path d="M187.3152 196.5219
L187.3866 196.4505
" />
<path d="M187.3866 196.4505
L187.3866 196.5933
" />
<path d="M188.1009 196.5933
L188.1009 195.0933
" />
<path d="M188.1009 195.0933
L188.4580 195.0933
" />
<path d="M188.4580 195.0933
L188.6723 195.1648
" />
<path d="M188.6723 195.1648
L188.8152 195.3076
" />
<path d="M188.8152 195.3076
L188.8866 195.4505
" />
<path d="M188.8866 195.4505
L188.9580 195.7362
" />
<path d="M188.9580 195.7362
L188.9580 195.9505
" />
<path d="M188.9580 195.9505
L188.8866 196.2362
" />
<path d="M188.8866 196.2362
L188.8152 196.3790
" />
<path d="M188.8152 196.3790
L188.6723 196.5219
" />
<path d="M188.6723 196.5219
L188.4580 196.5933
" />
<path d="M188.4580 196.5933
L188.1009 196.5933
" />
<path d="M189.6009 196.4505
L189.6723 196.5219
" />
<path d="M189.6723 196.5219
L189.6009 196.5933
" />
<path d="M189.6009 196.5933
L189.5295 196.5219
" />
<path d="M189.5295 196.5219
L189.6009 196.4505
" />
<path d="M189.6009 196.4505
L189.6009 196.5933
" />
<path d="M190.2437 196.1648
L190.9580 196.1648
" />
<path d="M190.1009 196.5933
L190.6009 195.0933
" />
<path d="M190.6009 195.0933
L191.1009 196.5933
" />
<path d="M191.6009 196.4505
L191.6723 196.5219
" />
<path d="M191.6723 196.5219
L191.6009 196.5933
" />
<path d="M191.6009 196.5933
L191.5295 196.5219
" />
<path d="M191.5295 196.5219
L191.6009 196.4505
" />
<path d="M191.6009 196.4505
L191.6009 196.5933
" />
<path d="M194.6009 196.5933
L194.6009 195.0933
" />
<path d="M194.7437 196.0219
L195.1723 196.5933
" />
<path d="M195.1723 195.5933
L194.6009 196.1648
" />
<path d="M195.8152 196.5933
L195.8152 195.5933
" />
<path d="M195.8152 195.0933
L195.7437 195.1648
" />
<path d="M195.7437 195.1648
L195.8152 195.2362
" />
<path d="M195.8152 195.2362
L195.8866 195.1648
" />
<path d="M195.8866 195.1648
L195.8152 195.0933
" />
<path d="M195.8152 195.0933
L195.8152 195.2362
" />
<path d="M197.1723 196.5219
L197.0295 196.5933
" />
<path d="M197.0295 196.5933
L196.7437 196.5933
" />
<path d="M196.7437 196.5933
L196.6009 196.5219
" />
<path d="M196.6009 196.5219
L196.5295 196.4505
" />
<path d="M196.5295 196.4505
L196.4580 196.3076
" />
<path d="M196.4580 196.3076
L196.4580 195.8790
" />
<path d="M196.4580 195.8790
L196.5295 195.7362
" />
<path d="M196.5295 195.7362
L196.6009 195.6648
" />
<path d="M196.6009 195.6648
L196.7437 195.5933
" />
<path d="M196.7437 195.5933
L197.0295 195.5933
" />
<path d="M197.0295 195.5933
L197.1723 195.6648
" />
<path d="M198.4580 196.5933
L198.4580 195.8076
" />
<path d="M198.4580 195.8076
L198.3866 195.6648
" />
<path d="M198.3866 195.6648
L198.2437 195.5933
" />
<path d="M198.2437 195.5933
L197.9580 195.5933
" />
<path d="M197.9580 195.5933
L197.8152 195.6648
" />
<path d="M198.4580 196.5219
L198.3152 196.5933
" />
<path d="M198.3152 196.5933
L197.9580 196.5933
" />
<path d="M197.9580 196.5933
L197.8152 196.5219
" />
<path d="M197.8152 196.5219
L197.7437 196.3790
" />
<path d="M197.7437 196.3790
L197.7437 196.2362
" />
<path d="M197.7437 196.2362
L197.8152 196.0933
" />
<path d="M197.8152 196.0933
L197.9580 196.0219
" />
<path d="M197.9580 196.0219
L198.3152 196.0219
" />
<path d="M198.3152 196.0219
L198.4580 195.9505
" />
<path d="M199.8152 196.5933
L199.8152 195.0933
" />
<path d="M199.8152 196.5219
L199.6723 196.5933
" />
<path d="M199.6723 196.5933
L199.3866 196.5933
" />
<path d="M199.3866 196.5933
L199.2437 196.5219
" />
<path d="M199.2437 196.5219
L199.1723 196.4505
" />
<path d="M199.1723 196.4505
L199.1009 196.3076
" />
<path d="M199.1009 196.3076
L199.1009 195.8790
" />
<path d="M199.1009 195.8790
L199.1723 195.7362
" />
<path d="M199.1723 195.7362
L199.2437 195.6648
" />
<path d="M199.2437 195.6648
L199.3866 195.5933
" />
<path d="M199.3866 195.5933
L199.6723 195.5933
" />
<path d="M199.6723 195.5933
L199.8152 195.6648
" />
<path d="M201.5295 195.0933
L202.5295 195.0933
" />
<path d="M202.5295 195.0933
L201.8866 196.5933
" />
<path d="M203.1009 196.4505
L203.1723 196.5219
" />
<path d="M203.1723 196.5219
L203.1009 196.5933
" />
<path d="M203.1009 196.5933
L203.0295 196.5219
" />
<path d="M203.0295 196.5219
L203.1009 196.4505
" />
<path d="M203.1009 196.4505
L203.1009 196.5933
" />
<path d="M204.1009 195.0933
L204.2437 195.0933
" />
<path d="M204.2437 195.0933
L204.3866 195.1648
" />
<path d="M204.3866 195.1648
L204.4580 195.2362
" />
<path d="M204.4580 195.2362
L204.5295 195.3790
" />
<path d="M204.5295 195.3790
L204.6009 195.6648
" />
<path d="M204.6009 195.6648
L204.6009 196.0219
" />
<path d="M204.6009 196.0219
L204.5295 196.3076
" />
<path d="M204.5295 196.3076
L204.4580 196.4505
" />
<path d="M204.4580 196.4505
L204.3866 196.5219
" />
<path d="M204.3866 196.5219
L204.2437 196.5933
" />
<path d="M204.2437 196.5933
L204.1009 196.5933
" />
<path d="M204.1009 196.5933
L203.9580 196.5219
" />
<path d="M203.9580 196.5219
L203.8866 196.4505
" />
<path d="M203.8866 196.4505
L203.8152 196.3076
" />
<path d="M203.8152 196.3076
L203.7437 196.0219
" />
<path d="M203.7437 196.0219
L203.7437 195.6648
" />
<path d="M203.7437 195.6648
L203.8152 195.3790
" />
<path d="M203.8152 195.3790
L203.8866 195.2362
" />
<path d="M203.8866 195.2362
L203.9580 195.1648
" />
<path d="M203.9580 195.1648
L204.1009 195.0933
" />
<path d="M205.2437 196.4505
L205.3152 196.5219
" />
<path d="M205.3152 196.5219
L205.2437 196.5933
" />
<path d="M205.2437 196.5933
L205.1723 196.5219
" />
<path d="M205.1723 196.5219
L205.2437 196.4505
" />
<path d="M205.2437 196.4505
L205.2437 196.5933
" />
<path d="M206.6723 195.0933
L205.9580 195.0933
" />
<path d="M205.9580 195.0933
L205.8866 195.8076
" />
<path d="M205.8866 195.8076
L205.9580 195.7362
" />
<path d="M205.9580 195.7362
L206.1009 195.6648
" />
<path d="M206.1009 195.6648
L206.4580 195.6648
" />
<path d="M206.4580 195.6648
L206.6009 195.7362
" />
<path d="M206.6009 195.7362
L206.6723 195.8076
" />
<path d="M206.6723 195.8076
L206.7437 195.9505
" />
<path d="M206.7437 195.9505
L206.7437 196.3076
" />
<path d="M206.7437 196.3076
L206.6723 196.4505
" />
<path d="M206.6723 196.4505
L206.6009 196.5219
" />
<path d="M206.6009 196.5219
L206.4580 196.5933
" />
<path d="M206.4580 196.5933
L206.1009 196.5933
" />
<path d="M206.1009 196.5933
L205.9580 196.5219
" />
<path d="M205.9580 196.5219
L205.8866 196.4505
" />
</g></g>
<g style="fill:#000000; fill-opacity:0.0; 
stroke:#000000; stroke-width:0.0212; stroke-opacity:1; 
stroke-linecap:round; stroke-linejoin:round;">
</g>
<g style="fill:#000000; fill-opacity:0.0; 
stroke:#000000; stroke-width:0.1500; stroke-opacity:1; 
stroke-linecap:round; stroke-linejoin:round;">
<path d="M177.0022 191.5072
L285.0022 191.5072
" />
</g>
<g style="fill:#000000; fill-opacity:0.0; 
stroke:#000000; stroke-width:0.0212; stroke-opacity:1; 
stroke-linecap:round; stroke-linejoin:round;">
</g>
<g style="fill:#000000; fill-opacity:0.0; 
stroke:#000000; stroke-width:0.3000; stroke-opacity:1; 
stroke-linecap:round; stroke-linejoin:round;">
<text x="263.0022" y="193.8572"
textLength="6.2357" font-size="2.0000" lengthAdjust="spacingAndGlyphs"
text-anchor="start" opacity="0">Rev: </text>
<g class="stroked-text"><desc>Rev: </desc>
<path d="M264.4139 193.7855
L263.9139 193.0712
" />
<path d="M263.5567 193.7855
L263.5567 192.2855
" />
<path d="M263.5567 192.2855
L264.1281 192.2855
" />
<path d="M264.1281 192.2855
L264.2710 192.3570
" />
<path d="M264.2710 192.3570
L264.3424 192.4284
" />
<path d="M264.3424 192.4284
L264.4139 192.5712
" />
<path d="M264.4139 192.5712
L264.4139 192.7855
" />
<path d="M264.4139 192.7855
L264.3424 192.9284
" />
<path d="M264.3424 192.9284
L264.2710 192.9998
" />
<path d="M264.2710 192.9998
L264.1281 193.0712
" />
<path d="M264.1281 193.0712
L263.5567 193.0712
" />
<path d="M265.6281 193.7141
L265.4853 193.7855
" />
<path d="M265.4853 193.7855
L265.1996 193.7855
" />
<path d="M265.1996 193.7855
L265.0567 193.7141
" />
<path d="M265.0567 193.7141
L264.9853 193.5712
" />
<path d="M264.9853 193.5712
L264.9853 192.9998
" />
<path d="M264.9853 192.9998
L265.0567 192.8570
" />
<path d="M265.0567 192.8570
L265.1996 192.7855
" />
<path d="M265.1996 192.7855
L265.4853 192.7855
" />
<path d="M265.4853 192.7855
L265.6281 192.8570
" />
<path d="M265.6281 192.8570
L265.6996 192.9998
" />
<path d="M265.6996 192.9998
L265.6996 193.1427
" />
<path d="M265.6996 193.1427
L264.9853 193.2855
" />
<path d="M266.1996 192.7855
L266.5567 193.7855
" />
<path d="M266.5567 193.7855
L266.9139 192.7855
" />
<path d="M267.4853 193.6427
L267.5567 193.7141
" />
<path d="M267.5567 193.7141
L267.4853 193.7855
" />
<path d="M267.4853 193.7855
L267.4139 193.7141
" />
<path d="M267.4139 193.7141
L267.4853 193.6427
" />
<path d="M267.4853 193.6427
L267.4853 193.7855
" />
<path d="M267.4853 192.8570
L267.5567 192.9284
" />
<path d="M267.5567 192.9284
L267.4853 192.9998
" />
<path d="M267.4853 192.9998
L267.4139 192.9284
" />
<path d="M267.4139 192.9284
L267.4853 192.8570
" />
<path d="M267.4853 192.8570
L267.4853 192.9998
" />
</g></g>
<g style="fill:#000000; fill-opacity:0.0; 
stroke:#000000; stroke-width:0.0212; stroke-opacity:1; 
stroke-linecap:round; stroke-linejoin:round;">
</g>
<g style="fill:#000000; fill-opacity:0.0; 
stroke:#000000; stroke-width:0.1500; stroke-opacity:1; 
stroke-linecap:round; stroke-linejoin:round;">
<text x="178.0022" y="193.8572"
textLength="9.2893" font-size="2.0000" lengthAdjust="spacingAndGlyphs"
text-anchor="start" opacity="0">Size: A4</text>
<g class="stroked-text"><desc>Size: A4</desc>
<path d="M178.3866 193.7219
L178.6009 193.7933
" />
<path d="M178.6009 193.7933
L178.9580 193.7933
" />
<path d="M178.9580 193.7933
L179.1009 193.7219
" />
<path d="M179.1009 193.7219
L179.1723 193.6505
" />
<path d="M179.1723 193.6505
L179.2437 193.5076
" />
<path d="M179.2437 193.5076
L179.2437 193.3648
" />
<path d="M179.2437 193.3648
L179.1723 193.2219
" />
<path d="M179.1723 193.2219
L179.1009 193.1505
" />
<path d="M179.1009 193.1505
L178.9580 193.0790
" />
<path d="M178.9580 193.0790
L178.6723 193.0076
" />
<path d="M178.6723 193.0076
L178.5295 192.9362
" />
<path d="M178.5295 192.9362
L178.4580 192.8648
" />
<path d="M178.4580 192.8648
L178.3866 192.7219
" />
<path d="M178.3866 192.7219
L178.3866 192.5790
" />
<path d="M178.3866 192.5790
L178.4580 192.4362
" />
<path d="M178.4580 192.4362
L178.5295 192.3648
" />
<path d="M178.5295 192.3648
L178.6723 192.2933
" />
<path d="M178.6723 192.2933
L179.0295 192.2933
" />
<path d="M179.0295 192.2933
L179.2437 192.3648
" />
<path d="M179.8866 193.7933
L179.8866 192.7933
" />
<path d="M179.8866 192.2933
L179.8152 192.3648
" />
<path d="M179.8152 192.3648
L179.8866 192.4362
" />
<path d="M179.8866 192.4362
L179.9580 192.3648
" />
<path d="M179.9580 192.3648
L179.8866 192.2933
" />
<path d="M179.8866 192.2933
L179.8866 192.4362
" />
<path d="M180.4580 192.7933
L181.2437 192.7933
" />
<path d="M181.2437 192.7933
L180.4580 193.7933
" />
<path d="M180.4580 193.7933
L181.2437 193.7933
" />
<path d="M182.3866 193.7219
L182.2437 193.7933
" />
<path d="M182.2437 193.7933
L181.9580 193.7933
" />
<path d="M181.9580 193.7933
L181.8152 193.7219
" />
<path d="M181.8152 193.7219
L181.7437 193.5790
" />
<path d="M181.7437 193.5790
L181.7437 193.0076
" />
<path d="M181.7437 193.0076
L181.8152 192.8648
" />
<path d="M181.8152 192.8648
L181.9580 192.7933
" />
<path d="M181.9580 192.7933
L182.2437 192.7933
" />
<path d="M182.2437 192.7933
L182.3866 192.8648
" />
<path d="M182.3866 192.8648
L182.4580 193.0076
" />
<path d="M182.4580 193.0076
L182.4580 193.1505
" />
<path d="M182.4580 193.1505
L181.7437 193.2933
" />
<path d="M183.1009 193.6505
L183.1723 193.7219
" />
<path d="M183.1723 193.7219
L183.1009 193.7933
" />
<path d="M183.1009 193.7933
L183.0295 193.7219
" />
<path d="M183.0295 193.7219
L183.1009 193.6505
" />
<path d="M183.1009 193.6505
L183.1009 193.7933
" />
<path d="M183.1009 192.8648
L183.1723 192.9362
" />
<path d="M183.1723 192.9362
L183.1009 193.0076
" />
<path d="M183.1009 193.0076
L183.0295 192.9362
" />
<path d="M183.0295 192.9362
L183.1009 192.8648
" />
<path d="M183.1009 192.8648
L183.1009 193.0076
" />
<path d="M184.8866 193.3648
L185.6009 193.3648
" />
<path d="M184.7437 193.7933
L185.2437 192.2933
" />
<path d="M185.2437 192.2933
L185.7437 193.7933
" />
<path d="M186.8866 192.7933
L186.8866 193.7933
" />
<path d="M186.5295 192.2219
L186.1723 193.2933
" />
<path d="M186.1723 193.2933
L187.1009 193.2933
" />
</g></g>
<g style="fill:#000000; fill-opacity:0.0; 
stroke:#000000; stroke-width:0.0212; stroke-opacity:1; 
stroke-linecap:round; stroke-linejoin:round;">
</g>
<g style="fill:#000000; fill-opacity:0.0; 
stroke:#000000; stroke-width:0.1500; stroke-opacity:1; 
stroke-linecap:round; stroke-linejoin:round;">
<text x="263.0022" y="196.6572"
textLength="8.4321" font-size="2.0000" lengthAdjust="spacingAndGlyphs"
text-anchor="start" opacity="0">Id: 1/1</text>
<g class="stroked-text"><desc>Id: 1/1</desc>
<path d="M263.4580 196.5933
L263.4580 195.0933
" />
<path d="M264.8152 196.5933
L264.8152 195.0933
" />
<path d="M264.8152 196.5219
L264.6723 196.5933
" />
<path d="M264.6723 196.5933
L264.3866 196.5933
" />
<path d="M264.3866 196.5933
L264.2437 196.5219
" />
<path d="M264.2437 196.5219
L264.1723 196.4505
" />
<path d="M264.1723 196.4505
L264.1009 196.3076
" />
<path d="M264.1009 196.3076
L264.1009 195.8790
" />
<path d="M264.1009 195.8790
L264.1723 195.7362
" />
<path d="M264.1723 195.7362
L264.2437 195.6648
" />
<path d="M264.2437 195.6648
L264.3866 195.5933
" />
<path d="M264.3866 195.5933
L264.6723 195.5933
" />
<path d="M264.6723 195.5933
L264.8152 195.6648
" />
<path d="M265.5295 196.4505
L265.6009 196.5219
" />
<path d="M265.6009 196.5219
L265.5295 196.5933
" />
<path d="M265.5295 196.5933
L265.4580 196.5219
" />
<path d="M265.4580 196.5219
L265.5295 196.4505
" />
<path d="M265.5295 196.4505
L265.5295 196.5933
" />
<path d="M265.5295 195.6648
L265.6009 195.7362
" />
<path d="M265.6009 195.7362
L265.5295 195.8076
" />
<path d="M265.5295 195.8076
L265.4580 195.7362
" />
<path d="M265.4580 195.7362
L265.5295 195.6648
" />
<path d="M265.5295 195.6648
L265.5295 195.8076
" />
<path d="M268.1723 196.5933
L267.3152 196.5933
" />
<path d="M267.7437 196.5933
L267.7437 195.0933
" />
<path d="M267.7437 195.0933
L267.6009 195.3076
" />
<path d="M267.6009 195.3076
L267.4580 195.4505
" />
<path d="M267.4580 195.4505
L267.3152 195.5219
" />
<path d="M269.8866 195.0219
L268.6009 196.9505
" />
<path d="M271.1723 196.5933
L270.3152 196.5933
" />
<path d="M270.7437 196.5933
L270.7437 195.0933
" />
<path d="M270.7437 195.0933
L270.6009 195.3076
" />
<path d="M270.6009 195.3076
L270.4580 195.4505
" />
<path d="M270.4580 195.4505
L270.3152 195.5219
" />
</g></g>
<g style="fill:#000000; fill-opacity:0.0; 
stroke:#000000; stroke-width:0.0212; stroke-opacity:1; 
stroke-linecap:round; stroke-linejoin:round;">
</g>
<g style="fill:#000000; fill-opacity:0.0; 
stroke:#000000; stroke-width:0.1500; stroke-opacity:1; 
stroke-linecap:round; stroke-linejoin:round;">
<path d="M177.0022 187.5072
L285.0022 187.5072
" />
</g>
<g style="fill:#000000; fill-opacity:0.0; 
stroke:#000000; stroke-width:0.0212; stroke-opacity:1; 
stroke-linecap:round; stroke-linejoin:round;">
</g>
<g style="fill:#000000; fill-opacity:0.0; 
stroke:#000000; stroke-width:0.4000; stroke-opacity:1; 
stroke-linecap:round; stroke-linejoin:round;">
<text x="178.0022" y="190.3072"
textLength="9.4571" font-size="2.6667" lengthAdjust="spacingAndGlyphs"
text-anchor="start" opacity="0">Title: </text>
<g class="stroked-text"><desc>Title: </desc>
<path d="M178.6939 188.2116
L179.8368 188.2116
" />
<path d="M179.0154 190.2116
L179.2654 188.2116
" />
<path d="M180.2535 190.2116
L180.4201 188.8783
" />
<path d="M180.5035 188.2116
L180.3963 188.3069
" />
<path d="M180.3963 188.3069
L180.4796 188.4021
" />
<path d="M180.4796 188.4021
L180.5868 188.3069
" />
<path d="M180.5868 188.3069
L180.5035 188.2116
" />
<path d="M180.5035 188.2116
L180.4796 188.4021
" />
<path d="M181.0868 188.8783
L181.8487 188.8783
" />
<path d="M181.4558 188.2116
L181.2415 189.9259
" />
<path d="M181.2415 189.9259
L181.3130 190.1164
" />
<path d="M181.3130 190.1164
L181.4915 190.2116
" />
<path d="M181.4915 190.2116
L181.6820 190.2116
" />
<path d="M182.6344 190.2116
L182.4558 190.1164
" />
<path d="M182.4558 190.1164
L182.3844 189.9259
" />
<path d="M182.3844 189.9259
L182.5987 188.2116
" />
<path d="M184.1701 190.1164
L183.9677 190.2116
" />
<path d="M183.9677 190.2116
L183.5868 190.2116
" />
<path d="M183.5868 190.2116
L183.4082 190.1164
" />
<path d="M183.4082 190.1164
L183.3368 189.9259
" />
<path d="M183.3368 189.9259
L183.4320 189.1640
" />
<path d="M183.4320 189.1640
L183.5511 188.9735
" />
<path d="M183.5511 188.9735
L183.7535 188.8783
" />
<path d="M183.7535 188.8783
L184.1344 188.8783
" />
<path d="M184.1344 188.8783
L184.3130 188.9735
" />
<path d="M184.3130 188.9735
L184.3844 189.1640
" />
<path d="M184.3844 189.1640
L184.3606 189.3545
" />
<path d="M184.3606 189.3545
L183.3844 189.5450
" />
<path d="M185.1344 190.0212
L185.2177 190.1164
" />
<path d="M185.2177 190.1164
L185.1106 190.2116
" />
<path d="M185.1106 190.2116
L185.0273 190.1164
" />
<path d="M185.0273 190.1164
L185.1344 190.0212
" />
<path d="M185.1344 190.0212
L185.1106 190.2116
" />
<path d="M185.2654 188.9735
L185.3487 189.0688
" />
<path d="M185.3487 189.0688
L185.2415 189.1640
" />
<path d="M185.2415 189.1640
L185.1582 189.0688
" />
<path d="M185.1582 189.0688
L185.2654 188.9735
" />
<path d="M185.2654 188.9735
L185.2415 189.1640
" />
</g></g>
<g style="fill:#000000; fill-opacity:0.0; 
stroke:#000000; stroke-width:0.0212; stroke-opacity:1; 
stroke-linecap:round; stroke-linejoin:round;">
</g>
<g style="fill:#000000; fill-opacity:0.0; 
stroke:#000000; stroke-width:0.1500; stroke-opacity:1; 
stroke-linecap:round; stroke-linejoin:round;">
<text x="178.0022" y="186.4572"
textLength="25.5036" font-size="2.0000" lengthAdjust="spacingAndGlyphs"
text-anchor="start" opacity="0">File: lyra r1.kicad_pcb</text>
<g class="stroked-text"><desc>File: lyra r1.kicad_pcb</desc>
<path d="M178.9580 185.6076
L178.4580 185.6076
" />
<path d="M178.4580 186.3933
L178.4580 184.8933
" />
<path d="M178.4580 184.8933
L179.1723 184.8933
" />
<path d="M179.7437 186.3933
L179.7437 185.3933
" />
<path d="M179.7437 184.8933
L179.6723 184.9648
" />
<path d="M179.6723 184.9648
L179.7437 185.0362
" />
<path d="M179.7437 185.0362
L179.8152 184.9648
" />
<path d="M179.8152 184.9648
L179.7437 184.8933
" />
<path d="M179.7437 184.8933
L179.7437 185.0362
" />
<path d="M180.6723 186.3933
L180.5295 186.3219
" />
<path d="M180.5295 186.3219
L180.4580 186.1790
" />
<path d="M180.4580 186.1790
L180.4580 184.8933
" />
<path d="M181.8152 186.3219
L181.6723 186.3933
" />
<path d="M181.6723 186.3933
L181.3866 186.3933
" />
<path d="M181.3866 186.3933
L181.2437 186.3219
" />
<path d="M181.2437 186.3219
L181.1723 186.1790
" />
<path d="M181.1723 186.1790
L181.1723 185.6076
" />
<path d="M181.1723 185.6076
L181.2437 185.4648
" />
<path d="M181.2437 185.4648
L181.3866 185.3933
" />
<path d="M181.3866 185.3933
L181.6723 185.3933
" />
<path d="M181.6723 185.3933
L181.8152 185.4648
" />
<path d="M181.8152 185.4648
L181.8866 185.6076
" />
<path d="M181.8866 185.6076
L181.8866 185.7505
" />
<path d="M181.8866 185.7505
L181.1723 185.8933
" />
<path d="M182.5295 186.2505
L182.6009 186.3219
" />
<path d="M182.6009 186.3219
L182.5295 186.3933
" />
<path d="M182.5295 186.3933
L182.4580 186.3219
" />
<path d="M182.4580 186.3219
L182.5295 186.2505
" />
<path d="M182.5295 186.2505
L182.5295 186.3933
" />
<path d="M182.5295 185.4648
L182.6009 185.5362
" />
<path d="M182.6009 185.5362
L182.5295 185.6076
" />
<path d="M182.5295 185.6076
L182.4580 185.5362
" />
<path d="M182.4580 185.5362
L182.5295 185.4648
" />
<path d="M182.5295 185.4648
L182.5295 185.6076
" />
<path d="M184.6009 186.3933
L184.4580 186.3219
" />
<path d="M184.4580 186.3219
L184.3866 186.1790
" />
<path d="M184.3866 186.1790
L184.3866 184.8933
" />
<path d="M185.0295 185.3933
L185.3866 186.3933
" />
<path d="M185.7437 185.3933
L185.3866 186.3933
" />
<path d="M185.3866 186.3933
L185.2437 186.7505
" />
<path d="M185.2437 186.7505
L185.1723 186.8219
" />
<path d="M185.1723 186.8219
L185.0295 186.8933
" />
<path d="M186.3152 186.3933
L186.3152 185.3933
" />
<path d="M186.3152 185.6790
L186.3866 185.5362
" />
<path d="M186.3866 185.5362
L186.4580 185.4648
" />
<path d="M186.4580 185.4648
L186.6009 185.3933
" />
<path d="M186.6009 185.3933
L186.7437 185.3933
" />
<path d="M187.8866 186.3933
L187.8866 185.6076
" />
<path d="M187.8866 185.6076
L187.8152 185.4648
" />
<path d="M187.8152 185.4648
L187.6723 185.3933
" />
<path d="M187.6723 185.3933
L187.3866 185.3933
" />
<path d="M187.3866 185.3933
L187.2437 185.4648
" />
<path d="M187.8866 186.3219
L187.7437 186.3933
" />
<path d="M187.7437 186.3933
L187.3866 186.3933
" />
<path d="M187.3866 186.3933
L187.2437 186.3219
" />
<path d="M187.2437 186.3219
L187.1723 186.1790
" />
<path d="M187.1723 186.1790
L187.1723 186.0362
" />
<path d="M187.1723 186.0362
L187.2437 185.8933
" />
<path d="M187.2437 185.8933
L187.3866 185.8219
" />
<path d="M187.3866 185.8219
L187.7437 185.8219
" />
<path d="M187.7437 185.8219
L187.8866 185.7505
" />
<path d="M189.7437 186.3933
L189.7437 185.3933
" />
<path d="M189.7437 185.6790
L189.8152 185.5362
" />
<path d="M189.8152 185.5362
L189.8866 185.4648
" />
<path d="M189.8866 185.4648
L190.0295 185.3933
" />
<path d="M190.0295 185.3933
L190.1723 185.3933
" />
<path d="M191.4580 186.3933
L190.6009 186.3933
" />
<path d="M191.0295 186.3933
L191.0295 184.8933
" />
<path d="M191.0295 184.8933
L190.8866 185.1076
" />
<path d="M190.8866 185.1076
L190.7437 185.2505
" />
<path d="M190.7437 185.2505
L190.6009 185.3219
" />
<path d="M192.1009 186.2505
L192.1723 186.3219
" />
<path d="M192.1723 186.3219
L192.1009 186.3933
" />
<path d="M192.1009 186.3933
L192.0295 186.3219
" />
<path d="M192.0295 186.3219
L192.1009 186.2505
" />
<path d="M192.1009 186.2505
L192.1009 186.3933
" />
<path d="M192.8152 186.3933
L192.8152 184.8933
" />
<path d="M192.9580 185.8219
L193.3866 186.3933
" />
<path d="M193.3866 185.3933
L192.8152 185.9648
" />
<path d="M194.0295 186.3933
L194.0295 185.3933
" />
<path d="M194.0295 184.8933
L193.9580 184.9648
" />
<path d="M193.9580 184.9648
L194.0295 185.0362
" />
<path d="M194.0295 185.0362
L194.1009 184.9648
" />
<path d="M194.1009 184.9648
L194.0295 184.8933
" />
<path d="M194.0295 184.8933
L194.0295 185.0362
" />
<path d="M195.3866 186.3219
L195.2437 186.3933
" />
<path d="M195.2437 186.3933
L194.9580 186.3933
" />
<path d="M194.9580 186.3933
L194.8152 186.3219
" />
<path d="M194.8152 186.3219
L194.7437 186.2505
" />
<path d="M194.7437 186.2505
L194.6723 186.1076
" />
<path d="M194.6723 186.1076
L194.6723 185.6790
" />
<path d="M194.6723 185.6790
L194.7437 185.5362
" />
<path d="M194.7437 185.5362
L194.8152 185.4648
" />
<path d="M194.8152 185.4648
L194.9580 185.3933
" />
<path d="M194.9580 185.3933
L195.2437 185.3933
" />
<path d="M195.2437 185.3933
L195.3866 185.4648
" />
<path d="M196.6723 186.3933
L196.6723 185.6076
" />
<path d="M196.6723 185.6076
L196.6009 185.4648
" />
<path d="M196.6009 185.4648
L196.4580 185.3933
" />
<path d="M196.4580 185.3933
L196.1723 185.3933
" />
<path d="M196.1723 185.3933
L196.0295 185.4648
" />
<path d="M196.6723 186.3219
L196.5295 186.3933
" />
<path d="M196.5295 186.3933
L196.1723 186.3933
" />
<path d="M196.1723 186.3933
L196.0295 186.3219
" />
<path d="M196.0295 186.3219
L195.9580 186.1790
" />
<path d="M195.9580 186.1790
L195.9580 186.0362
" />
<path d="M195.9580 186.0362
L196.0295 185.8933
" />
<path d="M196.0295 185.8933
L196.1723 185.8219
" />
<path d="M196.1723 185.8219
L196.5295 185.8219
" />
<path d="M196.5295 185.8219
L196.6723 185.7505
" />
<path d="M198.0295 186.3933
L198.0295 184.8933
" />
<path d="M198.0295 186.3219
L197.8866 186.3933
" />
<path d="M197.8866 186.3933
L197.6009 186.3933
" />
<path d="M197.6009 186.3933
L197.4580 186.3219
" />
<path d="M197.4580 186.3219
L197.3866 186.2505
" />
<path d="M197.3866 186.2505
L197.3152 186.1076
" />
<path d="M197.3152 186.1076
L197.3152 185.6790
" />
<path d="M197.3152 185.6790
L197.3866 185.5362
" />
<path d="M197.3866 185.5362
L197.4580 185.4648
" />
<path d="M197.4580 185.4648
L197.6009 185.3933
" />
<path d="M197.6009 185.3933
L197.8866 185.3933
" />
<path d="M197.8866 185.3933
L198.0295 185.4648
" />
<path d="M198.3866 186.5362
L199.5295 186.5362
" />
<path d="M199.8866 185.3933
L199.8866 186.8933
" />
<path d="M199.8866 185.4648
L200.0295 185.3933
" />
<path d="M200.0295 185.3933
L200.3152 185.3933
" />
<path d="M200.3152 185.3933
L200.4580 185.4648
" />
<path d="M200.4580 185.4648
L200.5295 185.5362
" />
<path d="M200.5295 185.5362
L200.6009 185.6790
" />
<path d="M200.6009 185.6790
L200.6009 186.1076
" />
<path d="M200.6009 186.1076
L200.5295 186.2505
" />
<path d="M200.5295 186.2505
L200.4580 186.3219
" />
<path d="M200.4580 186.3219
L200.3152 186.3933
" />
<path d="M200.3152 186.3933
L200.0295 186.3933
" />
<path d="M200.0295 186.3933
L199.8866 186.3219
" />
<path d="M201.8866 186.3219
L201.7437 186.3933
" />
<path d="M201.7437 186.3933
L201.4580 186.3933
" />
<path d="M201.4580 186.3933
L201.3152 186.3219
" />
<path d="M201.3152 186.3219
L201.2437 186.2505
" />
<path d="M201.2437 186.2505
L201.1723 186.1076
" />
<path d="M201.1723 186.1076
L201.1723 185.6790
" />
<path d="M201.1723 185.6790
L201.2437 185.5362
" />
<path d="M201.2437 185.5362
L201.3152 185.4648
" />
<path d="M201.3152 185.4648
L201.4580 185.3933
" />
<path d="M201.4580 185.3933
L201.7437 185.3933
" />
<path d="M201.7437 185.3933
L201.8866 185.4648
" />
<path d="M202.5295 186.3933
L202.5295 184.8933
" />
<path d="M202.5295 185.4648
L202.6723 185.3933
" />
<path d="M202.6723 185.3933
L202.9580 185.3933
" />
<path d="M202.9580 185.3933
L203.1009 185.4648
" />
<path d="M203.1009 185.4648
L203.1723 185.5362
" />
<path d="M203.1723 185.5362
L203.2437 185.6790
" />
<path d="M203.2437 185.6790
L203.2437 186.1076
" />
<path d="M203.2437 186.1076
L203.1723 186.2505
" />
<path d="M203.1723 186.2505
L203.1009 186.3219
" />
<path d="M203.1009 186.3219
L202.9580 186.3933
" />
<path d="M202.9580 186.3933
L202.6723 186.3933
" />
<path d="M202.6723 186.3933
L202.5295 186.3219
" />
</g></g>
<g style="fill:#000000; fill-opacity:0.0; 
stroke:#000000; stroke-width:0.0212; stroke-opacity:1; 
stroke-linecap:round; stroke-linejoin:round;">
</g>
<g style="fill:#000000; fill-opacity:0.0; 
stroke:#000000; stroke-width:0.1500; stroke-opacity:1; 
stroke-linecap:round; stroke-linejoin:round;">
<path d="M177.0022 181.5072
L285.0022 181.5072
" />
</g>
<g style="fill:#000000; fill-opacity:0.0; 
stroke:#000000; stroke-width:0.0212; stroke-opacity:1; 
stroke-linecap:round; stroke-linejoin:round;">
</g>
<g style="fill:#000000; fill-opacity:0.0; 
stroke:#000000; stroke-width:0.1500; stroke-opacity:1; 
stroke-linecap:round; stroke-linejoin:round;">
<text x="178.0022" y="183.7572"
textLength="8.1464" font-size="2.0000" lengthAdjust="spacingAndGlyphs"
text-anchor="start" opacity="0">Sheet: </text>
<g class="stroked-text"><desc>Sheet: </desc>
<path d="M178.3866 183.6219
L178.6009 183.6933
" />
<path d="M178.6009 183.6933
L178.9580 183.6933
" />
<path d="M178.9580 183.6933
L179.1009 183.6219
" />
<path d="M179.1009 183.6219
L179.1723 183.5505
" />
<path d="M179.1723 183.5505
L179.2437 183.4076
" />
<path d="M179.2437 183.4076
L179.2437 183.2648
" />
<path d="M179.2437 183.2648
L179.1723 183.1219
" />
<path d="M179.1723 183.1219
L179.1009 183.0505
" />
<path d="M179.1009 183.0505
L178.9580 182.9790
" />
<path d="M178.9580 182.9790
L178.6723 182.9076
" />
<path d="M178.6723 182.9076
L178.5295 182.8362
" />
<path d="M178.5295 182.8362
L178.4580 182.7648
" />
<path d="M178.4580 182.7648
L178.3866 182.6219
" />
<path d="M178.3866 182.6219
L178.3866 182.4790
" />
<path d="M178.3866 182.4790
L178.4580 182.3362
" />
<path d="M178.4580 182.3362
L178.5295 182.2648
" />
<path d="M178.5295 182.2648
L178.6723 182.1933
" />
<path d="M178.6723 182.1933
L179.0295 182.1933
" />
<path d="M179.0295 182.1933
L179.2437 182.2648
" />
<path d="M179.8866 183.6933
L179.8866 182.1933
" />
<path d="M180.5295 183.6933
L180.5295 182.9076
" />
<path d="M180.5295 182.9076
L180.4580 182.7648
" />
<path d="M180.4580 182.7648
L180.3152 182.6933
" />
<path d="M180.3152 182.6933
L180.1009 182.6933
" />
<path d="M180.1009 182.6933
L179.9580 182.7648
" />
<path d="M179.9580 182.7648
L179.8866 182.8362
" />
<path d="M181.8152 183.6219
L181.6723 183.6933
" />
<path d="M181.6723 183.6933
L181.3866 183.6933
" />
<path d="M181.3866 183.6933
L181.2437 183.6219
" />
<path d="M181.2437 183.6219
L181.1723 183.4790
" />
<path d="M181.1723 183.4790
L181.1723 182.9076
" />
<path d="M181.1723 182.9076
L181.2437 182.7648
" />
<path d="M181.2437 182.7648
L181.3866 182.6933
" />
<path d="M181.3866 182.6933
L181.6723 182.6933
" />
<path d="M181.6723 182.6933
L181.8152 182.7648
" />
<path d="M181.8152 182.7648
L181.8866 182.9076
" />
<path d="M181.8866 182.9076
L181.8866 183.0505
" />
<path d="M181.8866 183.0505
L181.1723 183.1933
" />
<path d="M183.1009 183.6219
L182.9580 183.6933
" />
<path d="M182.9580 183.6933
L182.6723 183.6933
" />
<path d="M182.6723 183.6933
L182.5295 183.6219
" />
<path d="M182.5295 183.6219
L182.4580 183.4790
" />
<path d="M182.4580 183.4790
L182.4580 182.9076
" />
<path d="M182.4580 182.9076
L182.5295 182.7648
" />
<path d="M182.5295 182.7648
L182.6723 182.6933
" />
<path d="M182.6723 182.6933
L182.9580 182.6933
" />
<path d="M182.9580 182.6933
L183.1009 182.7648
" />
<path d="M183.1009 182.7648
L183.1723 182.9076
" />
<path d="M183.1723 182.9076
L183.1723 183.0505
" />
<path d="M183.1723 183.0505
L182.4580 183.1933
" />
<path d="M183.6009 182.6933
L184.1723 182.6933
" />
<path d="M183.8152 182.1933
L183.8152 183.4790
" />
<path d="M183.8152 183.4790
L183.8866 183.6219
" />
<path d="M183.8866 183.6219
L184.0295 183.6933
" />
<path d="M184.0295 183.6933
L184.1723 183.6933
" />
<path d="M184.6723 183.5505
L184.7437 183.6219
" />
<path d="M184.7437 183.6219
L184.6723 183.6933
" />
<path d="M184.6723 183.6933
L184.6009 183.6219
" />
<path d="M184.6009 183.6219
L184.6723 183.5505
" />
<path d="M184.6723 183.5505
L184.6723 183.6933
" />
<path d="M184.6723 182.7648
L184.7437 182.8362
" />
<path d="M184.7437 182.8362
L184.6723 182.9076
" />
<path d="M184.6723 182.9076
L184.6009 182.8362
" />
<path d="M184.6009 182.8362
L184.6723 182.7648
" />
<path d="M184.6723 182.7648
L184.6723 182.9076
" />
</g></g>
<g style="fill:#000000; fill-opacity:0.0; 
stroke:#000000; stroke-width:0.0212; stroke-opacity:1; 
stroke-linecap:round; stroke-linejoin:round;">
</g>
<g style="fill:#000000; fill-opacity:0.0; 
stroke:#000000; stroke-width:0.3000; stroke-opacity:1; 
stroke-linecap:round; stroke-linejoin:round;">
<text x="178.0022" y="180.7572"
textLength="0.7500" font-size="2.0000" lengthAdjust="spacingAndGlyphs"
text-anchor="start" opacity="0"></text>
<g class="stroked-text"><desc></desc>
</g></g>
<g style="fill:#000000; fill-opacity:0.0; 
stroke:#000000; stroke-width:0.0212; stroke-opacity:1; 
stroke-linecap:round; stroke-linejoin:round;">
</g>
<g style="fill:#000000; fill-opacity:0.0; 
stroke:#000000; stroke-width:0.1500; stroke-opacity:1; 
stroke-linecap:round; stroke-linejoin:round;">
<text x="178.0022" y="177.7572"
textLength="0.3750" font-size="2.0000" lengthAdjust="spacingAndGlyphs"
text-anchor="start" opacity="0"></text>
<g class="stroked-text"><desc></desc>
</g></g>
<g style="fill:#000000; fill-opacity:0.0; 
stroke:#000000; stroke-width:0.0212; stroke-opacity:1; 
stroke-linecap:round; stroke-linejoin:round;">
</g>
<g style="fill:#000000; fill-opacity:0.0; 
stroke:#000000; stroke-width:0.1500; stroke-opacity:1; 
stroke-linecap:round; stroke-linejoin:round;">
<text x="178.0022" y="174.7572"
textLength="0.3750" font-size="2.0000" lengthAdjust="spacingAndGlyphs"
text-anchor="start" opacity="0"></text>
<g class="stroked-text"><desc></desc>
</g></g>
<g style="fill:#000000; fill-opacity:0.0; 
stroke:#000000; stroke-width:0.0212; stroke-opacity:1; 
stroke-linecap:round; stroke-linejoin:round;">
</g>
<g style="fill:#000000; fill-opacity:0.0; 
stroke:#000000; stroke-width:0.1500; stroke-opacity:1; 
stroke-linecap:round; stroke-linejoin:round;">
<text x="178.0022" y="171.7572"
textLength="0.3750" font-size="2.0000" lengthAdjust="spacingAndGlyphs"
text-anchor="start" opacity="0"></text>
<g class="stroked-text"><desc></desc>
</g></g>
<g style="fill:#000000; fill-opacity:0.0; 
stroke:#000000; stroke-width:0.0212; stroke-opacity:1; 
stroke-linecap:round; stroke-linejoin:round;">
</g>
<g style="fill:#000000; fill-opacity:0.0; 
stroke:#000000; stroke-width:0.1500; stroke-opacity:1; 
stroke-linecap:round; stroke-linejoin:round;">
<text x="178.0022" y="168.7572"
textLength="0.3750" font-size="2.0000" lengthAdjust="spacingAndGlyphs"
text-anchor="start" opacity="0"></text>
<g class="stroked-text"><desc></desc>
</g></g>
<g style="fill:#000000; fill-opacity:0.0; 
stroke:#000000; stroke-width:0.0212; stroke-opacity:1; 
stroke-linecap:round; stroke-linejoin:round;">
</g>
<g style="fill:#000000; fill-opacity:0.0; 
stroke:#000000; stroke-width:0.1500; stroke-opacity:1; 
stroke-linecap:round; stroke-linejoin:round;">
<path d="M197.0022 191.5072
L197.0022 194.5072
" />
</g>
<g style="fill:#000000; fill-opacity:0.0; 
stroke:#000000; stroke-width:0.0212; stroke-opacity:1; 
stroke-linecap:round; stroke-linejoin:round;">
</g>
<g style="fill:#000000; fill-opacity:0.0; 
stroke:#000000; stroke-width:0.1500; stroke-opacity:1; 
stroke-linecap:round; stroke-linejoin:round;">
<path d="M261.0022 191.5072
L261.0022 198.0072
" />
</g>
<g style="fill:#F2EDA1; fill-opacity:0.0; 
stroke:#F2EDA1; stroke-width:0.1500; stroke-opacity:1; 
stroke-linecap:round; stroke-linejoin:round;">
</g>
<g style="fill:#F2EDA1; fill-opacity:0.0; 
stroke:#F2EDA1; stroke-width:0.5000; stroke-opacity:1; 
stroke-linecap:round; stroke-linejoin:round;">
<text x="142.7480" y="93.2140"
textLength="11.2214" font-size="4.0000" lengthAdjust="spacingAndGlyphs"
text-anchor="middle" opacity="0">LYRA</text>
<g class="stroked-text"><desc>LYRA</desc>
<path d="M139.6051 92.8209
L138.1766 92.8209
" />
<path d="M138.1766 92.8209
L138.1766 89.8209
" />
<path d="M141.1766 91.3923
L141.1766 92.8209
" />
<path d="M140.1766 89.8209
L141.1766 91.3923
" />
<path d="M141.1766 91.3923
L142.1766 89.8209
" />
<path d="M144.8909 92.8209
L143.8909 91.3923
" />
<path d="M143.1766 92.8209
L143.1766 89.8209
" />
<path d="M143.1766 89.8209
L144.3194 89.8209
" />
<path d="M144.3194 89.8209
L144.6051 89.9637
" />
<path d="M144.6051 89.9637
L144.7480 90.1066
" />
<path d="M144.7480 90.1066
L144.8909 90.3923
" />
<path d="M144.8909 90.3923
L144.8909 90.8209
" />
<path d="M144.8909 90.8209
L144.7480 91.1066
" />
<path d="M144.7480 91.1066
L144.6051 91.2494
" />
<path d="M144.6051 91.2494
L144.3194 91.3923
" />
<path d="M144.3194 91.3923
L143.1766 91.3923
" />
<path d="M146.0337 91.9637
L147.4623 91.9637
" />
<path d="M145.7480 92.8209
L146.7480 89.8209
" />
<path d="M146.7480 89.8209
L147.7480 92.8209
" />
</g><text x="142.7480" y="98.0440"
textLength="6.5071" font-size="4.0000" lengthAdjust="spacingAndGlyphs"
text-anchor="middle" opacity="0">R1</text>
<g class="stroked-text"><desc>R1</desc>
<path d="M142.2480 97.6509
L141.2480 96.2223
" />
<path d="M140.5337 97.6509
L140.5337 94.6509
" />
<path d="M140.5337 94.6509
L141.6766 94.6509
" />
<path d="M141.6766 94.6509
L141.9623 94.7937
" />
<path d="M141.9623 94.7937
L142.1051 94.9366
" />
<path d="M142.1051 94.9366
L142.2480 95.2223
" />
<path d="M142.2480 95.2223
L142.2480 95.6509
" />
<path d="M142.2480 95.6509
L142.1051 95.9366
" />
<path d="M142.1051 95.9366
L141.9623 96.0794
" />
<path d="M141.9623 96.0794
L141.6766 96.2223
" />
<path d="M141.6766 96.2223
L140.5337 96.2223
" />
<path d="M145.1051 97.6509
L143.3909 97.6509
" />
<path d="M144.2480 97.6509
L144.2480 94.6509
" />
<path d="M144.2480 94.6509
L143.9623 95.0794
" />
<path d="M143.9623 95.0794
L143.6766 95.3651
" />
<path d="M143.6766 95.3651
L143.3909 95.5080
" />
</g></g>
<g style="fill:#F2EDA1; fill-opacity:0.0; 
stroke:#F2EDA1; stroke-width:0.2500; stroke-opacity:1; 
stroke-linecap:round; stroke-linejoin:round;">
<text x="140.0810" y="84.9180"
textLength="3.1869" font-size="1.3333" lengthAdjust="spacingAndGlyphs"
text-anchor="start" opacity="0">3V3</text>
<g class="stroked-text"><desc>3V3</desc>
<path d="M140.3883 83.7826
L141.0074 83.7826
" />
<path d="M141.0074 83.7826
L140.6740 84.1636
" />
<path d="M140.6740 84.1636
L140.8169 84.1636
" />
<path d="M140.8169 84.1636
L140.9121 84.2112
" />
<path d="M140.9121 84.2112
L140.9598 84.2588
" />
<path d="M140.9598 84.2588
L141.0074 84.3540
" />
<path d="M141.0074 84.3540
L141.0074 84.5921
" />
<path d="M141.0074 84.5921
L140.9598 84.6874
" />
<path d="M140.9598 84.6874
L140.9121 84.7350
" />
<path d="M140.9121 84.7350
L140.8169 84.7826
" />
<path d="M140.8169 84.7826
L140.5312 84.7826
" />
<path d="M140.5312 84.7826
L140.4359 84.7350
" />
<path d="M140.4359 84.7350
L140.3883 84.6874
" />
<path d="M141.2931 83.7826
L141.6264 84.7826
" />
<path d="M141.6264 84.7826
L141.9598 83.7826
" />
<path d="M142.1979 83.7826
L142.8169 83.7826
" />
<path d="M142.8169 83.7826
L142.4836 84.1636
" />
<path d="M142.4836 84.1636
L142.6264 84.1636
" />
<path d="M142.6264 84.1636
L142.7217 84.2112
" />
<path d="M142.7217 84.2112
L142.7693 84.2588
" />
<path d="M142.7693 84.2588
L142.8169 84.3540
" />
<path d="M142.8169 84.3540
L142.8169 84.5921
" />
<path d="M142.8169 84.5921
L142.7693 84.6874
" />
<path d="M142.7693 84.6874
L142.7217 84.7350
" />
<path d="M142.7217 84.7350
L142.6264 84.7826
" />
<path d="M142.6264 84.7826
L142.3407 84.7826
" />
<path d="M142.3407 84.7826
L142.2455 84.7350
" />
<path d="M142.2455 84.7350
L142.1979 84.6874
" />
</g><text x="140.0810" y="86.5280"
textLength="6.7583" font-size="1.3333" lengthAdjust="spacingAndGlyphs"
text-anchor="start" opacity="0">I2C PWR</text>
<g class="stroked-text"><desc>I2C PWR</desc>
<path d="M140.4836 86.3926
L140.4836 85.3926
" />
<path d="M140.9121 85.4879
L140.9598 85.4402
" />
<path d="M140.9598 85.4402
L141.0550 85.3926
" />
<path d="M141.0550 85.3926
L141.2931 85.3926
" />
<path d="M141.2931 85.3926
L141.3883 85.4402
" />
<path d="M141.3883 85.4402
L141.4359 85.4879
" />
<path d="M141.4359 85.4879
L141.4836 85.5831
" />
<path d="M141.4836 85.5831
L141.4836 85.6783
" />
<path d="M141.4836 85.6783
L141.4359 85.8212
" />
<path d="M141.4359 85.8212
L140.8645 86.3926
" />
<path d="M140.8645 86.3926
L141.4836 86.3926
" />
<path d="M142.4836 86.2974
L142.4359 86.3450
" />
<path d="M142.4359 86.3450
L142.2931 86.3926
" />
<path d="M142.2931 86.3926
L142.1979 86.3926
" />
<path d="M142.1979 86.3926
L142.0550 86.3450
" />
<path d="M142.0550 86.3450
L141.9598 86.2498
" />
<path d="M141.9598 86.2498
L141.9121 86.1545
" />
<path d="M141.9121 86.1545
L141.8645 85.9640
" />
<path d="M141.8645 85.9640
L141.8645 85.8212
" />
<path d="M141.8645 85.8212
L141.9121 85.6307
" />
<path d="M141.9121 85.6307
L141.9598 85.5355
" />
<path d="M141.9598 85.5355
L142.0550 85.4402
" />
<path d="M142.0550 85.4402
L142.1979 85.3926
" />
<path d="M142.1979 85.3926
L142.2931 85.3926
" />
<path d="M142.2931 85.3926
L142.4359 85.4402
" />
<path d="M142.4359 85.4402
L142.4836 85.4879
" />
<path d="M143.6740 86.3926
L143.6740 85.3926
" />
<path d="M143.6740 85.3926
L144.0550 85.3926
" />
<path d="M144.0550 85.3926
L144.1502 85.4402
" />
<path d="M144.1502 85.4402
L144.1979 85.4879
" />
<path d="M144.1979 85.4879
L144.2455 85.5831
" />
<path d="M144.2455 85.5831
L144.2455 85.7260
" />
<path d="M144.2455 85.7260
L144.1979 85.8212
" />
<path d="M144.1979 85.8212
L144.1502 85.8688
" />
<path d="M144.1502 85.8688
L144.0550 85.9164
" />
<path d="M144.0550 85.9164
L143.6740 85.9164
" />
<path d="M144.5788 85.3926
L144.8169 86.3926
" />
<path d="M144.8169 86.3926
L145.0074 85.6783
" />
<path d="M145.0074 85.6783
L145.1979 86.3926
" />
<path d="M145.1979 86.3926
L145.4359 85.3926
" />
<path d="M146.3883 86.3926
L146.0550 85.9164
" />
<path d="M145.8169 86.3926
L145.8169 85.3926
" />
<path d="M145.8169 85.3926
L146.1979 85.3926
" />
<path d="M146.1979 85.3926
L146.2931 85.4402
" />
<path d="M146.2931 85.4402
L146.3407 85.4879
" />
<path d="M146.3407 85.4879
L146.3883 85.5831
" />
<path d="M146.3883 85.5831
L146.3883 85.7260
" />
<path d="M146.3883 85.7260
L146.3407 85.8212
" />
<path d="M146.3407 85.8212
L146.2931 85.8688
" />
<path d="M146.2931 85.8688
L146.1979 85.9164
" />
<path d="M146.1979 85.9164
L145.8169 85.9164
" />
</g><text x="140.0810" y="88.1380"
textLength="2.2345" font-size="1.3333" lengthAdjust="spacingAndGlyphs"
text-anchor="start" opacity="0">5V</text>
<g class="stroked-text"><desc>5V</desc>
<path d="M140.9598 87.0026
L140.4836 87.0026
" />
<path d="M140.4836 87.0026
L140.4359 87.4788
" />
<path d="M140.4359 87.4788
L140.4836 87.4312
" />
<path d="M140.4836 87.4312
L140.5788 87.3836
" />
<path d="M140.5788 87.3836
L140.8169 87.3836
" />
<path d="M140.8169 87.3836
L140.9121 87.4312
" />
<path d="M140.9121 87.4312
L140.9598 87.4788
" />
<path d="M140.9598 87.4788
L141.0074 87.5740
" />
<path d="M141.0074 87.5740
L141.0074 87.8121
" />
<path d="M141.0074 87.8121
L140.9598 87.9074
" />
<path d="M140.9598 87.9074
L140.9121 87.9550
" />
<path d="M140.9121 87.9550
L140.8169 88.0026
" />
<path d="M140.8169 88.0026
L140.5788 88.0026
" />
<path d="M140.5788 88.0026
L140.4836 87.9550
" />
<path d="M140.4836 87.9550
L140.4359 87.9074
" />
<path d="M141.2931 87.0026
L141.6264 88.0026
" />
<path d="M141.6264 88.0026
L141.9598 87.0026
" />
</g></g>
<g style="fill:#F2EDA1; fill-opacity:0.0; 
stroke:#F2EDA1; stroke-width:0.2540; stroke-opacity:1; 
stroke-linecap:round; stroke-linejoin:round;">
<g transform="rotate(-90.000000 145.2520 142.2500)">
<text x="145.2520" y="142.8850"
textLength="4.2515" font-size="1.6933" lengthAdjust="spacingAndGlyphs"
text-anchor="middle" opacity="0">SW2</text>
</g>
<g class="stroked-text"><desc>SW2</desc>
<path d="M145.7658 143.9433
L145.8263 143.7619
" />
<path d="M145.8263 143.7619
L145.8263 143.4595
" />
<path d="M145.8263 143.4595
L145.7658 143.3386
" />
<path d="M145.7658 143.3386
L145.7054 143.2781
" />
<path d="M145.7054 143.2781
L145.5844 143.2176
" />
<path d="M145.5844 143.2176
L145.4635 143.2176
" />
<path d="M145.4635 143.2176
L145.3425 143.2781
" />
<path d="M145.3425 143.2781
L145.2820 143.3386
" />
<path d="M145.2820 143.3386
L145.2216 143.4595
" />
<path d="M145.2216 143.4595
L145.1611 143.7014
" />
<path d="M145.1611 143.7014
L145.1006 143.8224
" />
<path d="M145.1006 143.8224
L145.0401 143.8829
" />
<path d="M145.0401 143.8829
L144.9192 143.9433
" />
<path d="M144.9192 143.9433
L144.7982 143.9433
" />
<path d="M144.7982 143.9433
L144.6773 143.8829
" />
<path d="M144.6773 143.8829
L144.6168 143.8224
" />
<path d="M144.6168 143.8224
L144.5563 143.7014
" />
<path d="M144.5563 143.7014
L144.5563 143.3990
" />
<path d="M144.5563 143.3990
L144.6168 143.2176
" />
<path d="M144.5563 142.7943
L145.8263 142.4919
" />
<path d="M145.8263 142.4919
L144.9192 142.2500
" />
<path d="M144.9192 142.2500
L145.8263 142.0081
" />
<path d="M145.8263 142.0081
L144.5563 141.7057
" />
<path d="M144.6773 141.2824
L144.6168 141.2219
" />
<path d="M144.6168 141.2219
L144.5563 141.1010
" />
<path d="M144.5563 141.1010
L144.5563 140.7986
" />
<path d="M144.5563 140.7986
L144.6168 140.6776
" />
<path d="M144.6168 140.6776
L144.6773 140.6171
" />
<path d="M144.6773 140.6171
L144.7982 140.5567
" />
<path d="M144.7982 140.5567
L144.9192 140.5567
" />
<path d="M144.9192 140.5567
L145.1006 140.6171
" />
<path d="M145.1006 140.6171
L145.8263 141.3429
" />
<path d="M145.8263 141.3429
L145.8263 140.5567
" />
</g></g>
<g style="fill:#F2EDA1; fill-opacity:0.0; 
stroke:#F2EDA1; stroke-width:0.1200; stroke-opacity:1; 
stroke-linecap:round; stroke-linejoin:round;">
<path d="M143.9046 134.6220
L143.6234 134.6220
" />
<path d="M143.9046 133.6020
L143.6234 133.6020
" />
<path d="M140.0674 122.4260
L140.3486 122.4260
" />
<path d="M140.0674 123.4460
L140.3486 123.4460
" />
</g>
<g style="fill:#F2EDA1; fill-opacity:0.0; 
stroke:#F2EDA1; stroke-width:0.2000; stroke-opacity:1; 
stroke-linecap:round; stroke-linejoin:round;">
<path d="M143.7500 146.7500
L146.7500 146.7500
" />
<path d="M146.7500 137.7500
L143.7500 137.7500
" />
<path d="M143.7500 137.7500
L143.7500 138.9270
" />
<path d="M143.7500 146.7500
L143.7500 145.5730
" />
<path d="M146.7500 137.7500
L146.7500 138.9270
" />
<path d="M146.7500 146.7500
L146.7500 145.5730
" />
</g>
<g style="fill:#F2EDA1; fill-opacity:1.0000; 
stroke:#F2EDA1; stroke-width:0.0000; stroke-opacity:1; 
stroke-linecap:round; stroke-linejoin:round;">
<circle cx="149.2180" cy="145.8640" r="0.0358" /> 
<circle cx="149.2180" cy="145.7920" r="0.0358" /> 
</g>
<g style="fill:#F2EDA1; fill-opacity:0.0; 
stroke:#F2EDA1; stroke-width:0.0716; stroke-opacity:1; 
stroke-linecap:round; stroke-linejoin:round;">
<path d="M149.2180 145.8640 A0.0360 0.0360 0.0 0 0 149.2180 145.7920" />
<path d="M149.2180 145.7920 A0.0360 0.0360 0.0 0 0 149.2180 145.8640" />
</g>
<g style="fill:#F2EDA1; fill-opacity:0.0; 
stroke:#F2EDA1; stroke-width:0.1200; stroke-opacity:1; 
stroke-linecap:round; stroke-linejoin:round;">
<path d="M132.2373 124.9775
L131.7627 124.9775
" />
<path d="M132.2373 126.0225
L131.7627 126.0225
" />
<path d="M136.0325 109.4873
L136.0325 109.0127
" />
<path d="M134.9875 109.4873
L134.9875 109.0127
" />
<path d="M133.2275 109.0127
L133.2275 109.4873
" />
<path d="M134.2725 109.0127
L134.2725 109.4873
" />
<path d="M148.9775 124.2627
L148.9775 124.7373
" />
<path d="M150.0225 124.2627
L150.0225 124.7373
" />
<path d="M159.2100 150.7900
L159.2100 130.4700
" />
<path d="M165.5600 130.4700
L157.9400 130.4700
" />
<path d="M157.9400 150.7900
L165.5600 150.7900
" />
<path d="M157.9400 130.4700
L157.9400 150.7900
" />
<path d="M165.5600 130.4700
L165.5600 150.7900
" />
<path d="M165.5600 90.7100
L165.5600 111.0300
" />
<path d="M157.9400 90.7100
L157.9400 111.0300
" />
<path d="M157.9400 111.0300
L165.5600 111.0300
" />
<path d="M165.5600 90.7100
L157.9400 90.7100
" />
<path d="M159.2100 111.0300
L159.2100 90.7100
" />
<path d="M153.7550 128.0050
L153.7550 130.6050
" />
<path d="M156.3550 122.8650
L151.1550 122.8650
" />
<path d="M151.1550 130.6050
L151.1550 122.8650
" />
<path d="M156.3550 130.6050
L155.0250 130.6050
" />
<path d="M156.3550 128.0050
L156.3550 122.8650
" />
<path d="M156.3550 128.0050
L153.7550 128.0050
" />
<path d="M156.3550 129.2750
L156.3550 130.6050
" />
<path d="M153.7550 130.6050
L151.1550 130.6050
" />
<path d="M124.9400 111.0300
L124.9400 90.7100
" />
<path d="M132.5600 111.0300
L132.5600 90.7100
" />
<path d="M132.5600 90.7100
L124.9400 90.7100
" />
<path d="M124.9400 111.0300
L132.5600 111.0300
" />
<path d="M131.2900 90.7100
L131.2900 111.0300
" />
<path d="M125.1900 150.6600
L125.1900 130.3400
" />
<path d="M132.8100 150.6600
L132.8100 130.3400
" />
<path d="M132.8100 130.3400
L125.1900 130.3400
" />
<path d="M125.1900 150.6600
L132.8100 150.6600
" />
<path d="M131.5400 130.3400
L131.5400 150.6600
" />
<path d="M148.4000 123.0500
L148.4000 125.9500
" />
<path d="M146.1000 123.0500
L146.1000 125.9500
" />
<path d="M147.8000 123.0500
L148.4000 123.0500
" />
<path d="M140.0872 148.4900
L140.4128 148.4900
" />
<path d="M140.0872 149.5100
L140.4128 149.5100
" />
<path d="M139.6420 131.3760
L139.9020 131.3760
" />
<path d="M139.9020 131.3760
L139.9020 133.0510
" />
<path d="M145.0920 131.3760
L144.8320 131.3760
" />
<path d="M139.6420 128.6510
L139.6420 131.3760
" />
<path d="M139.6420 128.6510
L139.6420 125.9260
" />
<path d="M145.0920 128.6510
L145.0920 131.3760
" />
<path d="M145.0920 128.6510
L145.0920 125.9260
" />
<path d="M139.6420 125.9260
L139.9020 125.9260
" />
<path d="M145.0920 125.9260
L144.8320 125.9260
" />
<path d="M139.7500 83.9000
L139.7500 88.0000
" />
<path d="M137.7500 83.9000
L139.7500 83.9000
" />
<path d="M137.2500 84.3500
L137.2500 84.9500
" />
<path d="M137.5500 84.6500
L137.2500 84.3500
" />
<path d="M137.5500 84.6500
L137.2500 84.9500
" />
<path d="M139.7500 88.0000
L137.7500 88.0000
" />
<path d="M137.7500 88.0000
L137.7500 83.9000
" />
<path d="M152.9775 138.9873
L152.9775 138.5127
" />
<path d="M154.0225 138.9873
L154.0225 138.5127
" />
<path d="M165.1200 124.1300
L165.1200 125.4600
" />
<path d="M163.7900 124.1300
L165.1200 124.1300
" />
<path d="M162.5200 124.1300
L157.3800 124.1300
" />
<path d="M162.5200 124.1300
L162.5200 126.7300
" />
<path d="M157.3800 124.1300
L157.3800 129.3300
" />
<path d="M165.1200 126.7300
L165.1200 129.3300
" />
<path d="M162.5200 126.7300
L165.1200 126.7300
" />
<path d="M165.1200 129.3300
L157.3800 129.3300
" />
<path d="M152.3625 144.9400
L150.5625 144.9400
" />
<path d="M152.3625 144.9400
L153.1625 144.9400
" />
<path d="M152.3625 148.0600
L151.5625 148.0600
" />
<path d="M152.3625 148.0600
L153.1625 148.0600
" />
<path d="M125.8400 129.5800
L125.8400 128.2500
" />
<path d="M127.1700 129.5800
L125.8400 129.5800
" />
<path d="M128.4400 129.5800
L133.5800 129.5800
" />
<path d="M128.4400 129.5800
L128.4400 126.9200
" />
<path d="M133.5800 129.5800
L133.5800 126.9200
" />
<path d="M128.4400 126.9200
L133.5800 126.9200
" />
<path d="M147.0150 153.0113
L147.0150 152.4887
" />
<path d="M148.4850 153.0113
L148.4850 152.4887
" />
<path d="M150.3600 118.3600
L150.3600 117.4100
" />
<path d="M150.3600 117.4100
L151.7000 117.4100
" />
<path d="M150.3600 108.1400
L150.3600 109.0900
" />
<path d="M149.4100 118.3600
L150.3600 118.3600
" />
<path d="M149.4100 108.1400
L150.3600 108.1400
" />
<path d="M141.0900 118.3600
L140.1400 118.3600
" />
<path d="M141.0900 108.1400
L140.1400 108.1400
" />
<path d="M140.1400 118.3600
L140.1400 117.4100
" />
<path d="M140.1400 108.1400
L140.1400 109.0900
" />
<path d="M130.2725 124.0127
L130.2725 124.4873
" />
<path d="M129.2275 124.0127
L129.2275 124.4873
" />
<path d="M139.8594 105.2400
L140.1406 105.2400
" />
<path d="M139.8594 106.2600
L140.1406 106.2600
" />
<path d="M149.1500 150.3400
L155.1600 150.3400
" />
<path d="M151.4000 157.1600
L155.1600 157.1600
" />
<path d="M155.1600 150.3400
L155.1600 151.6000
" />
<path d="M155.1600 157.1600
L155.1600 155.9000
" />
<path d="M136.2846 103.2530
L136.0034 103.2530
" />
<path d="M136.2846 102.2330
L136.0034 102.2330
" />
<path d="M153.4900 112.1406
L153.4900 111.8594
" />
<path d="M154.5100 112.1406
L154.5100 111.8594
" />
<path d="M152.4000 133.9400
L150.6000 133.9400
" />
<path d="M152.4000 133.9400
L153.2000 133.9400
" />
<path d="M152.4000 137.0600
L151.6000 137.0600
" />
<path d="M152.4000 137.0600
L153.2000 137.0600
" />
<path d="M146.3135 129.7467
L146.3135 130.2213
" />
<path d="M147.3585 129.7467
L147.3585 130.2213
" />
<path d="M153.2373 149.5225
L152.7627 149.5225
" />
<path d="M153.2373 148.4775
L152.7627 148.4775
" />
<path d="M149.6406 98.2600
L149.3594 98.2600
" />
<path d="M149.6406 97.2400
L149.3594 97.2400
" />
<path d="M136.3300 94.9500
L135.0000 94.9500
" />
<path d="M136.3300 93.6200
L136.3300 94.9500
" />
<path d="M136.3300 92.3500
L136.3300 84.6700
" />
<path d="M136.3300 92.3500
L133.6700 92.3500
" />
<path d="M136.3300 84.6700
L133.6700 84.6700
" />
<path d="M133.6700 92.3500
L133.6700 84.6700
" />
<path d="M149.1344 120.4900
L149.4156 120.4900
" />
<path d="M149.1344 121.5100
L149.4156 121.5100
" />
<path d="M151.9873 133.5225
L151.5127 133.5225
" />
<path d="M151.9873 132.4775
L151.5127 132.4775
" />
<path d="M137.8521 140.1600
L136.6479 140.1600
" />
<path d="M137.8521 138.3400
L136.6479 138.3400
" />
<path d="M147.8135 130.2213
L147.8135 129.7467
" />
<path d="M148.8585 130.2213
L148.8585 129.7467
" />
<path d="M142.1275 148.0400
L142.1275 149.9600
" />
<path d="M142.1275 149.9600
L144.8125 149.9600
" />
<path d="M144.8125 148.0400
L142.1275 148.0400
" />
<path d="M152.2373 144.5225
L151.7627 144.5225
" />
<path d="M152.2373 143.4775
L151.7627 143.4775
" />
<path d="M157.0800 105.9500
L155.7500 105.9500
" />
<path d="M157.0800 104.6200
L157.0800 105.9500
" />
<path d="M157.0800 103.3500
L157.0800 95.6700
" />
<path d="M157.0800 103.3500
L154.4200 103.3500
" />
<path d="M157.0800 95.6700
L154.4200 95.6700
" />
<path d="M154.4200 103.3500
L154.4200 95.6700
" />
<path d="M136.0000 113.9400
L134.2000 113.9400
" />
<path d="M136.0000 113.9400
L136.8000 113.9400
" />
<path d="M136.0000 117.0600
L135.2000 117.0600
" />
<path d="M136.0000 117.0600
L136.8000 117.0600
" />
<path d="M136.8594 96.9900
L137.1406 96.9900
" />
<path d="M136.8594 98.0100
L137.1406 98.0100
" />
<path d="M136.6406 118.7600
L136.3594 118.7600
" />
<path d="M136.6406 117.7400
L136.3594 117.7400
" />
<path d="M154.6740 85.6540
L153.1740 85.6540
" />
<path d="M150.6740 86.9040
L150.6740 91.4040
" />
<path d="M157.1740 91.4040
L157.1740 86.9040
" />
<path d="M153.1740 92.6540
L154.6740 92.6540
" />
<path d="M125.2900 120.4100
L126.9000 120.4100
" />
<path d="M129.4000 120.4100
L131.1100 120.4100
" />
<path d="M131.1100 120.4100
L131.1100 118.3500
" />
<path d="M131.1100 114.7500
L131.7000 114.7500
" />
<path d="M125.2900 112.6900
L125.2900 120.4100
" />
<path d="M125.2900 112.6900
L126.9000 112.6900
" />
<path d="M129.4000 112.6900
L131.1100 112.6900
" />
<path d="M131.1100 112.6900
L131.1100 114.7500
" />
<path d="M138.4900 119.1656
L138.4900 118.8844
" />
<path d="M139.5100 119.1656
L139.5100 118.8844
" />
<path d="M149.7350 91.5844
L149.7350 91.8656
" />
<path d="M148.7150 91.5844
L148.7150 91.8656
" />
<path d="M155.1628 110.0100
L154.8372 110.0100
" />
<path d="M155.1628 108.9900
L154.8372 108.9900
" />
<path d="M145.0485 100.0127
L145.0485 100.4873
" />
<path d="M144.0035 100.0127
L144.0035 100.4873
" />
<path d="M137.2500 141.4400
L135.4500 141.4400
" />
<path d="M137.2500 141.4400
L138.0500 141.4400
" />
<path d="M137.2500 144.5600
L136.4500 144.5600
" />
<path d="M137.2500 144.5600
L138.0500 144.5600
" />
<path d="M148.9350 149.9600
L148.9350 148.0400
" />
<path d="M148.9350 148.0400
L146.2500 148.0400
" />
<path d="M146.2500 149.9600
L148.9350 149.9600
" />
<path d="M143.3975 99.9657
L143.3975 100.4403
" />
<path d="M142.3525 99.9657
L142.3525 100.4403
" />
<path d="M132.4775 117.7123
L132.4775 117.2377
" />
<path d="M133.5225 117.7123
L133.5225 117.2377
" />
<path d="M143.9850 154.4887
L143.9850 155.0113
" />
<path d="M142.5150 154.4887
L142.5150 155.0113
" />
<path d="M138.3594 136.1420
L138.6406 136.1420
" />
<path d="M138.3594 137.1620
L138.6406 137.1620
" />
<path d="M156.3040 114.8690
L156.3040 115.5090
" />
<path d="M155.5740 116.7490
L156.2640 116.7490
" />
<path d="M155.3640 113.8290
L155.0240 113.8290
" />
<path d="M155.3540 116.5490
L155.0240 116.5490
" />
<path d="M154.0840 114.8690
L154.0840 115.5090
" />
<path d="M155.3540 116.5490 A0.3324 0.3324 0.0 0 0 155.5740 116.7490" />
<path d="M126.7900 125.9975
L128.7100 125.9975
" />
<path d="M128.7100 125.9975
L128.7100 123.3125
" />
<path d="M126.7900 123.3125
L126.7900 125.9975
" />
<path d="M148.3906 106.2600
L148.1094 106.2600
" />
<path d="M148.3906 105.2400
L148.1094 105.2400
" />
<path d="M152.2600 99.8594
L152.2600 100.1406
" />
<path d="M151.2400 99.8594
L151.2400 100.1406
" />
<path d="M136.6479 145.5900
L137.8521 145.5900
" />
<path d="M136.6479 147.4100
L137.8521 147.4100
" />
</g>
<g style="fill:#F2EDA1; fill-opacity:0.0; 
stroke:#F2EDA1; stroke-width:0.1270; stroke-opacity:1; 
stroke-linecap:round; stroke-linejoin:round;">
<path d="M148.5000 99.0000
L148.7925 99.0000
" />
<path d="M148.5000 99.0425
L148.5000 99.0000
" />
<path d="M148.5000 101.0000
L148.5000 100.9575
" />
<path d="M148.5000 101.0000
L148.7925 101.0000
" />
<path d="M150.2075 99.0000
L150.5000 99.0000
" />
<path d="M150.5000 99.0000
L150.5000 99.0425
" />
<path d="M150.5000 100.9575
L150.5000 101.0000
" />
<path d="M150.5000 101.0000
L150.2075 101.0000
" />
</g>
<g style="fill:#F2EDA1; fill-opacity:0.0; 
stroke:#F2EDA1; stroke-width:0.2000; stroke-opacity:1; 
stroke-linecap:round; stroke-linejoin:round;">
<circle cx="149.7500" cy="98.4125" r="0.1000" /> 
</g>
<g style="fill:#F2EDA1; fill-opacity:0.0; 
stroke:#F2EDA1; stroke-width:0.1200; stroke-opacity:1; 
stroke-linecap:round; stroke-linejoin:round;">
<path d="M165.1050 117.8800
L165.1050 119.2100
" />
<path d="M163.7750 117.8800
L165.1050 117.8800
" />
<path d="M162.5050 117.8800
L157.3650 117.8800
" />
<path d="M162.5050 117.8800
L162.5050 120.4800
" />
<path d="M157.3650 117.8800
L157.3650 123.0800
" />
<path d="M165.1050 120.4800
L165.1050 123.0800
" />
<path d="M162.5050 120.4800
L165.1050 120.4800
" />
<path d="M165.1050 123.0800
L157.3650 123.0800
" />
<path d="M143.7387 150.5150
L144.2613 150.5150
" />
<path d="M143.7387 151.9850
L144.2613 151.9850
" />
<path d="M155.2400 112.1406
L155.2400 111.8594
" />
<path d="M156.2600 112.1406
L156.2600 111.8594
" />
<path d="M141.7300 104.5346
L141.7300 104.2534
" />
<path d="M142.7500 104.5346
L142.7500 104.2534
" />
<path d="M141.6000 157.1600
L135.5900 157.1600
" />
<path d="M139.3500 150.3400
L135.5900 150.3400
" />
<path d="M135.5900 157.1600
L135.5900 155.9000
" />
<path d="M135.5900 150.3400
L135.5900 151.6000
" />
</g>
<g style="fill:#F2EDA1; fill-opacity:0.0; 
stroke:#F2EDA1; stroke-width:0.1270; stroke-opacity:1; 
stroke-linecap:round; stroke-linejoin:round;">
<path d="M134.5000 98.7500
L134.7500 98.7500
" />
<path d="M134.5000 99.7500
L134.5000 98.7500
" />
<path d="M134.5000 101.7500
L134.5000 100.7500
" />
<path d="M134.7500 101.7500
L134.5000 101.7500
" />
<path d="M139.0000 98.7500
L138.7500 98.7500
" />
<path d="M139.0000 99.7500
L139.0000 98.7500
" />
<path d="M139.0000 100.7500
L139.0000 101.7500
" />
<path d="M139.0000 101.7500
L138.7500 101.7500
" />
</g>
<g style="fill:#F2EDA1; fill-opacity:0.0; 
stroke:#F2EDA1; stroke-width:0.2000; stroke-opacity:1; 
stroke-linecap:round; stroke-linejoin:round;">
<circle cx="135.1210" cy="98.1500" r="0.1000" /> 
</g>
<g style="fill:#F2EDA1; fill-opacity:0.0; 
stroke:#F2EDA1; stroke-width:0.1200; stroke-opacity:1; 
stroke-linecap:round; stroke-linejoin:round;">
<path d="M146.4383 156.8180
L145.9157 156.8180
" />
<path d="M146.4383 155.3480
L145.9157 155.3480
" />
<g >
</g>
<g >
</g>
<g >
</g>
<g >
</g>
<g >
</g>
<g >
</g>
<g >
</g>
<g >
</g>
<g >
</g>
<g >
</g>
<g >
</g>
<g >
</g>
<g >
</g>
<g >
</g>
<g >
</g>
<g >
</g>
<g >
</g>
<g >
</g>
<g >
</g>
<g >
</g>
<g >
</g>
<g >
</g>
<g >
</g>
<g >
</g>
<g >
</g>
<g >
</g>
<g >
</g>
<g >
</g>
<g >
</g>
<g >
</g>
<g >
</g>
<g >
</g>
<g >
</g>
<g >
</g>
<g >
</g>
<g >
</g>
<g >
</g>
<g >
</g>
<g >
</g>
<g >
</g>
<g >
</g>
<g >
</g>
<g >
</g>
<g >
</g>
<g >
</g>
<g >
</g>
<g >
</g>
<g >
</g>
<g >
</g>
<g >
</g>
<g >
</g>
<g >
</g>
<g >
</g>
<g >
</g>
<g >
</g>
<g >
</g>
<g >
</g>
<g >
</g>
<g >
</g>
<g >
</g>
<g >
</g>
<g >
</g>
<g >
</g>
<g >
</g>
<g >
</g>
<g >
</g>
<g >
</g>
<g >
</g>
<g >
</g>
<g >
</g>
<g >
</g>
<g >
</g>
<g >
</g>
<g >
</g>
<g >
</g>
<g >
</g>
<g >
</g>
<g >
</g>
<g >
</g>
<g >
</g>
<g >
</g>
<g >
</g>
<g >
</g>
<g >
</g>
<g >
</g>
</g>
<g style="fill:#000000; fill-opacity:0.0; 
stroke:#000000; stroke-width:0.1200; stroke-opacity:1; 
stroke-linecap:round; stroke-linejoin:round;">
</g>
<g style="fill:#D0D2CD; fill-opacity:0.0; 
stroke:#D0D2CD; stroke-width:0.1200; stroke-opacity:1; 
stroke-linecap:round; stroke-linejoin:round;">
</g>
<g style="fill:#D0D2CD; fill-opacity:0.0; 
stroke:#D0D2CD; stroke-width:0.1000; stroke-opacity:1; 
stroke-linecap:round; stroke-linejoin:round;">
<path style="fill:#D0D2CD; fill-opacity:0.0; 
stroke:#D0D2CD; stroke-width:0.1000; stroke-opacity:1; 
stroke-linecap:round; stroke-linejoin:round;fill:none"
d="M 125.2500,83.2500
165.2500,83.2500
165.2500,158.2500
125.2500,158.2500
Z" /> 
<g >
</g>
<g >
</g>
<g >
</g>
<g >
</g>
<g >
</g>
<g >
</g>
<g >
</g>
<g >
</g>
<g >
</g>
<g >
</g>
<g >
</g>
<g >
</g>
<g >
</g>
<g >
</g>
<g >
</g>
<g >
</g>
<g >
</g>
<g >
</g>
<g >
</g>
<g >
</g>
<g >
</g>
<g >
</g>
<g >
</g>
<g >
</g>
<g >
</g>
<g >
</g>
<g >
</g>
<g >
</g>
<g >
</g>
<g >
</g>
<g >
</g>
<g >
</g>
<g >
</g>
<g >
</g>
<g >
</g>
<g >
</g>
<g >
</g>
<g >
</g>
<g >
</g>
<g >
</g>
<g >
</g>
<g >
</g>
<g >
</g>
<g >
</g>
<g >
</g>
<g >
</g>
<g >
</g>
<g >
</g>
<g >
</g>
<g >
</g>
<g >
</g>
<g >
</g>
<g >
</g>
<g >
</g>
<g >
</g>
<g >
</g>
<g >
</g>
<g >
</g>
<g >
</g>
<g >
</g>
<g >
</g>
<g >
</g>
<g >
</g>
<g >
</g>
<g >
</g>
<g >
</g>
<g >
</g>
<g >
</g>
<g >
</g>
<g >
</g>
<g >
</g>
<g >
</g>
<g >
</g>
<g >
</g>
<g >
</g>
<g >
</g>
<g >
</g>
<g >
</g>
<g >
</g>
<g >
</g>
<g >
</g>
<g >
</g>
<g >
</g>
<g >
</g>
<g >
</g>
</g> 
</svg>
